<svg width="25" height="32" viewBox="0 0 25 32" fill="none" xmlns="http://www.w3.org/2000/svg">
<g clip-path="url(#clip0_436_5051)">
<mask id="mask0_436_5051" style="mask-type:alpha" maskUnits="userSpaceOnUse" x="0" y="0" width="24" height="32">
<path d="M15.0278 0.457764H3.01784C1.85217 0.457764 0.898438 1.4115 0.898438 2.57717V29.4229C0.898438 30.5886 1.85217 31.5424 3.01784 31.5424H21.386C22.5517 31.5424 23.5054 30.5886 23.5054 29.4229V8.93538L15.0278 0.457764Z" fill="white"/>
</mask>
<g mask="url(#mask0_436_5051)">
<path d="M15.0278 0.457764H3.01784C1.85217 0.457764 0.898438 1.4115 0.898438 2.57717V29.4229C0.898438 30.5886 1.85217 31.5424 3.01784 31.5424H21.386C22.5517 31.5424 23.5054 30.5886 23.5054 29.4229V8.93538L18.5601 5.40303L15.0278 0.457764Z" fill="#0F9D58"/>
</g>
<mask id="mask1_436_5051" style="mask-type:alpha" maskUnits="userSpaceOnUse" x="0" y="0" width="24" height="32">
<path d="M15.0278 0.457764H3.01784C1.85217 0.457764 0.898438 1.4115 0.898438 2.57717V29.4229C0.898438 30.5886 1.85217 31.5424 3.01784 31.5424H21.386C22.5517 31.5424 23.5054 30.5886 23.5054 29.4229V8.93538L15.0278 0.457764Z" fill="white"/>
</mask>
<g mask="url(#mask1_436_5051)">
<path d="M6.5498 15.6469V25.8906H17.8533V15.6469H6.5498ZM11.4951 24.4777H7.96276V22.7115H11.4951V24.4777ZM11.4951 21.6518H7.96276V19.8856H11.4951V21.6518ZM11.4951 18.826H7.96276V17.0598H11.4951V18.826ZM16.4404 24.4777H12.908V22.7115H16.4404V24.4777ZM16.4404 21.6518H12.908V19.8856H16.4404V21.6518ZM16.4404 18.826H12.908V17.0598H16.4404V18.826Z" fill="#F1F1F1"/>
</g>
<mask id="mask2_436_5051" style="mask-type:alpha" maskUnits="userSpaceOnUse" x="0" y="0" width="24" height="32">
<path d="M15.0278 0.457764H3.01784C1.85217 0.457764 0.898438 1.4115 0.898438 2.57717V29.4229C0.898438 30.5886 1.85217 31.5424 3.01784 31.5424H21.386C22.5517 31.5424 23.5054 30.5886 23.5054 29.4229V8.93538L15.0278 0.457764Z" fill="white"/>
</mask>
<g mask="url(#mask2_436_5051)">
<path d="M15.6475 8.31543L23.5052 16.1714V8.93537L15.6475 8.31543Z" fill="url(#paint0_linear_436_5051)"/>
</g>
<mask id="mask3_436_5051" style="mask-type:alpha" maskUnits="userSpaceOnUse" x="0" y="0" width="24" height="32">
<path d="M15.0278 0.457764H3.01784C1.85217 0.457764 0.898438 1.4115 0.898438 2.57717V29.4229C0.898438 30.5886 1.85217 31.5424 3.01784 31.5424H21.386C22.5517 31.5424 23.5054 30.5886 23.5054 29.4229V8.93538L15.0278 0.457764Z" fill="white"/>
</mask>
<g mask="url(#mask3_436_5051)">
<path d="M15.0273 0.457764V6.81598C15.0273 7.98693 15.9758 8.93538 17.1467 8.93538H23.5049L15.0273 0.457764Z" fill="#87CEAC"/>
</g>
<mask id="mask4_436_5051" style="mask-type:alpha" maskUnits="userSpaceOnUse" x="0" y="0" width="24" height="32">
<path d="M15.0278 0.457764H3.01784C1.85217 0.457764 0.898438 1.4115 0.898438 2.57717V29.4229C0.898438 30.5886 1.85217 31.5424 3.01784 31.5424H21.386C22.5517 31.5424 23.5054 30.5886 23.5054 29.4229V8.93538L15.0278 0.457764Z" fill="white"/>
</mask>
<g mask="url(#mask4_436_5051)">
<path d="M3.01784 0.457764C1.85217 0.457764 0.898438 1.41149 0.898438 2.57717V2.75378C0.898438 1.58811 1.85217 0.634381 3.01784 0.634381H15.0278V0.457764H3.01784Z" fill="white" fill-opacity="0.2"/>
</g>
<mask id="mask5_436_5051" style="mask-type:alpha" maskUnits="userSpaceOnUse" x="0" y="0" width="24" height="32">
<path d="M15.0278 0.457764H3.01784C1.85217 0.457764 0.898438 1.4115 0.898438 2.57717V29.4229C0.898438 30.5886 1.85217 31.5424 3.01784 31.5424H21.386C22.5517 31.5424 23.5054 30.5886 23.5054 29.4229V8.93538L15.0278 0.457764Z" fill="white"/>
</mask>
<g mask="url(#mask5_436_5051)">
<path d="M21.386 31.3657H3.01784C1.85217 31.3657 0.898438 30.412 0.898438 29.2463V29.4229C0.898438 30.5886 1.85217 31.5424 3.01784 31.5424H21.386C22.5517 31.5424 23.5054 30.5886 23.5054 29.4229V29.2463C23.5054 30.412 22.5517 31.3657 21.386 31.3657Z" fill="#263238" fill-opacity="0.2"/>
</g>
<mask id="mask6_436_5051" style="mask-type:alpha" maskUnits="userSpaceOnUse" x="0" y="0" width="24" height="32">
<path d="M15.0278 0.457764H3.01784C1.85217 0.457764 0.898438 1.4115 0.898438 2.57717V29.4229C0.898438 30.5886 1.85217 31.5424 3.01784 31.5424H21.386C22.5517 31.5424 23.5054 30.5886 23.5054 29.4229V8.93538L15.0278 0.457764Z" fill="white"/>
</mask>
<g mask="url(#mask6_436_5051)">
<path d="M17.1467 8.93543C15.9758 8.93543 15.0273 7.98698 15.0273 6.81604V6.99265C15.0273 8.16362 15.9758 9.11204 17.1467 9.11204H23.5049V8.93543H17.1467Z" fill="#263238" fill-opacity="0.1"/>
</g>
</g>
<defs>
<linearGradient id="paint0_linear_436_5051" x1="19.5767" y1="8.98996" x2="19.5767" y2="16.1725" gradientUnits="userSpaceOnUse">
<stop stop-color="#263238" stop-opacity="0.2"/>
<stop offset="1" stop-color="#263238" stop-opacity="0.02"/>
</linearGradient>
<clipPath id="clip0_436_5051">
<rect width="23.68" height="32" fill="white" transform="translate(0.5)"/>
</clipPath>
</defs>
</svg>
