<svg width="300" height="62" viewBox="0 0 300 62" fill="none" xmlns="http://www.w3.org/2000/svg">
<path d="M300 62V0C299.901 0.0973312 299.803 0.486655 299.704 0.583986C290.93 7.39717 280.677 12.9451 270.523 17.325C259.777 21.9969 248.636 23.4568 236.51 21.8022C232.961 21.3155 229.412 20.6342 225.37 19.7582C218.764 18.2983 212.159 16.3517 205.948 14.5024C198.948 12.4584 190.864 10.0251 182.682 8.17583C167.992 4.86656 155.866 3.89325 144.627 5.06123C135.064 6.03454 126.388 9.53846 118.107 12.8477C115.15 14.0157 112.093 15.281 109.037 16.3516C95.9251 21.0235 83.5031 21.8022 69.8981 18.6876C69.5038 18.5903 69.1094 18.4929 68.7151 18.3956C62.2084 16.8383 55.8988 14.697 49.885 12.5557C43.4768 10.3171 36.7729 8.07849 29.9704 6.52119C26.3227 5.74254 22.9708 5.15856 19.5202 4.86656C12.7177 4.28257 6.30956 4.28258 0 4.76923V62H300Z" fill="url(#paint0_radial_134_24)"/>
<path d="M107.5 46.2998H106V39.9998H107.4V40.7998C107.6 40.4998 107.8 40.2998 108.2 40.0998C108.5 39.8998 108.9 39.7998 109.3 39.7998C109.7 39.7998 110.1 39.8998 110.4 40.0998C110.7 40.2998 111 40.5998 111.1 40.8998C111.5 40.1998 112.2 39.7998 113.1 39.7998C113.7 39.7998 114.2 39.9998 114.7 40.3998C115.1 40.7998 115.3 41.3998 115.3 42.1998V46.2998H113.9V42.4998C113.9 42.0998 113.8 41.7998 113.6 41.5998C113.4 41.3998 113.1 41.1998 112.7 41.1998C112.3 41.1998 112 41.2998 111.8 41.5998C111.6 41.8998 111.4 42.1998 111.4 42.5998V46.2998H109.9V42.4998C109.9 42.0998 109.8 41.7998 109.6 41.5998C109.4 41.3998 109.1 41.1998 108.7 41.1998C108.3 41.1998 108 41.2998 107.8 41.5998C107.6 41.8998 107.4 42.1998 107.4 42.5998V46.2998H107.5Z" fill="white"/>
<path d="M116.9 44.5999C116.9 44.0999 117.1 43.5999 117.4 43.2999C117.7 42.9999 118.2 42.7999 118.8 42.6999L120.4 42.4999C120.7 42.4999 120.9 42.2999 120.9 42.0999C120.9 41.7999 120.8 41.5999 120.6 41.3999C120.4 41.1999 120.1 41.0999 119.7 41.0999C119.3 41.0999 119 41.1999 118.8 41.3999C118.6 41.5999 118.4 41.8999 118.4 42.1999L117 41.8999C117.1 41.2999 117.3 40.8999 117.8 40.4999C118.3 40.0999 118.9 39.8999 119.6 39.8999C120.5 39.8999 121.2 40.0999 121.6 40.5999C122 41.0999 122.2 41.5999 122.2 42.2999V45.3999C122.2 45.7999 122.2 46.0999 122.3 46.3999H120.9C120.9 46.2999 120.8 45.9999 120.8 45.5999C120.4 46.2999 119.7 46.5999 118.9 46.5999C118.3 46.5999 117.8 46.3999 117.4 45.9999C117.1 45.4999 116.9 45.0999 116.9 44.5999ZM119.3 45.2999C119.8 45.2999 120.1 45.1999 120.4 44.8999C120.7 44.5999 120.8 44.1999 120.8 43.6999V43.3999L119.2 43.5999C118.6 43.6999 118.4 43.9999 118.4 44.3999C118.4 44.5999 118.5 44.7999 118.6 44.9999C118.8 45.1999 119 45.2999 119.3 45.2999Z" fill="white"/>
<path d="M124.2 38.4998C124 38.2998 123.9 38.0998 123.9 37.7998C123.9 37.4998 124 37.2998 124.2 37.0998C124.4 36.8998 124.6 36.7998 124.9 36.7998C125.2 36.7998 125.4 36.8998 125.6 37.0998C125.8 37.2998 125.9 37.4998 125.9 37.7998C125.9 38.0998 125.8 38.2998 125.6 38.4998C125.4 38.6998 125.2 38.7998 124.9 38.7998C124.6 38.7998 124.4 38.6998 124.2 38.4998ZM125.6 46.2998H124.1V39.9998H125.6V46.2998Z" fill="white"/>
<path d="M129 46.2998H127.5V36.9998H129V46.2998Z" fill="white"/>
<path d="M132.4 46.2998H130.9V39.9998H132.3V40.7998C132.5 40.4998 132.7 40.2998 133.1 40.0998C133.4 39.8998 133.8 39.7998 134.2 39.7998C134.6 39.7998 135 39.8998 135.3 40.0998C135.6 40.2998 135.9 40.5998 136 40.8998C136.4 40.1998 137.1 39.7998 138 39.7998C138.6 39.7998 139.1 39.9998 139.6 40.3998C140 40.7998 140.2 41.3998 140.2 42.1998V46.2998H138.8V42.4998C138.8 42.0998 138.7 41.7998 138.5 41.5998C138.3 41.3998 138 41.1998 137.6 41.1998C137.2 41.1998 136.9 41.2998 136.7 41.5998C136.5 41.8998 136.3 42.1998 136.3 42.5998V46.2998H134.8V42.4998C134.8 42.0998 134.7 41.7998 134.5 41.5998C134.3 41.3998 134 41.1998 133.6 41.1998C133.2 41.1998 132.9 41.2998 132.7 41.5998C132.5 41.8998 132.3 42.1998 132.3 42.5998V46.2998H132.4Z" fill="white"/>
<path d="M146.5 44.0999L147.8 44.4999C147.6 45.0999 147.3 45.4999 146.8 45.8999C146.3 46.2999 145.7 46.4999 145 46.4999C144.1 46.4999 143.4 46.1999 142.7 45.5999C142.1 44.9999 141.8 44.1999 141.8 43.1999C141.8 42.1999 142.1 41.4999 142.7 40.7999C143.3 40.1999 144 39.8999 144.8 39.8999C145.8 39.8999 146.5 40.1999 147 40.7999C147.5 41.3999 147.8 42.1999 147.8 43.1999C147.8 43.4999 147.8 43.5999 147.8 43.6999H143.2C143.2 44.1999 143.4 44.5999 143.7 44.8999C144 45.1999 144.4 45.3999 144.9 45.3999C145.7 45.1999 146.2 44.7999 146.5 44.0999ZM143.2 42.4999H146.3C146.3 42.0999 146.1 41.7999 145.9 41.4999C145.6 41.1999 145.3 41.0999 144.8 41.0999C144.4 41.0999 144 41.1999 143.7 41.4999C143.4 41.7999 143.2 42.0999 143.2 42.4999Z" fill="white"/>
<path d="M151.1 38.0999V39.9999H152.4V41.2999H151.1V44.1999C151.1 44.4999 151.2 44.6999 151.3 44.7999C151.4 44.8999 151.6 44.9999 151.9 44.9999C152.1 44.9999 152.2 44.9999 152.4 44.8999V46.0999C152.2 46.1999 151.9 46.1999 151.5 46.1999C150.9 46.1999 150.5 45.9999 150.1 45.6999C149.8 45.3999 149.6 44.8999 149.6 44.2999V41.1999H148.5V39.9999H148.8C149.1 39.9999 149.4 39.8999 149.5 39.6999C149.7 39.4999 149.7 39.2999 149.7 38.9999V38.0999H151.1Z" fill="white"/>
<path d="M158.1 44.0999L159.4 44.4999C159.2 45.0999 158.9 45.4999 158.4 45.8999C157.9 46.2999 157.3 46.4999 156.6 46.4999C155.7 46.4999 155 46.1999 154.3 45.5999C153.7 44.9999 153.4 44.1999 153.4 43.1999C153.4 42.1999 153.7 41.4999 154.3 40.7999C154.9 40.1999 155.6 39.8999 156.4 39.8999C157.4 39.8999 158.1 40.1999 158.6 40.7999C159.1 41.3999 159.4 42.1999 159.4 43.1999C159.4 43.4999 159.4 43.5999 159.4 43.6999H154.8C154.8 44.1999 155 44.5999 155.3 44.8999C155.6 45.1999 156 45.3999 156.5 45.3999C157.4 45.1999 157.9 44.7999 158.1 44.0999ZM154.9 42.4999H158C158 42.0999 157.8 41.7999 157.6 41.4999C157.3 41.1999 157 41.0999 156.5 41.0999C156.1 41.0999 155.7 41.1999 155.4 41.4999C155.1 41.7999 154.9 42.0999 154.9 42.4999Z" fill="white"/>
<path d="M163.7 39.7998C164.6 39.7998 165.4 40.0998 166 40.6998C166.6 41.2998 166.9 42.0998 166.9 43.0998C166.9 44.0998 166.6 44.8998 166 45.4998C165.4 46.0998 164.6 46.3998 163.7 46.3998C162.8 46.3998 162 46.0998 161.4 45.4998C160.8 44.8998 160.5 44.0998 160.5 43.0998C160.5 42.0998 160.8 41.2998 161.4 40.6998C162 40.0998 162.7 39.7998 163.7 39.7998ZM162.4 44.5998C162.7 44.9998 163.2 45.0998 163.6 45.0998C164.1 45.0998 164.5 44.8998 164.8 44.5998C165.1 44.2998 165.3 43.7998 165.3 43.0998C165.3 42.4998 165.1 41.9998 164.8 41.6998C164.5 41.3998 164 41.1998 163.6 41.1998C163.1 41.1998 162.7 41.3998 162.4 41.6998C162.1 41.9998 161.9 42.4998 161.9 43.0998C161.9 43.7998 162.1 44.2998 162.4 44.5998Z" fill="white"/>
<path d="M172 39.9999V41.4999C171.8 41.4999 171.7 41.4999 171.5 41.4999C170.4 41.4999 169.8 42.0999 169.8 43.2999V46.2999H168.3V39.9999H169.8V40.9999C169.9 40.6999 170.2 40.3999 170.5 40.1999C170.8 39.9999 171.2 39.8999 171.6 39.8999C171.8 39.8999 171.9 39.9999 172 39.9999Z" fill="white"/>
<path d="M174.2 25.1999C174.8 26.2999 175.4 27.4999 176 28.5999C172.6 26.3999 169.3 24.1999 165.9 21.8999C168.5 26.0999 171.2 30.1999 173.8 34.3999C172.7 33.9999 171.6 33.5999 170.4 33.1999C170.5 33.3999 170.6 33.5999 170.7 33.6999C171.5 35.0999 172.3 36.4999 173.1 37.8999C174.2 39.7999 175.3 41.5999 176.5 43.3999C177.3 44.5999 178.2 45.8999 179.1 46.9999C179.7 47.6999 180.2 48.3999 180.9 48.9999C182.1 50.0999 183.6 50.7999 185.2 50.9999C187 51.2999 188.7 50.9999 190.3 50.1999C192.7 48.8999 194.2 46.9999 194.7 44.2999C195.2 41.5999 194.6 39.1999 192.8 37.0999C192.1 36.2999 191.4 35.5999 190.5 34.9999C189.1 33.8999 187.6 32.8999 186 31.8999C184.7 31.0999 183.3 30.1999 182 29.3999C180.2 28.3999 178.4 27.3999 176.6 26.3999C175.8 25.8999 175 25.4999 174.2 25.0999C174.3 25.1999 174.2 25.1999 174.2 25.1999ZM179.5 38.9999C177.6 35.9999 175.7 33.0999 173.9 30.0999C176.8 31.9999 179.8 33.9999 182.7 35.8999C182.3 35.0999 181.9 34.3999 181.5 33.5999C181.1 32.7999 180.7 32.0999 180.3 31.2999H180.4C181.7 31.9999 183 32.7999 184.2 33.5999C186 34.6999 187.7 35.8999 189.4 37.1999C189.9 37.5999 190.4 38.0999 190.9 38.4999C191 38.5999 191.2 38.7999 191.3 38.8999C192.5 40.3999 192.9 41.9999 192.6 43.8999C192.2 45.8999 191.1 47.2999 189.3 48.1999C187.4 49.1999 185.5 49.0999 183.6 47.9999C182.9 47.5999 182.3 47.0999 181.8 46.4999C181 45.5999 180.2 44.4999 179.5 43.4999C178.3 41.6999 177.1 39.8999 176 38.0999C175.9 37.9999 175.8 37.7999 175.8 37.6999C176.9 38.0999 178.2 38.4999 179.5 38.9999Z" fill="#FFDDE2"/>
<path d="M179.5 39C178.2 38.5 176.9 38.1 175.7 37.6C175.8 37.7 175.9 37.9 175.9 38C177 39.9 178.1 41.7 179.4 43.4C180.1 44.4 180.9 45.4 181.7 46.4C182.2 47 182.8 47.5 183.5 47.9C185.4 48.9 187.3 49 189.2 48.1C191 47.2 192.1 45.8 192.5 43.8C192.9 42 192.4 40.3 191.2 38.8C191.1 38.6 191 38.5 190.8 38.4C190.3 38 189.8 37.5 189.3 37.1C187.7 35.8 185.9 34.7 184.1 33.5C182.8 32.7 181.6 31.9 180.3 31.2C180.3 31.2 180.3 31.2 180.2 31.2C180.6 32 181 32.7 181.4 33.5C181.8 34.3 182.2 35 182.6 35.8C179.7 33.9 176.7 31.9 173.8 30C175.7 33 177.6 36 179.5 39Z" fill="#FF486A"/>
<path d="M190.3 40.8998L190.2 40.7998C190.2 40.7998 190.2 40.7998 190.1 40.7998C190 40.7998 190 40.7998 189.9 40.7998L189.6 40.9998L187 42.8998L184.3 40.9998L184 40.7998H183.9C183.7 40.7998 183.5 40.9998 183.5 41.1998V41.3998V45.1998V45.2998C183.6 45.4998 183.7 45.5998 183.9 45.5998H184.2V41.8998L186.1 43.2998L186.7 43.7998L186.8 43.8998L187.5 43.3998L189.4 41.9998V45.5998H189.7C189.9 45.5998 190.1 45.4998 190.1 45.2998V45.1998V41.4998V41.1998C190.4 40.9998 190.3 40.8998 190.3 40.8998Z" fill="white"/>
<defs>
<radialGradient id="paint0_radial_134_24" cx="0" cy="0" r="1" gradientUnits="userSpaceOnUse" gradientTransform="translate(146.062 -56.0277) rotate(115.429) scale(282.137 316.934)">
<stop stop-color="#1059B5"/>
<stop offset="0.1291" stop-color="#0D49A0"/>
<stop offset="0.3816" stop-color="#082D7C"/>
<stop offset="0.6186" stop-color="#051962"/>
<stop offset="0.8316" stop-color="#030D52"/>
<stop offset="1" stop-color="#02094D"/>
</radialGradient>
</defs>
</svg>
