<?xml version="1.0" encoding="utf-8"?>
<!-- Generator: Adobe Illustrator 22.0.0, SVG Export Plug-In . SVG Version: 6.00 Build 0)  -->
<svg version="1.1" id="Footer" xmlns="http://www.w3.org/2000/svg" xmlns:xlink="http://www.w3.org/1999/xlink" x="0px" y="0px"
	 viewBox="0 0 300 100" style="enable-background:new 0 0 300 100;" xml:space="preserve">
<style type="text/css">
	.st0{fill:url(#SVGID_1_);}
	.st1{fill:#FFFFFF;}
	.st2{fill:#FFDDE2;}
	.st3{fill:#FF486A;}
</style>
<radialGradient id="SVGID_1_" cx="492.7591" cy="-1660.9728" r="1.5634" gradientTransform="matrix(-78.5998 167.4492 196.1964 67.0831 364753.9062 28891.0234)" gradientUnits="userSpaceOnUse">
	<stop  offset="0" style="stop-color:#1059B5"/>
	<stop  offset="0.1291" style="stop-color:#0D49A0"/>
	<stop  offset="0.3816" style="stop-color:#082D7C"/>
	<stop  offset="0.6186" style="stop-color:#051962"/>
	<stop  offset="0.8316" style="stop-color:#030D52"/>
	<stop  offset="1" style="stop-color:#02094D"/>
</radialGradient>
<path class="st0" d="M302.4,101.2V37.5c-0.1,0.1-0.2,0.5-0.3,0.6c-8.9,7-19.3,12.7-29.6,17.2c-10.9,4.8-22.2,6.3-34.5,4.6
	c-3.6-0.5-7.2-1.2-11.3-2.1c-6.7-1.5-13.4-3.5-19.7-5.4c-7.1-2.1-15.3-4.6-23.6-6.5c-14.9-3.4-27.2-4.4-38.6-3.2
	c-9.7,1-18.5,4.6-26.9,8c-3,1.2-6.1,2.5-9.2,3.6c-13.3,4.8-25.9,5.6-39.7,2.4c-0.4-0.1-0.8-0.2-1.2-0.3c-6.6-1.6-13-3.8-19.1-6
	c-6.5-2.3-13.3-4.6-20.2-6.2c-3.7-0.8-7.1-1.4-10.6-1.7C11,41.9,4.5,41.9-1.9,42.4v58.8L302.4,101.2L302.4,101.2z"/>
<g id="Logo">
	<g>
		<path class="st1" d="M107,84.3h-1.5V78h1.4v0.8c0.2-0.3,0.4-0.5,0.8-0.7c0.3-0.2,0.7-0.3,1.1-0.3c0.4,0,0.8,0.1,1.1,0.3
			c0.3,0.2,0.6,0.5,0.7,0.8c0.4-0.7,1.1-1.1,2-1.1c0.6,0,1.1,0.2,1.6,0.6c0.4,0.4,0.6,1,0.6,1.8v4.1h-1.4v-3.8
			c0-0.4-0.1-0.7-0.3-0.9c-0.2-0.2-0.5-0.4-0.9-0.4c-0.4,0-0.7,0.1-0.9,0.4c-0.2,0.3-0.4,0.6-0.4,1v3.7h-1.5v-3.8
			c0-0.4-0.1-0.7-0.3-0.9c-0.2-0.2-0.5-0.4-0.9-0.4c-0.4,0-0.7,0.1-0.9,0.4c-0.2,0.3-0.4,0.6-0.4,1V84.3z"/>
		<path class="st1" d="M116.4,82.6c0-0.5,0.2-1,0.5-1.3c0.3-0.3,0.8-0.5,1.4-0.6l1.6-0.2c0.3,0,0.5-0.2,0.5-0.4
			c0-0.3-0.1-0.5-0.3-0.7c-0.2-0.2-0.5-0.3-0.9-0.3c-0.4,0-0.7,0.1-0.9,0.3c-0.2,0.2-0.4,0.5-0.4,0.8l-1.4-0.3
			c0.1-0.6,0.3-1,0.8-1.4s1.1-0.6,1.8-0.6c0.9,0,1.6,0.2,2,0.7s0.6,1,0.6,1.7v3.1c0,0.4,0,0.7,0.1,1h-1.4c0-0.1-0.1-0.4-0.1-0.8
			c-0.4,0.7-1.1,1-1.9,1c-0.6,0-1.1-0.2-1.5-0.6C116.6,83.5,116.4,83.1,116.4,82.6z M118.8,83.3c0.5,0,0.8-0.1,1.1-0.4
			c0.3-0.3,0.4-0.7,0.4-1.2v-0.3l-1.6,0.2c-0.6,0.1-0.8,0.4-0.8,0.8c0,0.2,0.1,0.4,0.2,0.6C118.3,83.2,118.5,83.3,118.8,83.3z"/>
		<path class="st1" d="M123.7,76.5c-0.2-0.2-0.3-0.4-0.3-0.7c0-0.3,0.1-0.5,0.3-0.7c0.2-0.2,0.4-0.3,0.7-0.3c0.3,0,0.5,0.1,0.7,0.3
			c0.2,0.2,0.3,0.4,0.3,0.7c0,0.3-0.1,0.5-0.3,0.7c-0.2,0.2-0.4,0.3-0.7,0.3C124.1,76.8,123.9,76.7,123.7,76.5z M125.1,84.3h-1.5V78
			h1.5V84.3z"/>
		<path class="st1" d="M128.5,84.3H127V75h1.5V84.3z"/>
		<path class="st1" d="M131.9,84.3h-1.5V78h1.4v0.8c0.2-0.3,0.4-0.5,0.8-0.7c0.3-0.2,0.7-0.3,1.1-0.3c0.4,0,0.8,0.1,1.1,0.3
			c0.3,0.2,0.6,0.5,0.7,0.8c0.4-0.7,1.1-1.1,2-1.1c0.6,0,1.1,0.2,1.6,0.6c0.4,0.4,0.6,1,0.6,1.8v4.1h-1.4v-3.8
			c0-0.4-0.1-0.7-0.3-0.9c-0.2-0.2-0.5-0.4-0.9-0.4c-0.4,0-0.7,0.1-0.9,0.4c-0.2,0.3-0.4,0.6-0.4,1v3.7h-1.5v-3.8
			c0-0.4-0.1-0.7-0.3-0.9c-0.2-0.2-0.5-0.4-0.9-0.4c-0.4,0-0.7,0.1-0.9,0.4c-0.2,0.3-0.4,0.6-0.4,1V84.3z"/>
		<path class="st1" d="M146,82.1l1.3,0.4c-0.2,0.6-0.5,1-1,1.4c-0.5,0.4-1.1,0.6-1.8,0.6c-0.9,0-1.6-0.3-2.3-0.9
			c-0.6-0.6-0.9-1.4-0.9-2.4c0-1,0.3-1.7,0.9-2.4c0.6-0.6,1.3-0.9,2.1-0.9c1,0,1.7,0.3,2.2,0.9c0.5,0.6,0.8,1.4,0.8,2.4
			c0,0.3,0,0.4,0,0.5h-4.6c0,0.5,0.2,0.9,0.5,1.2c0.3,0.3,0.7,0.5,1.2,0.5C145.2,83.2,145.7,82.8,146,82.1z M142.7,80.5h3.1
			c0-0.4-0.2-0.7-0.4-1c-0.3-0.3-0.6-0.4-1.1-0.4c-0.4,0-0.8,0.1-1.1,0.4C142.9,79.8,142.7,80.1,142.7,80.5z"/>
		<path class="st1" d="M150.6,76.1V78h1.3v1.3h-1.3v2.9c0,0.3,0.1,0.5,0.2,0.6c0.1,0.1,0.3,0.2,0.6,0.2c0.2,0,0.3,0,0.5-0.1v1.2
			c-0.2,0.1-0.5,0.1-0.9,0.1c-0.6,0-1-0.2-1.4-0.5c-0.3-0.3-0.5-0.8-0.5-1.4v-3.1H148V78h0.3c0.3,0,0.6-0.1,0.7-0.3
			c0.2-0.2,0.2-0.4,0.2-0.7v-0.9H150.6z"/>
		<path class="st1" d="M157.6,82.1l1.3,0.4c-0.2,0.6-0.5,1-1,1.4c-0.5,0.4-1.1,0.6-1.8,0.6c-0.9,0-1.6-0.3-2.3-0.9
			c-0.6-0.6-0.9-1.4-0.9-2.4c0-1,0.3-1.7,0.9-2.4c0.6-0.6,1.3-0.9,2.1-0.9c1,0,1.7,0.3,2.2,0.9c0.5,0.6,0.8,1.4,0.8,2.4
			c0,0.3,0,0.4,0,0.5h-4.6c0,0.5,0.2,0.9,0.5,1.2c0.3,0.3,0.7,0.5,1.2,0.5C156.9,83.2,157.4,82.8,157.6,82.1z M154.4,80.5h3.1
			c0-0.4-0.2-0.7-0.4-1c-0.3-0.3-0.6-0.4-1.1-0.4c-0.4,0-0.8,0.1-1.1,0.4C154.6,79.8,154.4,80.1,154.4,80.5z"/>
		<path class="st1" d="M163.2,77.8c0.9,0,1.7,0.3,2.3,0.9c0.6,0.6,0.9,1.4,0.9,2.4c0,1-0.3,1.8-0.9,2.4c-0.6,0.6-1.4,0.9-2.3,0.9
			c-0.9,0-1.7-0.3-2.3-0.9c-0.6-0.6-0.9-1.4-0.9-2.4c0-1,0.3-1.8,0.9-2.4C161.5,78.1,162.2,77.8,163.2,77.8z M161.9,82.6
			c0.3,0.4,0.8,0.5,1.2,0.5c0.5,0,0.9-0.2,1.2-0.5s0.5-0.8,0.5-1.5c0-0.6-0.2-1.1-0.5-1.4c-0.3-0.3-0.8-0.5-1.2-0.5
			c-0.5,0-0.9,0.2-1.2,0.5c-0.3,0.3-0.5,0.8-0.5,1.4C161.4,81.8,161.6,82.3,161.9,82.6z"/>
		<path class="st1" d="M171.5,78v1.5c-0.2,0-0.3,0-0.5,0c-1.1,0-1.7,0.6-1.7,1.8v3h-1.5V78h1.5v1c0.1-0.3,0.4-0.6,0.7-0.8
			c0.3-0.2,0.7-0.3,1.1-0.3C171.3,77.9,171.4,78,171.5,78z"/>
	</g>
	<g>
		<g>
			<g>
				<path class="st2" d="M173.7,63.2c0.6,1.1,1.2,2.3,1.8,3.4c0,0,0,0,0,0c-3.4-2.2-6.7-4.4-10.1-6.7c0,0,0,0,0,0
					c2.6,4.2,5.3,8.3,7.9,12.5c0,0,0,0,0,0c-1.1-0.4-2.2-0.8-3.4-1.2c0.1,0.2,0.2,0.4,0.3,0.5c0.8,1.4,1.6,2.8,2.4,4.2
					c1.1,1.9,2.2,3.7,3.4,5.5c0.8,1.2,1.7,2.5,2.6,3.6c0.6,0.7,1.1,1.4,1.8,2c1.2,1.1,2.7,1.8,4.3,2c1.8,0.3,3.5,0,5.1-0.8
					c2.4-1.3,3.9-3.2,4.4-5.9c0.5-2.7-0.1-5.1-1.9-7.2c-0.7-0.8-1.4-1.5-2.3-2.1c-1.4-1.1-2.9-2.1-4.5-3.1c-1.3-0.8-2.7-1.7-4-2.5
					c-1.8-1-3.6-2-5.4-3c-0.8-0.5-1.6-0.9-2.4-1.3C173.8,63.2,173.7,63.2,173.7,63.2C173.7,63.2,173.7,63.2,173.7,63.2z M179,77
					c-1.9-3-3.8-5.9-5.6-8.9c0,0,0,0,0,0c2.9,1.9,5.9,3.9,8.8,5.8c0,0,0,0,0,0c-0.4-0.8-0.8-1.5-1.2-2.3c-0.4-0.8-0.8-1.5-1.2-2.3
					c0,0,0.1,0,0.1,0c1.3,0.7,2.6,1.5,3.8,2.3c1.8,1.1,3.5,2.3,5.2,3.6c0.5,0.4,1,0.9,1.5,1.3c0.1,0.1,0.3,0.3,0.4,0.4
					c1.2,1.5,1.6,3.1,1.3,5c-0.4,2-1.5,3.4-3.3,4.3c-1.9,1-3.8,0.9-5.7-0.2c-0.7-0.4-1.3-0.9-1.8-1.5c-0.8-0.9-1.6-2-2.3-3
					c-1.2-1.8-2.4-3.6-3.5-5.4c-0.1-0.1-0.2-0.3-0.2-0.4c0,0,0,0,0,0C176.4,76.1,177.7,76.5,179,77z"/>
				<path class="st3" d="M179,77c-1.3-0.5-2.6-0.9-3.8-1.4c0,0,0,0,0,0c0.1,0.1,0.2,0.3,0.2,0.4c1.1,1.9,2.2,3.7,3.5,5.4
					c0.7,1,1.5,2,2.3,3c0.5,0.6,1.1,1.1,1.8,1.5c1.9,1,3.8,1.1,5.7,0.2c1.8-0.9,2.9-2.3,3.3-4.3c0.4-1.8-0.1-3.5-1.3-5
					c-0.1-0.2-0.2-0.3-0.4-0.4c-0.5-0.4-1-0.9-1.5-1.3c-1.6-1.3-3.4-2.4-5.2-3.6c-1.3-0.8-2.5-1.6-3.8-2.3c0,0,0,0-0.1,0
					c0.4,0.8,0.8,1.5,1.2,2.3c0.4,0.8,0.8,1.5,1.2,2.3c0,0,0,0,0,0c-2.9-1.9-5.9-3.9-8.8-5.8c0,0,0,0,0,0C175.2,71,177.1,74,179,77z
					"/>
			</g>
		</g>
		<path class="st1" d="M189.8,78.9c0,0-0.1-0.1-0.1-0.1c0,0,0,0-0.1,0c-0.1,0-0.1,0-0.2,0l0,0h0l-0.3,0.2l0,0l-2.6,1.9l-2.7-1.9
			l-0.3-0.2h-0.1c-0.2,0-0.4,0.2-0.4,0.4v0.2v3.8c0,0,0,0.1,0,0.1c0.1,0.2,0.2,0.3,0.4,0.3h0.3v-3.7l1.9,1.4l0.6,0.5l0.1,0.1
			l0.7-0.5l1.9-1.4v3.6h0.3c0.2,0,0.4-0.1,0.4-0.3c0,0,0-0.1,0-0.1v-3.7v-0.3C189.9,79,189.8,78.9,189.8,78.9z"/>
	</g>
</g>
</svg>
