<svg width="20px" height="20px" viewBox="0 0 20 20" version="1.1" xmlns="http://www.w3.org/2000/svg" xmlns:xlink="http://www.w3.org/1999/xlink">
    <g stroke="none" stroke-width="1" fill="none" fill-rule="evenodd">
        <g transform="translate(-2.000000, -2.000000)">
            <polygon points="0 0 24 0 24 24 0 24"></polygon>
            <path d="M18.3636364,2 L17.2181818,4.5 L14.7272727,5.63636364 L17.2181818,6.78181818 L18.3636364,9.27272727 L19.5,6.78181818 L22,5.63636364 L19.5,4.5 M9.27272727,4.72727273 L7,9.72727273 L2,12 L7,14.2727273 L9.27272727,19.2727273 L11.5454545,14.2727273 L16.5454545,12 L11.5454545,9.72727273 M18.3636364,14.7272727 L17.2181818,17.2181818 L14.7272727,18.3636364 L17.2181818,19.5 L18.3636364,22 L19.5,19.5 L22,18.3636364 L19.5,17.2181818" id="Shape" fill="#2C7BFF" fill-rule="nonzero"></path>
        </g>
    </g>
</svg>