<?xml version="1.0" encoding="UTF-8"?>
<svg width="16px" height="18px" viewBox="0 0 16 18" version="1.1" xmlns="http://www.w3.org/2000/svg" xmlns:xlink="http://www.w3.org/1999/xlink">
    <!-- Generator: Sketch 58 (84663) - https://sketch.com -->
    <title>Next_payment</title>
    <desc>Created with Sketch.</desc>
    <g id="Page-1" stroke="none" stroke-width="1" fill="none" fill-rule="evenodd">
        <path d="M14.2222222,1.70666667 L13.3333333,1.70666667 L13.3333333,0 L11.5555556,0 L11.5555556,1.70666667 L4.44444444,1.70666667 L4.44444444,0 L2.66666667,0 L2.66666667,1.70666667 L1.77777778,1.70666667 C0.791111111,1.70666667 0.00888888889,2.47466667 0.00888888889,3.41333333 L0,15.36 C0,16.2986667 0.791111111,17.0666667 1.77777778,17.0666667 L14.2222222,17.0666667 C15.2,17.0666667 16,16.2986667 16,15.36 L16,3.41333333 C16,2.47466667 15.2,1.70666667 14.2222222,1.70666667 Z M14.2222222,15.36 L1.77777778,15.36 L1.77777778,6.82666667 L14.2222222,6.82666667 L14.2222222,15.36 Z M14.2222222,5.12 L1.77777778,5.12 L1.77777778,3.41333333 L14.2222222,3.41333333 L14.2222222,5.12 Z M8,9.38666667 L12.4444444,9.38666667 L12.4444444,13.6533333 L8,13.6533333 L8,9.38666667 Z" id="Next_payment" fill="#909090" fill-rule="nonzero"></path>
    </g>
</svg>