<?xml version="1.0" encoding="UTF-8"?>
<svg width="17px" height="17px" viewBox="0 0 17 17" version="1.1" xmlns="http://www.w3.org/2000/svg" xmlns:xlink="http://www.w3.org/1999/xlink">
    <!-- Generator: Sketch 58 (84663) - https://sketch.com -->
    <title>Renewal</title>
    <desc>Created with Sketch.</desc>
    <g id="Page-1" stroke="none" stroke-width="1" fill="none" fill-rule="evenodd">
        <path d="M16.998851,6.72444444 L10.5955177,6.72444444 L13.1832955,4.06111111 C10.6049621,1.51111111 6.43051769,1.41666667 3.85218435,3.96666667 C1.27385102,6.52611111 1.27385102,10.6533333 3.85218435,13.2127778 C6.43051769,15.7722222 10.6049621,15.7722222 13.1832955,13.2127778 C14.4677399,11.9472222 15.1099621,10.4644444 15.1099621,8.59444444 L16.998851,8.59444444 C16.998851,10.4644444 16.1677399,12.8916667 14.5055177,14.535 C11.1905177,17.8216667 5.80718435,17.8216667 2.49218435,14.535 C-0.813371201,11.2577778 -0.841704535,5.93111111 2.47329547,2.65388889 C5.78829547,-0.623333333 11.1055177,-0.623333333 14.4205177,2.65388889 L16.998851,0 L16.998851,6.72444444 Z M8.97107324,4.72222222 L8.97107324,8.73611111 L12.2766288,10.7005556 L11.5966288,11.8433333 L7.55440658,9.44444444 L7.55440658,4.72222222 L8.97107324,4.72222222 Z" id="Renewal" fill="#909090" fill-rule="nonzero"></path>
    </g>
</svg>