<?xml version="1.0" encoding="UTF-8"?>
<svg width="18px" height="18px" viewBox="0 0 18 18" version="1.1" xmlns="http://www.w3.org/2000/svg" xmlns:xlink="http://www.w3.org/1999/xlink">
    <g id="Page-1" stroke="none" stroke-width="1" fill="none" fill-rule="evenodd">
        <g id="alias" fill="#000000" fill-rule="nonzero">
            <path d="M9,0 C4.032,0 0,4.032 0,9 C0,13.968 4.032,18 9,18 L13.5,18 L13.5,16.2 L9,16.2 C5.094,16.2 1.8,12.906 1.8,9 C1.8,5.094 5.094,1.8 9,1.8 C12.906,1.8 16.2,5.094 16.2,9 L16.2,10.287 C16.2,10.998 15.561,11.7 14.85,11.7 C14.139,11.7 13.5,10.998 13.5,10.287 L13.5,9 C13.5,6.516 11.484,4.5 9,4.5 C6.516,4.5 4.5,6.516 4.5,9 C4.5,11.484 6.516,13.5 9,13.5 C10.242,13.5 11.376,12.996 12.186,12.177 C12.771,12.978 13.779,13.5 14.85,13.5 C16.623,13.5 18,12.06 18,10.287 L18,9 C18,4.032 13.968,0 9,0 Z M9,11.7 C7.506,11.7 6.3,10.494 6.3,9 C6.3,7.506 7.506,6.3 9,6.3 C10.494,6.3 11.7,7.506 11.7,9 C11.7,10.494 10.494,11.7 9,11.7 Z" id="Shape"></path>
        </g>
    </g>
</svg>