<svg width="14" height="14" viewBox="0 0 14 14" fill="none" xmlns="http://www.w3.org/2000/svg">
  <g clip-path="url(#clip0_36_252)">
    <path
      d="M9.62467 3.9375V10.1092C9.62467 11.3283 8.73217 12.4133 7.51884 12.53C6.12467 12.6642 4.95801 11.5733 4.95801 10.2083V2.99833C4.95801 2.23417 5.50634 1.54 6.26467 1.46417C7.13967 1.37667 7.87467 2.05917 7.87467 2.91667V9.04167C7.87467 9.3625 7.61217 9.625 7.29134 9.625C6.97051 9.625 6.70801 9.3625 6.70801 9.04167V3.9375C6.70801 3.69833 6.50967 3.5 6.27051 3.5C6.03134 3.5 5.83301 3.69833 5.83301 3.9375V8.96C5.83301 9.72416 6.38134 10.4183 7.13967 10.4942C8.01467 10.5817 8.74967 9.89917 8.74967 9.04167V3.01583C8.74967 1.79667 7.85717 0.711665 6.64384 0.594999C5.25551 0.460832 4.08301 1.55167 4.08301 2.91667V10.0742C4.08301 11.7483 5.30801 13.2475 6.97634 13.405C8.89551 13.58 10.4997 12.0867 10.4997 10.2083V3.9375C10.4997 3.69833 10.3013 3.5 10.0622 3.5C9.82301 3.5 9.62467 3.69833 9.62467 3.9375Z"
      fill="#5F6368"
    />
  </g>
  <defs>
    <clipPath id="clip0_36_252">
      <rect width="14" height="14" fill="white" />
    </clipPath>
  </defs>
</svg>