<svg width="12" height="16" viewBox="0 0 12 16" fill="none" xmlns="http://www.w3.org/2000/svg">
<path d="M11.5575 4.55774L7.935 0.935244C7.6575 0.657744 7.275 0.500244 6.8775 0.500244H1.5C0.675 0.500244 0.00750017 1.17524 0.00750017 2.00024L0 14.0002C0 14.8252 0.6675 15.5002 1.4925 15.5002H10.5C11.325 15.5002 12 14.8252 12 14.0002V5.62274C12 5.22524 11.8425 4.84274 11.5575 4.55774ZM8.1 10.2502H6.75V12.5002C6.75 12.9127 6.4125 13.2502 6 13.2502C5.5875 13.2502 5.25 12.9127 5.25 12.5002V10.2502H3.9075C3.57 10.2502 3.405 9.84524 3.645 9.61274L5.745 7.52024C5.895 7.37774 6.1275 7.37774 6.2775 7.52024L8.37 9.61274C8.595 9.84524 8.43 10.2502 8.1 10.2502ZM7.5 5.75024C7.0875 5.75024 6.75 5.41274 6.75 5.00024V1.62524L10.875 5.75024H7.5Z" fill="#333333"/>
</svg>