<svg xmlns="http://www.w3.org/2000/svg" width="24px" height="24px" viewBox="0 0 24 24">
    <g stroke="none" stroke-width="1" fill="none" fill-rule="evenodd">
        <g transform="translate(12.000000, 12.000000) rotate(90.000000) translate(-12.000000, -12.000000) translate(0.000000, 0.000000)">
            <circle fill="#E1EDFD" cx="12" cy="12" r="12"></circle>
            <polygon points="1.13650925e-15 0 24 0 24 24 1.13650925e-15 24"></polygon>
            <path d="M14.5454545,7.68181818 L14.5454545,15 C14.5454545,16.4063636 13.4063636,17.5454545 12,17.5454545 C10.5936364,17.5454545 9.45454545,16.4063636 9.45454545,15 L9.45454545,7.04545455 C9.45454545,6.16727273 10.1672727,5.45454545 11.0454545,5.45454545 C11.9236364,5.45454545 12.6363636,6.16727273 12.6363636,7.04545455 L12.6363636,13.7272727 C12.6363636,14.0772727 12.35,14.3636364 12,14.3636364 C11.65,14.3636364 11.3636364,14.0772727 11.3636364,13.7272727 L11.3636364,7.68181818 L10.4090909,7.68181818 L10.4090909,13.7272727 C10.4090909,14.6054545 11.1218182,15.3181818 12,15.3181818 C12.8781818,15.3181818 13.5909091,14.6054545 13.5909091,13.7272727 L13.5909091,7.04545455 C13.5909091,5.63909091 12.4518182,4.5 11.0454545,4.5 C9.63909091,4.5 8.5,5.63909091 8.5,7.04545455 L8.5,15 C8.5,16.9345455 10.0654545,18.5 12,18.5 C13.9345455,18.5 15.5,16.9345455 15.5,15 L15.5,7.68181818 L14.5454545,7.68181818 Z" fill="#006CDD" fill-rule="nonzero"></path>
        </g>
    </g>
</svg>