<svg width="24" height="24" viewBox="0 0 24 24" fill="none" xmlns="http://www.w3.org/2000/svg">
    <path
        d="M19.1063 7.99999L19.8963 6.24999L21.6463 5.45999C22.0363 5.27999 22.0363 4.72999 21.6463 4.54999L19.8963 3.75999L19.1063 1.99999C18.9263 1.60999 18.3763 1.60999 18.1963 1.99999L17.4063 3.74999L15.6463 4.53999C15.2563 4.71999 15.2563 5.26999 15.6463 5.44999L17.3963 6.23999L18.1863 7.99999C18.3663 8.38999 18.9263 8.38999 19.1063 7.99999ZM11.1463 9.49999L9.55628 5.99999C9.20628 5.21999 8.08628 5.21999 7.73628 5.99999L6.14628 9.49999L2.64628 11.09C1.86628 11.45 1.86628 12.56 2.64628 12.91L6.14628 14.5L7.73628 18C8.09628 18.78 9.20628 18.78 9.55628 18L11.1463 14.5L14.6463 12.91C15.4263 12.55 15.4263 11.44 14.6463 11.09L11.1463 9.49999ZM18.1863 16L17.3963 17.75L15.6463 18.54C15.2563 18.72 15.2563 19.27 15.6463 19.45L17.3963 20.24L18.1863 22C18.3663 22.39 18.9163 22.39 19.0963 22L19.8863 20.25L21.6463 19.46C22.0363 19.28 22.0363 18.73 21.6463 18.55L19.8963 17.76L19.1063 16C18.9263 15.61 18.3663 15.61 18.1863 16Z"
        fill="black" />
</svg>