<svg viewBox="0 0 492 492" version="1.1" xmlns="http://www.w3.org/2000/svg" xmlns:xlink="http://www.w3.org/1999/xlink"><g stroke="none" stroke-width="1" fill="#000" fill-rule="evenodd"><path d="M300.188,246 L484.14,62.04 C489.2,56.976 491.992,50.22 492,43.016 C492,35.808 489.208,29.044 484.14,23.988 L468.02,7.872 C462.952,2.796 456.196,0.016 448.984,0.016 C441.784,0.016 435.028,2.796 429.96,7.872 L246.008,191.82 L62.048,7.872 C56.988,2.796 50.228,0.016 43.02,0.016 C35.82,0.016 29.06,2.796 24,7.872 L7.872,23.988 C-2.624,34.484 -2.624,51.556 7.872,62.04 L191.828,246 L7.872,429.952 C2.808,435.024 0.02,441.78 0.02,448.984 C0.02,456.188 2.808,462.944 7.872,468.012 L23.996,484.128 C29.056,489.2 35.82,491.984 43.016,491.984 C50.224,491.984 56.984,489.2 62.044,484.128 L246.004,300.176 L429.956,484.128 C435.024,489.2 441.78,491.984 448.98,491.984 L448.988,491.984 C456.192,491.984 462.948,489.2 468.016,484.128 L484.136,468.012 C489.196,462.948 491.988,456.188 491.988,448.984 C491.988,441.78 489.196,435.024 484.136,429.956 L300.188,246 Z"></path></g></svg>