<svg version="1.1" id="Mailmeteor" xmlns="http://www.w3.org/2000/svg" xmlns:xlink="http://www.w3.org/1999/xlink" x="0px" y="0px"
	 viewBox="0 0 339.1 341.3" style="enable-background:new 0 0 339.1 341.3;" xml:space="preserve">
<style type="text/css">
	.st0{fill:#FFDDE2;}
	.st1{fill:#FF486A;}
	.st2{fill:#FFFFFF;}
</style>
<g id="meteor">
	<g>
		<path class="st0" d="M97.1,38.1c7.1,13.2,14.1,26.3,21.2,39.5c-0.1,0.1-0.1,0.1-0.2,0.2C78.8,51.8,39.5,25.9,0.2,0
			C0.2,0.1,0.1,0.2,0,0.3c30.7,48.5,61.5,97,92.2,145.5c-0.1,0.1-0.1,0.2-0.2,0.4c-13.1-4.7-26.2-9.4-39.6-14.3
			c1.2,2.2,2.3,4.1,3.3,6c9.2,16.4,18.2,32.9,27.5,49.2c12.5,21.8,25.6,43.1,39.6,64c9.7,14.5,19.8,28.7,30.8,42.3
			c6.6,8.1,13.4,16.1,21.3,23c14.5,12.8,31.4,20.8,50.6,23.7c20.9,3.2,40.9,0.1,59.6-9.8c27.8-14.7,45.6-37.5,51.9-68.4
			c6.3-31.2-1.4-59.2-21.8-83.5c-7.7-9.2-16.9-16.9-26.3-24.3c-16.8-13.1-34.4-25-52.4-36.2c-15.6-9.7-31.3-19.5-47.2-28.7
			c-20.7-12-41.6-23.6-62.4-35.3c-9.4-5.3-18.9-10.3-28.3-15.4c-0.4-0.2-0.7-0.4-1.1-0.6C97.2,38,97.2,38,97.1,38.1z M158.9,199.2
			c-22-34.8-43.8-69.3-65.7-103.9c0.1-0.1,0.2-0.2,0.3-0.2c34.2,22.7,68.4,45.4,102.6,68.1c0.1-0.1,0.2-0.1,0.2-0.2
			c-4.8-8.9-9.6-17.9-14.5-26.8c-4.8-8.9-9.6-17.8-14.6-26.9c0.4,0.2,0.6,0.3,0.9,0.4c15.3,8.2,30.1,17.2,44.8,26.4
			c20.6,13.1,41,26.4,60.2,41.5c6.1,4.8,12,10.1,17.8,15.3c1.7,1.5,3.2,3.3,4.6,5.1c13.6,17.1,19,36.4,14.6,57.9
			c-4.6,22.8-17.8,39.6-38.4,50.1c-22.3,11.4-44.7,10.4-66.5-1.8c-8.1-4.5-14.7-10.8-20.8-17.7c-9.8-11.1-18.6-22.9-27.1-35
			c-14.4-20.5-27.9-41.6-40.6-63.2c-0.9-1.6-1.8-3.2-2.8-4.8c0.1-0.1,0.1-0.1,0.2-0.2C129.1,188.6,143.9,193.9,158.9,199.2z"/>
		<path class="st1" d="M158.9,199.2c-15-5.3-29.8-10.6-44.7-15.9c-0.1,0.1-0.1,0.1-0.2,0.2c0.9,1.6,1.8,3.2,2.8,4.8
			c12.6,21.6,26.2,42.7,40.6,63.2c8.5,12.1,17.3,23.9,27.1,35c6.1,6.9,12.7,13.2,20.8,17.7c21.8,12.1,44.2,13.1,66.5,1.8
			c20.6-10.5,33.7-27.3,38.4-50.1c4.4-21.5-1-40.8-14.6-57.9c-1.4-1.8-2.9-3.6-4.6-5.1c-5.9-5.2-11.7-10.4-17.8-15.3
			c-19.2-15.1-39.6-28.5-60.2-41.5c-14.6-9.3-29.5-18.2-44.8-26.4c-0.2-0.1-0.4-0.2-0.9-0.4c4.9,9.1,9.8,18,14.6,26.9
			c4.8,8.9,9.6,17.9,14.5,26.8c-0.1,0.1-0.2,0.1-0.2,0.2c-34.2-22.7-68.4-45.4-102.6-68.1c-0.1,0.1-0.2,0.2-0.3,0.2
			C115.1,129.9,136.9,164.5,158.9,199.2z"/>
	</g>
</g>
<path id="M" class="st2" d="M284.8,221.1c-0.4-0.6-0.9-1-1.4-1.4c-0.3-0.2-0.6-0.3-0.9-0.5c-0.6-0.3-1.3-0.4-2-0.4h0h-0.2l-3.4,2.5
	l-0.2,0.2l-30.4,22.2L215.3,221l-3.1-2.2h-0.8c-2.9,0-5.2,2.3-5.2,5.2l0,2.8l0,44.4c0,0.5,0.1,1,0.2,1.5c0.6,2.2,2.6,3.7,5,3.7h3.8
	l0-43l22.5,16.4l7.4,5.4l1.4,1l8.5-6.2l21.7-15.8l0,42.2h3.8c2.4,0,4.4-1.6,5-3.7c0.1-0.5,0.2-1,0.2-1.5v-43.6l0-3.6
	C285.7,222.9,285.3,221.9,284.8,221.1z"/>
</svg>
