<?xml version="1.0" encoding="UTF-8"?>
<svg width="18px" height="18px" viewBox="0 0 18 18" version="1.1" xmlns="http://www.w3.org/2000/svg" xmlns:xlink="http://www.w3.org/1999/xlink">
    <!-- Generator: Sketch 52.4 (67378) - http://www.bohemiancoding.com/sketch -->
    <title>save</title>
    <desc>Created with Sketch.</desc>
    <g id="Page-1" stroke="none" stroke-width="1" fill="none" fill-rule="evenodd">
        <g id="save" fill="#2C7BFF" fill-rule="nonzero">
            <path d="M14,0 L2,0 C0.89,0 0,0.9 0,2 L0,16 C0,17.1 0.89,18 2,18 L16,18 C17.1,18 18,17.1 18,16 L18,4 L14,0 Z M9,16 C7.34,16 6,14.66 6,13 C6,11.34 7.34,10 9,10 C10.66,10 12,11.34 12,13 C12,14.66 10.66,16 9,16 Z M12,6 L2,6 L2,2 L12,2 L12,6 Z" id="Shape"></path>
        </g>
    </g>
</svg>