<svg width="18px" height="16px" viewBox="0 0 18 16" version="1.1" xmlns="http://www.w3.org/2000/svg" xmlns:xlink="http://www.w3.org/1999/xlink">
    <g stroke="none" stroke-width="1" fill="none" fill-rule="evenodd">
        <g transform="translate(0.000000, -2.000000)">
            <rect x="0" y="0" width="18" height="18"></rect>
            <g transform="translate(0.750000, 2.250000)" fill="#2C7BFF" fill-rule="nonzero">
                <path d="M11.625,4.5 C11.31,4.5 11.0025,4.53 10.695,4.5825 L0.0075,0 L0,5.25 L6.75,6.75 L0,8.25 L0.0075,13.5 L6.06,10.905 C6.4425,13.6425 8.7825,15.75 11.625,15.75 C14.73,15.75 17.25,13.23 17.25,10.125 C17.25,7.02 14.73,4.5 11.625,4.5 Z M11.625,14.25 C9.3525,14.25 7.5,12.3975 7.5,10.125 C7.5,7.8525 9.3525,6 11.625,6 C13.8975,6 15.75,7.8525 15.75,10.125 C15.75,12.3975 13.8975,14.25 11.625,14.25 Z M11.5,7.25 L10.75,7.25 L10.75,10.5286885 L13.375,12.25 L13.75,11.5778689 L11.5,10.1188525 L11.5,7.25 Z"></path>
            </g>
        </g>
    </g>
</svg>