<svg width="24px" height="24px" viewBox="0 0 24 24" version="1.1" xmlns="http://www.w3.org/2000/svg" xmlns:xlink="http://www.w3.org/1999/xlink">
    <g stroke="none" stroke-width="1" fill="none" fill-rule="evenodd">
        <g>
            <polygon id="Path" points="0 0 24 0 24 24 0 24"></polygon>
            <path d="M23.5,16 L18.5,21 L15,17.5 L16.5,16 L18.5,18 L22,14.5 L23.5,16 M13,17 L3,17 L3,7 L11,12 L19,7 L19,12 L21,12 L21,5 C21,3.9 20.1,3 19,3 L3,3 C1.9,3 1,3.9 1,5 L1,17 C1,18.1 1.9,19 3,19 L13,19 L13,17 M19,5 L11,10 L3,5 L19,5 Z" id="Shape" fill="#1EA146" fill-rule="nonzero"></path>
        </g>
    </g>
</svg>