<svg width="18" height="18" viewBox="0 0 18 18" fill="none" xmlns="http://www.w3.org/2000/svg">
<g clip-path="url(#clip0_335_526)">
<path d="M4.5 1.5C3.675 1.5 3.0075 2.175 3.0075 3L3 15C3 15.825 3.6675 16.5 4.4925 16.5H13.5C14.325 16.5 15 15.825 15 15V6.6225C15 6.225 14.8425 5.8425 14.5575 5.565L10.935 1.9425C10.6575 1.6575 10.275 1.5 9.8775 1.5H4.5ZM9.75 6V2.625L13.875 6.75H10.5C10.0875 6.75 9.75 6.4125 9.75 6Z" fill="#333333"/>
<rect x="5.5" y="9" width="7" height="5" rx="0.5" stroke="white"/>
<line x1="9" y1="9.5" x2="9" y2="13.5" stroke="white"/>
<line x1="6" y1="11.5" x2="12" y2="11.5" stroke="white"/>
</g>
<defs>
<clipPath id="clip0_335_526">
<rect width="18" height="18" fill="white"/>
</clipPath>
</defs>
</svg>
