<?xml version="1.0" encoding="UTF-8"?>
<svg width="18px" height="18px" viewBox="0 0 18 18" version="1.1" xmlns="http://www.w3.org/2000/svg" xmlns:xlink="http://www.w3.org/1999/xlink">
    <g id="Page-1" stroke="none" stroke-width="1" fill="none" fill-rule="evenodd">
        <g id="google-spreadsheet" transform="translate(-3.000000, -3.000000)">
            <polygon id="Path" points="0 0 24 0 24 24 0 24"></polygon>
            <path d="M19,11 L19,9 L11,9 L11,5 L9,5 L9,9 L5,9 L5,11 L9,11 L9,19 L11,19 L11,11 L19,11 M19,3 C19.5,3 20,3.2 20.39,3.61 C20.8,4 21,4.5 21,5 L21,19 C21,19.5 20.8,20 20.39,20.39 C20,20.8 19.5,21 19,21 L5,21 C4.5,21 4,20.8 3.61,20.39 C3.2,20 3,19.5 3,19 L3,5 C3,4.5 3.2,4 3.61,3.61 C4,3.2 4.5,3 5,3 L19,3 Z" id="Shape" fill="#2C7BFF" fill-rule="nonzero"></path>
        </g>
    </g>
</svg>