<?xml version="1.0" encoding="utf-8"?>
<!-- Generator: Adobe Illustrator 23.1.1, SVG Export Plug-In . SVG Version: 6.00 Build 0)  -->
<svg version="1.1" id="Calque_1" xmlns="http://www.w3.org/2000/svg" xmlns:xlink="http://www.w3.org/1999/xlink" x="0px" y="0px"
	 viewBox="0 0 280.5 256" style="enable-background:new 0 0 280.5 256;" xml:space="preserve">
<style type="text/css">
	.st0{fill:#01145F;}
	.st1{display:none;opacity:0.22;clip-path:url(#SVGID_3_);fill:url(#SVGID_4_);enable-background:new    ;}
	.st2{opacity:0.35;clip-path:url(#SVGID_6_);}
	.st3{opacity:0.79;clip-path:url(#SVGID_8_);}
	.st4{clip-path:url(#SVGID_10_);}
	.st5{fill:#FFFFFF;}
	.st6{fill:#F4257A;}
	.st7{display:none;}
	.st8{display:inline;fill:#F4257A;}
	.st9{display:inline;fill:url(#SVGID_11_);}
	.st10{display:inline;}
	.st11{fill:#E3AD27;}
	.st12{opacity:0.5;fill:url(#SVGID_12_);enable-background:new    ;}
	.st13{fill:url(#SVGID_13_);}
	.st14{opacity:0.3;fill:url(#SVGID_14_);enable-background:new    ;}
	.st15{opacity:0.4;fill:url(#SVGID_15_);enable-background:new    ;}
	.st16{opacity:0.4;fill:url(#SVGID_16_);enable-background:new    ;}
	.st17{opacity:0.2;}
	.st18{fill:url(#SVGID_17_);}
	.st19{fill:url(#SVGID_18_);}
	.st20{fill:url(#SVGID_19_);}
	.st21{fill:url(#SVGID_20_);}
	.st22{fill:url(#SVGID_21_);}
	.st23{fill:url(#SVGID_22_);}
	.st24{fill:url(#SVGID_23_);}
	.st25{fill:url(#SVGID_24_);}
	.st26{fill:url(#SVGID_25_);}
	.st27{fill:url(#SVGID_26_);}
	.st28{fill:url(#SVGID_27_);}
	.st29{fill:url(#SVGID_28_);}
	.st30{fill-rule:evenodd;clip-rule:evenodd;fill:#C4D6D3;}
	.st31{fill-rule:evenodd;clip-rule:evenodd;fill:#8DA2A3;}
	.st32{fill-rule:evenodd;clip-rule:evenodd;fill:#333333;}
	.st33{fill-rule:evenodd;clip-rule:evenodd;fill:#FFFFFF;}
	.st34{fill-rule:evenodd;clip-rule:evenodd;fill:#06223D;}
	.st35{fill-rule:evenodd;clip-rule:evenodd;fill:url(#SVGID_29_);}
	.st36{opacity:0.3;fill-rule:evenodd;clip-rule:evenodd;fill:url(#SVGID_30_);enable-background:new    ;}
	.st37{fill-rule:evenodd;clip-rule:evenodd;fill:#0B2D49;}
	.st38{fill-rule:evenodd;clip-rule:evenodd;fill:#D24A47;}
	.st39{fill-rule:evenodd;clip-rule:evenodd;fill:#2790D6;}
	.st40{fill-rule:evenodd;clip-rule:evenodd;fill:url(#SVGID_31_);}
	.st41{opacity:0.92;fill:#FFFFFF;enable-background:new    ;}
</style>
<g>
	<g>
		<g>
			<path id="SVGID_1_" class="st0" d="M165,2.5c30.4,4.9,58.3,17.3,78.4,39c25.9,27.8,39.1,69.4,29.3,108.1
				c-16,63.3-81.8,100.8-139.5,105.8c-35.3,3.1-82.5-4.9-90.5-49.2c-2.7-14.8,1.3-30.4,0.7-45.5c-0.8-16.6-9.1-28.2-19.1-40.3
				C8.8,101.9-4,78.1,6.3,53c9.4-23.1,33.1-35,54.6-41.8C94.3,0.7,131.2-2.9,165,2.5z"/>
		</g>
		<g>
			<defs>
				<path id="SVGID_2_" d="M165,2.5c30.4,4.9,58.3,17.3,78.4,39c25.9,27.8,39.1,69.4,29.3,108.1c-16,63.3-81.8,100.8-139.5,105.8
					c-35.3,3.1-82.5-4.9-90.5-49.2c-2.7-14.8,1.3-30.4,0.7-45.5c-0.8-16.6-9.1-28.2-19.1-40.3C8.8,101.9-4,78.1,6.3,53
					c9.4-23.1,33.1-35,54.6-41.8C94.3,0.7,131.2-2.9,165,2.5z"/>
			</defs>
			<clipPath id="SVGID_3_">
				<use xlink:href="#SVGID_2_"  style="overflow:visible;"/>
			</clipPath>
			
				<radialGradient id="SVGID_4_" cx="128.1644" cy="131.0869" r="141.5435" gradientTransform="matrix(1 0 0 -1 0 258)" gradientUnits="userSpaceOnUse">
				<stop  offset="0" style="stop-color:#FFFFFF;stop-opacity:0"/>
				<stop  offset="1" style="stop-color:#29ABE2"/>
			</radialGradient>
			<path class="st1" d="M158.6-1.1c33.3,4.9,63.9,17.4,86,39.4c28.4,28.3,42.6,70.5,31.8,110c-17.8,64.5-90.3,103-153.6,108.4
				C84,260,32.3,252.1,23.6,207c-3.3-17.1,2.7-33,1.7-49.9c-0.8-14.8-12.2-26.8-21.8-37.5c-8.8-9.9-17.9-19.8-23.1-32
				c-18.3-43,29.5-69.2,63.9-79.5C81-2.7,121.6-6.5,158.6-1.1z"/>
		</g>
		<g>
			<defs>
				<path id="SVGID_5_" d="M165,2.5c30.4,4.9,58.3,17.3,78.4,39c25.9,27.8,39.1,69.4,29.3,108.1c-16,63.3-81.8,100.8-139.5,105.8
					c-35.3,3.1-82.5-4.9-90.5-49.2c-2.7-14.8,1.3-30.4,0.7-45.5c-0.8-16.6-9.1-28.2-19.1-40.3C8.8,101.9-4,78.1,6.3,53
					c9.4-23.1,33.1-35,54.6-41.8C94.3,0.7,131.2-2.9,165,2.5z"/>
			</defs>
			<clipPath id="SVGID_6_">
				<use xlink:href="#SVGID_5_"  style="overflow:visible;"/>
			</clipPath>
			<g class="st2">
				<g>
					<defs>
						<path id="SVGID_7_" d="M293.2,52.1c0.5-29.8-10.9-57.9-28.6-75.2c-19-18.6-44.6-22.7-66.7-13.2c-12.2,5.3-23,15.6-34.7,22.5
							c-22.2,13.1-45.1,9.6-68.5,9.1C64-5.2,30.1,6.1,8.1,37.5c-22.5,32.3-27.2,85.2-17.9,126.8c7.2,32,23.1,54.9,43.8,71.6
							c23.9,19.2,51.3,28.7,77.2,41c26.2,12.4,53.3,24.4,81.4,23c12.2-0.6,23.7-4.2,34.6-11.9c32.1-22.7,43.5-63.9,45.3-111.1
							c0.7-17.6,3-34,6.8-50.8C284.8,102.1,292.8,77.6,293.2,52.1z"/>
					</defs>
					<clipPath id="SVGID_8_">
						<use xlink:href="#SVGID_7_"  style="overflow:visible;"/>
					</clipPath>
					<g class="st3">
					</g>
				</g>
			</g>
		</g>
		<g>
			<defs>
				<path id="SVGID_9_" d="M165,2.5c30.4,4.9,58.3,17.3,78.4,39c25.9,27.8,39.1,69.4,29.3,108.1c-16,63.3-81.8,100.8-139.5,105.8
					c-35.3,3.1-82.5-4.9-90.5-49.2c-2.7-14.8,1.3-30.4,0.7-45.5c-0.8-16.6-9.1-28.2-19.1-40.3C8.8,101.9-4,78.1,6.3,53
					c9.4-23.1,33.1-35,54.6-41.8C94.3,0.7,131.2-2.9,165,2.5z"/>
			</defs>
			<clipPath id="SVGID_10_">
				<use xlink:href="#SVGID_9_"  style="overflow:visible;"/>
			</clipPath>
			<g class="st4">
				<g>
					<ellipse class="st5" cx="57.9" cy="54.1" rx="1.6" ry="1.7"/>
					<ellipse class="st5" cx="45.3" cy="13.3" rx="1.6" ry="1.7"/>
					<ellipse class="st5" cx="17.7" cy="65.1" rx="1.6" ry="1.7"/>
					<ellipse class="st5" cx="253.3" cy="30.7" rx="1.6" ry="1.7"/>
					<ellipse class="st5" cx="19.3" cy="-1.6" rx="1.6" ry="1.7"/>
					<ellipse class="st5" cx="57.8" cy="161.6" rx="1.6" ry="1.7"/>
					<ellipse class="st5" cx="238" cy="135.4" rx="1.6" ry="1.7"/>
					<ellipse class="st5" cx="243.4" cy="190.7" rx="1.6" ry="1.7"/>
					<ellipse class="st5" cx="4.8" cy="125.7" rx="1.6" ry="1.7"/>
					<ellipse class="st5" cx="35.7" cy="110.1" rx="1.6" ry="1.7"/>
					<ellipse class="st5" cx="18.2" cy="168.2" rx="1.6" ry="1.7"/>
					<ellipse class="st5" cx="262.8" cy="60.3" rx="1.6" ry="1.7"/>
					<ellipse class="st5" cx="40.2" cy="154.1" rx="1.6" ry="1.7"/>
					<ellipse class="st5" cx="254.9" cy="86.8" rx="1.6" ry="1.7"/>
					<ellipse class="st6" cx="194.3" cy="27.3" rx="1.6" ry="1.7"/>
					<ellipse class="st5" cx="63.3" cy="131.8" rx="1.6" ry="1.7"/>
					<ellipse class="st5" cx="26.6" cy="40.9" rx="0.6" ry="0.6"/>
					<ellipse class="st5" cx="45.3" cy="71.1" rx="0.6" ry="0.6"/>
					<ellipse class="st5" cx="233.3" cy="52.6" rx="0.6" ry="0.6"/>
					<ellipse class="st5" cx="233.3" cy="25" rx="0.6" ry="0.6"/>
					<ellipse class="st5" cx="188.7" cy="15.5" rx="0.6" ry="0.6"/>
					<ellipse class="st5" cx="264.9" cy="44.3" rx="0.6" ry="0.6"/>
					<ellipse class="st5" cx="268.8" cy="21.8" rx="0.6" ry="0.6"/>
					<ellipse class="st5" cx="245.2" cy="120" rx="0.6" ry="0.6"/>
					<ellipse class="st5" cx="135.3" cy="179.9" rx="0.6" ry="0.6"/>
					<ellipse class="st5" cx="18.8" cy="149.8" rx="0.6" ry="0.6"/>
					<ellipse class="st5" cx="35.2" cy="82.9" rx="0.6" ry="0.6"/>
					<ellipse class="st5" cx="14.7" cy="188.4" rx="0.6" ry="0.6"/>
					<ellipse class="st5" cx="225.3" cy="148.7" rx="0.6" ry="0.6"/>
					<ellipse class="st5" cx="57.5" cy="143.7" rx="0.6" ry="0.6"/>
					<ellipse class="st5" cx="264.4" cy="205.8" rx="0.6" ry="0.6"/>
					<ellipse class="st5" cx="15.8" cy="25.7" rx="0.6" ry="0.6"/>
					<ellipse class="st5" cx="1.6" cy="0.1" rx="0.6" ry="0.6"/>
					<ellipse class="st5" cx="3.8" cy="84" rx="0.6" ry="0.6"/>
					<ellipse class="st5" cx="57.4" cy="18.4" rx="0.6" ry="0.6"/>
					<g>
						<path class="st5" d="M42.9,39.9c-0.5,1.1-1.2,2-2.2,2.5c-0.4,0.2-0.4,0.7,0,0.8c1,0.5,1.8,1.4,2.2,2.5c0.2,0.4,0.7,0.4,0.8,0
							c0.5-1.1,1.2-2,2.2-2.5c0.4-0.2,0.4-0.7,0-0.8c-1-0.5-1.8-1.4-2.2-2.5C43.6,39.6,43.1,39.6,42.9,39.9z"/>
					</g>
					<g>
						<path class="st5" d="M6.2,151.2c-0.5,1.1-1.2,2-2.2,2.5c-0.4,0.2-0.4,0.7,0,0.8c1,0.5,1.8,1.4,2.2,2.5c0.2,0.4,0.7,0.4,0.8,0
							c0.5-1.1,1.2-2,2.2-2.5c0.4-0.2,0.4-0.7,0-0.8c-1-0.5-1.8-1.4-2.2-2.5C6.9,150.9,6.4,150.9,6.2,151.2z"/>
					</g>
					<g>
						<path class="st6" d="M81.7,18.7c-0.5,1.1-1.2,2-2.2,2.5c-0.4,0.2-0.4,0.7,0,0.8c1,0.5,1.8,1.4,2.2,2.5c0.2,0.4,0.7,0.4,0.8,0
							c0.5-1.1,1.2-2,2.2-2.5c0.4-0.2,0.4-0.7,0-0.8c-1-0.5-1.8-1.4-2.2-2.5C82.4,18.3,81.9,18.3,81.7,18.7z"/>
					</g>
					<ellipse class="st5" cx="90.4" cy="0.9" rx="1.6" ry="1.7"/>
					<ellipse class="st5" cx="149.4" cy="12" rx="1.6" ry="1.7"/>
					<ellipse class="st6" cx="186.4" cy="5.3" rx="1.6" ry="1.7"/>
					<ellipse class="st5" cx="59" cy="0" rx="0.6" ry="0.6"/>
					<ellipse class="st5" cx="78.4" cy="1.5" rx="0.6" ry="0.6"/>
					<ellipse class="st5" cx="171.7" cy="19.8" rx="0.6" ry="0.6"/>
					<g>
						<path class="st6" d="M264.5,104c-0.5,1.1-1.2,2-2.2,2.5c-0.4,0.2-0.4,0.7,0,0.8c1,0.5,1.8,1.4,2.2,2.5c0.2,0.4,0.7,0.4,0.8,0
							c0.5-1.1,1.2-2,2.2-2.5c0.4-0.2,0.4-0.7,0-0.8c-1-0.5-1.8-1.4-2.2-2.5C265.1,103.6,264.6,103.6,264.5,104z"/>
					</g>
					<g>
						<path class="st6" d="M22.2,73.8c-0.6,1.4-1.7,2.7-3,3.4c-0.5,0.2-0.5,0.9,0,1.2c1.3,0.7,2.4,1.9,3,3.4c0.2,0.5,0.9,0.5,1.1,0
							c0.6-1.4,1.7-2.7,3-3.4c0.5-0.2,0.5-0.9,0-1.2c-1.3-0.7-2.4-1.9-3-3.4C23,73.3,22.3,73.3,22.2,73.8z"/>
					</g>
				</g>
				<g class="st7">
					<circle class="st8" cx="138" cy="310.5" r="138.5"/>
					
						<radialGradient id="SVGID_11_" cx="63.4833" cy="25.0284" r="58.8298" gradientTransform="matrix(3.6184 2.1894 2.1894 -3.6184 -117.704 185.1005)" gradientUnits="userSpaceOnUse">
						<stop  offset="3.703700e-03" style="stop-color:#E38427"/>
						<stop  offset="0.9185" style="stop-color:#FFE245"/>
					</radialGradient>
					<path class="st9" d="M266.3,258.4c-2.7,15.5-8.2,30.7-16.8,45c-37.2,61.4-117.1,81.1-178.5,43.9
						c-33.8-20.4-54.9-53.8-60.9-89.9C-15.8,319.5,6.9,393,66.3,428.9c65.4,39.6,150.6,18.6,190.2-46.8
						C280,343.3,282.1,297.5,266.3,258.4z"/>
					<g class="st10">
						<g>
							<path class="st11" d="M133.3,295.2c0.1,0.2,0.2,0.5,0.2,0.7c1.2,3.7,4.4,6.9,8.6,6.8c4.1-0.1,7.4-2.6,8.8-6.5
								c0.2-0.7,0.3-1.6,0.3-2.3c0.3-3.5-2.3-6.9-5.4-8.3c-3-1.3-7.4-1-9.7,1.6c-0.2,0.2-0.4,0.5-0.6,0.7
								C133.7,289.9,132.4,292.6,133.3,295.2L133.3,295.2z"/>
						</g>
					</g>
					<g class="st10">
						<g>
							<path class="st11" d="M179.3,285c-0.3-0.1-0.5-0.1-0.8-0.2c-2.6-0.6-5.6,0.3-6.9,2.7c-1.4,2.5-1,5.3,0.8,7.4
								c0.2,0.2,0.3,0.4,0.5,0.6c2.7,3.2,8.1,2.3,10.2-1.1C185.1,291.2,183.4,285.9,179.3,285L179.3,285z"/>
						</g>
					</g>
					<g class="st10">
						<g>
							<path class="st11" d="M206.9,254.5c13.2,8,25.7-12.5,12.4-20.6C206.1,225.9,193.6,246.5,206.9,254.5L206.9,254.5z"/>
						</g>
					</g>
					<g class="st10">
						<g>
							<path class="st11" d="M217.8,300.2c4.4,2.6,8.5-4.1,4.1-6.8C217.5,290.8,213.4,297.6,217.8,300.2L217.8,300.2z"/>
						</g>
					</g>
					<g class="st10">
						<g>
							<path class="st11" d="M99.1,279.2c4.3,2.6,10.7,1.3,13.1-3.2c2.5-4.6,1.4-10.4-3.2-13.1c-4.3-2.6-10.7-1.3-13.1,3.2
								C93.4,270.7,94.5,276.5,99.1,279.2L99.1,279.2z"/>
						</g>
					</g>
					<g class="st10">
						<g>
							<path class="st11" d="M163.6,340.1c5.6,3.4,10.8-5.3,5.2-8.6C163.3,328.1,158.1,336.8,163.6,340.1L163.6,340.1z"/>
						</g>
					</g>
					<g class="st10">
						<g>
							<path class="st11" d="M187.5,331.3c5.1,3.1,9.9-4.8,4.8-7.9C187.2,320.2,182.4,328.2,187.5,331.3L187.5,331.3z"/>
						</g>
					</g>
					<g class="st10">
						<g>
							<path class="st11" d="M185.1,264.5c5.4,3.3,10.5-5.1,5.1-8.4C184.8,252.8,179.7,261.2,185.1,264.5L185.1,264.5z"/>
						</g>
					</g>
					<g class="st10">
						<g>
							<path class="st11" d="M32.6,320.7c4.4,2.7,11,1.3,13.5-3.3c2.6-4.7,1.4-10.7-3.3-13.5c-4.4-2.7-11-1.3-13.5,3.3
								C26.8,311.9,27.9,317.8,32.6,320.7L32.6,320.7z"/>
						</g>
					</g>
					<g class="st10">
						<g>
							<path class="st11" d="M66.5,382.7c1.5,0.9,2.9-1.4,1.4-2.3C66.4,379.4,65,381.8,66.5,382.7L66.5,382.7z"/>
						</g>
					</g>
					<g class="st10">
						<g>
							<path class="st11" d="M93.5,380.5c5.6,3.4,10.8-5.3,5.2-8.6C93.2,368.5,87.9,377.1,93.5,380.5L93.5,380.5z"/>
						</g>
					</g>
					<g class="st10">
						<g>
							<path class="st11" d="M96.9,417.4c10.2,6.2,19.9-9.7,9.6-15.9C96.3,395.4,86.6,411.2,96.9,417.4L96.9,417.4z"/>
						</g>
					</g>
					<g class="st10">
						<g>
							<path class="st11" d="M54,377.3c0-0.2,0.1-0.5,0.1-0.7c0.5-3.7-4.7-6.9-7.8-4.7c-0.2,0.1-0.4,0.3-0.6,0.4
								c-1.7,1.2-2.9,2.7-2.9,4.8c0,2,1,3.9,2.7,4.9s3.8,1.1,5.6,0.1C53,381.1,53.7,379.4,54,377.3L54,377.3z"/>
						</g>
					</g>
					<g class="st10">
						<g>
							<path class="st11" d="M189.6,382.2c3.1,1.8,7.6,0.9,9.4-2.3c1.8-3.3,1-7.4-2.3-9.4c-3.1-1.8-7.6-0.9-9.4,2.3
								C185.5,376,186.3,380.2,189.6,382.2L189.6,382.2z"/>
						</g>
					</g>
					<g class="st10">
						<g>
							<path class="st11" d="M211,391.6c0.2,0.1,0.3-0.2,0.2-0.2C211,391.3,210.8,391.5,211,391.6L211,391.6z"/>
						</g>
					</g>
					<g class="st10">
						<g>
							<path class="st11" d="M234.3,322.4c5.1,3.1,9.9-4.8,4.8-7.9C234,311.4,229.2,319.3,234.3,322.4L234.3,322.4z"/>
						</g>
					</g>
					<g class="st10">
						<g>
							<path class="st11" d="M221.7,397.5c7.7,4.6,14.9-7.3,7.2-11.9C221.3,380.9,214,392.8,221.7,397.5L221.7,397.5z"/>
						</g>
					</g>
					<g class="st10">
						<g>
							<path class="st11" d="M190.5,325.2c-16.5,27.3-7.8,62.8,19.5,79.3c6.9,4.2,14.4,6.7,21.9,7.8c9.4-8.6,17.7-18.7,24.6-30.1
								c13.6-22.4,20-47.1,20-71.6c-2.1-1.7-4.3-3.4-6.7-4.9C242.5,289.2,207,297.9,190.5,325.2z"/>
							<path class="st11" d="M264.7,254.6c-6.1-13.8-14.4-26.7-24.9-38c-1.8,1.6-3.5,3.4-4.8,5.6c-6.6,10.8-3.1,24.9,7.7,31.5
								C249.6,257.8,257.9,257.9,264.7,254.6z"/>
							<path class="st11" d="M66.3,428.9c5.7,3.5,11.6,6.5,17.7,9c5.3-4,10-9,13.7-15.1c15.3-25.3,7.2-58.1-18.1-73.4
								c-23.5-14.2-53.6-8.2-70,13C20.5,389.2,39.7,412.8,66.3,428.9z"/>
							<path class="st11" d="M9.9,257.7c-5.1,12.5-8.3,25.4-9.7,38.3c6.2-0.8,12-4.3,15.5-10.1C21.6,276.4,18.9,264.1,9.9,257.7z"/>
							<path class="st11" d="M159.1,431.2c-12.4-7.5-28.6-3.5-36.1,8.9c-1.5,2.4-2.5,5-3.1,7.6c17,2.2,34.1,1.3,50.5-2.6
								C168.4,439.5,164.5,434.5,159.1,431.2z"/>
							<circle class="st11" cx="158.2" cy="390" r="21.2"/>
						</g>
					</g>
				</g>
				<g>
					
						<radialGradient id="SVGID_12_" cx="5.4875" cy="227.1892" r="59.439" gradientTransform="matrix(2.5141 0 0 -2.6666 126.2145 901.4228)" gradientUnits="userSpaceOnUse">
						<stop  offset="2.222220e-02" style="stop-color:#E43D99"/>
						<stop  offset="0.4741" style="stop-color:#E43D99"/>
						<stop  offset="0.837" style="stop-color:#E44099;stop-opacity:0.5"/>
						<stop  offset="1" style="stop-color:#E47E99;stop-opacity:0"/>
					</radialGradient>
					<ellipse class="st12" cx="140" cy="295.6" rx="149.4" ry="158.5"/>
					
						<radialGradient id="SVGID_13_" cx="-11.1405" cy="262.9818" r="100.5362" gradientTransform="matrix(2.5141 0 0 -2.6666 126.2145 901.4228)" gradientUnits="userSpaceOnUse">
						<stop  offset="5.925930e-02" style="stop-color:#E47E99"/>
						<stop  offset="0.5259" style="stop-color:#E43D99"/>
						<stop  offset="0.9926" style="stop-color:#B30058"/>
					</radialGradient>
					<ellipse class="st13" cx="140" cy="295.6" rx="119.5" ry="126.7"/>
					
						<radialGradient id="SVGID_14_" cx="-16.4428" cy="263.7633" r="90.0486" gradientTransform="matrix(2.5141 0 0 -2.6666 126.2145 901.4228)" gradientUnits="userSpaceOnUse">
						<stop  offset="5.925930e-02" style="stop-color:#E47E99"/>
						<stop  offset="0.5259" style="stop-color:#E43D99"/>
						<stop  offset="0.9926" style="stop-color:#B30058"/>
					</radialGradient>
					<path class="st14" d="M39.4,309.9c0-70,53.5-126.7,119.5-126.7c21.7,0,42,6.2,59.6,16.9c-21-19.4-48.4-31.2-78.4-31.2
						c-66,0-119.5,56.7-119.5,126.7c0,46.9,24.1,87.9,59.9,109.8C55.3,382.2,39.4,348,39.4,309.9z"/>
					
						<radialGradient id="SVGID_15_" cx="11.415" cy="221.8168" r="83.3521" gradientTransform="matrix(2.5141 0 0 -2.6666 126.2145 901.4228)" gradientUnits="userSpaceOnUse">
						<stop  offset="7.407410e-03" style="stop-color:#B30058"/>
						<stop  offset="1" style="stop-color:#5C2D7D"/>
					</radialGradient>
					<path class="st15" d="M234.1,217.7c2,9.2,3.1,18.9,3.1,28.8c0,70-53.5,126.7-119.5,126.7c-38.3,0-72.3-19.1-94.2-48.8
						c12.3,56.1,59.7,97.9,116.3,97.9c66,0,119.5-56.7,119.5-126.7C259.5,266.2,249.9,239.2,234.1,217.7z"/>
					
						<radialGradient id="SVGID_16_" cx="145.5647" cy="448.0074" r="83.3556" gradientTransform="matrix(1.6163 2.0424 1.9256 -1.7144 -958.7906 786.0511)" gradientUnits="userSpaceOnUse">
						<stop  offset="7.407410e-03" style="stop-color:#B30058"/>
						<stop  offset="1" style="stop-color:#5C2D7D"/>
					</radialGradient>
					<path class="st16" d="M256.6,320.4c-5.4,7.6-11.6,14.7-18.8,21c-50.5,45-125.9,38-168.3-15.6C45.1,294.7,37,254.8,44.3,218
						C11.7,264,12,329.4,48.4,375.4C90.8,429,166.1,436,216.7,391C237.9,372.1,251.4,347,256.6,320.4z"/>
					<g class="st17">
						
							<radialGradient id="SVGID_17_" cx="-12.5129" cy="261.6934" r="18.117" gradientTransform="matrix(2.5141 0 0 -2.6666 126.2145 901.4228)" gradientUnits="userSpaceOnUse">
							<stop  offset="7.407410e-03" style="stop-color:#B30058"/>
							<stop  offset="1" style="stop-color:#5C2D7D"/>
						</radialGradient>
						<path class="st18" d="M59.6,237.3c6.1,1.2,12.7,1,19.3,0.2c6.5-0.9,12.9-2.8,18.7-5.3s10.8-5.6,14.9-8.7
							c2.1-1.5,3.8-3.1,5.4-4.5c0.8-0.7,1.5-1.3,2.2-1.9c0.7-0.6,1.2-1.2,1.7-1.8c2.1-2.2,3.2-3.4,3.2-3.4s0.3-0.3,0.8-1
							c0.5-0.6,1.2-1.6,2.1-2.8c0.9-1.2,2-2.6,3.1-4.4c1.1-1.7,2.5-3.6,3.8-5.8c4.8-7.7,10.2-18.2,15.6-28.7
							c-2.5-0.2-5.1-0.4-7.7-0.4c-5.4,9.1-10.4,17.7-14.8,24c-1.3,2-2.6,3.7-3.8,5.3c-1.1,1.6-2.2,2.9-3,3.9c-0.8,1-1.5,1.9-2,2.4
							c-0.5,0.6-0.8,0.8-0.8,0.8s-1,1.2-2.8,3.2c-0.5,0.5-0.9,1.1-1.5,1.7c-0.6,0.6-1.2,1.2-1.9,1.8c-1.3,1.3-2.8,2.8-4.5,4.2
							c-6.9,5.9-17.7,11.9-29.6,14.3c-5.9,1.2-12,1.8-17.5,1.2c-5.6-0.5-10.7-2.1-14.7-4.2c-1.8-0.9-3.3-2-4.6-3.1
							c-0.6,0.8-1,1.7-1.6,2.6c1.2,1.3,2.6,2.6,4.3,3.8C48,234,53.5,236.2,59.6,237.3z"/>
						
							<radialGradient id="SVGID_18_" cx="-10.4462" cy="266.687" r="9.9227" gradientTransform="matrix(2.5141 0 0 -2.6666 126.2145 901.4228)" gradientUnits="userSpaceOnUse">
							<stop  offset="7.407410e-03" style="stop-color:#B30058"/>
							<stop  offset="1" style="stop-color:#5C2D7D"/>
						</radialGradient>
						<path class="st19" d="M71.6,199.7c0.6,2.1,1.6,4.2,3.2,6.1c1.6,1.9,3.7,3.4,5.9,4.2c4.7,1.7,9.1,1.1,13,0.1
							c4-1,7.4-2.8,10.1-4.7c2.7-1.8,4.7-3.6,6-4.9c1.3-1.3,2.1-2.1,2.1-2.1s2.8-3.2,6.1-8.5c1.7-2.6,3.5-5.8,5.2-9.2
							c1.7-3.4,3.5-6.9,5.4-10.3c0.2-0.4,0.4-0.7,0.6-1.1c-2.8,0.3-5.8,0.6-8.5,1.1c-1.3,2.1-2.6,4.2-4,6.1c-2,3.1-3.9,5.8-5.6,8.1
							c-3.4,4.5-5.9,7.1-5.9,7.1s-0.6,0.7-1.6,1.9c-1,1.2-2.6,2.8-4.6,4.4c-2,1.6-4.5,3.2-7.4,4.3c-2.8,1-6.3,1.7-9.1,1
							c-2.7-0.6-4.9-2.7-6.2-5.7c-1.1-2.6-1.6-5.5-1.9-8.1c-1.3,0.9-2.5,1.8-3.9,2.8C70.6,194.7,70.9,197.1,71.6,199.7z"/>
						
							<radialGradient id="SVGID_19_" cx="-7.5885" cy="201.2674" r="23.2105" gradientTransform="matrix(2.5141 0 0 -2.6666 126.2145 901.4228)" gradientUnits="userSpaceOnUse">
							<stop  offset="7.407410e-03" style="stop-color:#B30058"/>
							<stop  offset="1" style="stop-color:#5C2D7D"/>
						</radialGradient>
						<path class="st20" d="M88.3,404.2c0.4-4.9,2.8-9.2,6.8-12.4c4-3.2,8.9-5.5,14-7.4c10.5-3.5,21.3-7,31.3-10.3
							c9.9-3.2,20-6.3,27.5-12.8c3.7-3.2,6.6-6.8,8.3-11.2c1.6-4.2,1.8-8.2,1.6-11.3c-0.3-3.1-0.8-5.6-1.5-7.2
							c-0.3-0.8-0.6-1.4-0.8-1.8c-0.2-0.4-0.3-0.6-0.3-0.6s-0.4-0.9-1.4-2.3c-0.9-1.5-2.7-3.7-5.8-5.4c-3-1.8-7.6-2.4-11.6-1.3
							c-2,0.5-3.9,1.2-5.6,1.8c-1.7,0.6-3.4,1.1-5.3,1.5c-7.5,1.7-17.1,1-27.8,0.9c-5.4,0-11.1,0.3-16.9,1.7
							c-5.8,1.5-11.4,4.3-16.2,7.7c-9.7,6.7-17.8,14.9-26.8,19.6c-7.1,3.7-14.6,5.2-21.5,5.4c0.8,1.4,1.5,2.8,2.4,4.2
							c6.7,0,14.1-1.3,21.3-4.6c10.2-4.7,18.9-12.9,28.1-18.7c4.6-2.9,9.4-5.1,14.3-6.2c5-1,10.2-1.1,15.3-1
							c10.2,0.4,20.4,1.6,29.4-0.1c2.3-0.4,4.4-1,6.4-1.6c1.9-0.6,3.5-1.1,4.8-1.4c2.7-0.6,4.3-0.1,5.6,0.6c1.2,0.7,2.1,1.8,2.5,2.6
							c0.6,0.8,0.8,1.3,0.8,1.3s0.3,0.4,0.7,1.4c0.4,0.9,0.8,2.5,1,4.5s0.1,4.6-0.8,7.1c-0.8,2.3-2.8,5.3-5.6,7.7
							c-2.7,2.5-6.4,4.7-10.6,6.6c-4.1,1.9-9,3.6-14,5.4c-10,3.7-20.5,7.4-31.2,11.5c-5.4,2.2-10.7,4.9-15.5,9.1
							c-2.3,2.1-4.3,4.6-5.8,7.5s-2.3,6.2-2.4,9.3c0,1.1,0,2.2,0,3.3c1.7,0.9,3.3,1.9,5,2.7C88.3,407.9,88.2,406,88.3,404.2z"/>
						
							<radialGradient id="SVGID_20_" cx="16.5413" cy="185.9965" r="13.6707" gradientTransform="matrix(2.5141 0 0 -2.6666 126.2145 901.4228)" gradientUnits="userSpaceOnUse">
							<stop  offset="7.407410e-03" style="stop-color:#B30058"/>
							<stop  offset="1" style="stop-color:#5C2D7D"/>
						</radialGradient>
						<path class="st21" d="M144.2,406.7l1.6-1.1c0.6-0.3,1.1-0.6,1.7-0.9c4.4-2.4,9-3.7,12.8-4.6c4-0.8,7.4-1,9.7-1.2
							c2.4-0.1,3.8-0.1,3.8-0.1s5.5-0.4,13.8,0.2c4.1,0.3,9.1,0.9,14.3,1.7c1.2,0.2,2.5,0.4,3.9,0.6c2.8-2,5.7-4.1,8.3-6.4
							c-3.6-0.5-7.3-1.4-10.8-2.2c-5.4-1.2-10.4-2.1-14.8-2.7c-8.8-1.2-14.9-1-14.9-1s-1.5,0.1-4.1,0.3c-2.6,0.3-6.4,0.7-10.8,1.9
							c-4.4,1.2-9.6,3.1-14.6,6.2c-0.7,0.4-1.2,0.8-1.9,1.2l-1.8,1.4c-1.2,0.9-2.5,1.9-3.6,2.9c-2.3,2.1-4.4,4.4-6.4,6.8
							c-2.9,3.6-5.8,7.3-8.4,10.9c2.3,0.4,4.4,0.6,6.7,0.9c2.1-2.3,4.2-4.7,6.4-7c2-2.1,4.1-4,6.1-5.7
							C142,408.2,143,407.4,144.2,406.7z"/>
						
							<radialGradient id="SVGID_21_" cx="16.5551" cy="247.68" r="28.4449" gradientTransform="matrix(2.5141 0 0 -2.6666 126.2145 901.4228)" gradientUnits="userSpaceOnUse">
							<stop  offset="7.407410e-03" style="stop-color:#B30058"/>
							<stop  offset="1" style="stop-color:#5C2D7D"/>
						</radialGradient>
						<path class="st22" d="M173.4,198.7c-3.1,4-6.6,8.1-10.4,12c-7.6,8-16.5,15.5-26.1,21.9c-4.8,3.2-9.8,6-14.8,8.6
							c-5,2.5-10.3,4.8-15.3,7.7s-9.8,6.3-13.5,11c-3.6,4.6-6.1,9.9-7,15.4c-0.8,5.5,0.2,11.1,2.5,15.1c2.3,4.1,5.4,6.8,7.9,8.5
							c2.6,1.7,4.8,2.5,6.3,3.1c1.5,0.5,2.3,0.7,2.3,0.7s0.8,0.2,2.4,0.5s3.8,0.6,6.5,0.6c2.8,0.1,6.2-0.2,10-1
							c3.7-0.8,7.8-2,12.1-3.8c4.3-1.8,8.8-4.2,13.2-7.2c4.4-3.1,8.6-6.9,12.6-10.6c4.1-3.7,8.2-7.2,12.9-9.4c4.6-2.2,10-2.8,15.6-3
							c5.7-0.1,11.5,0.2,17.5-0.5c5.9-0.7,11.7-2.4,16.9-4.7c10.4-4.7,18.5-11.6,25-17.8c-0.5-1.2-1-2.4-1.5-3.6
							c-0.2,0.2-0.5,0.4-0.7,0.6c-6.7,5.7-14.9,11.9-24.7,15.7c-4.9,1.9-10.1,3.2-15.5,3.6s-11.1-0.2-17.1-0.2
							c-5.9-0.1-12.4,0.4-18.3,2.9c-5.9,2.5-10.7,6.5-15,10.1c-4.3,3.7-8.2,7.1-12.2,9.6c-4,2.6-8,4.6-11.9,6.1s-7.4,2.4-10.7,3
							c-3.1,0.6-5.9,0.7-8.1,0.6c-2.3-0.1-4-0.4-5.2-0.6c-1.1-0.3-1.8-0.4-1.8-0.4s-0.6-0.2-1.7-0.5c-1-0.4-2.7-0.9-4.4-2
							c-1.7-1.1-3.6-2.6-5-5s-2.1-5.5-1.7-9.1c0.5-3.6,2.1-7.7,4.8-11.3c2.6-3.5,6.5-6.7,11-9.4c4.4-2.8,9.5-5.1,14.7-8
							c5.2-2.8,10.3-6,15.2-9.5c9.8-7,18.8-15.3,26.3-23.9c3.8-4.3,7.2-8.7,10.2-13c3-4.3,5.7-8.7,7.5-13c1.3-3.2,2.4-6.3,3-9.2
							c-0.9-0.4-1.8-0.8-2.7-1.2c-0.8,2.8-1.9,5.7-3.4,8.7C179.1,190.8,176.5,194.7,173.4,198.7z"/>
						
							<radialGradient id="SVGID_22_" cx="-18.1724" cy="199.7568" r="10.0965" gradientTransform="matrix(2.5141 0 0 -2.6666 126.2145 901.4228)" gradientUnits="userSpaceOnUse">
							<stop  offset="7.407410e-03" style="stop-color:#B30058"/>
							<stop  offset="1" style="stop-color:#5C2D7D"/>
						</radialGradient>
						<path class="st23" d="M98,367.7c1.6-1.4,3.2-2.7,4.6-4c0.4-0.3,0.8-0.6,1.1-1c0.2-0.2,0.4-0.4,0.8-0.8c0.3-0.3,0.6-0.7,0.8-1
							c1.1-1.3,2-2.8,2.5-4.1c1.1-2.8,1-5.3,0.4-7.3c-0.4-1-1-1.9-1.6-2.6c-0.7-0.4-1.2-0.7-1.8-1.1c-0.3-0.2-0.6-0.3-0.8-0.5
							c-0.4,0-0.8,0-1,0c-0.7,0-1.2,0.1-1.7,0.1c-0.9,0-1.4,0.1-1.4,0.1s-0.6,0.1-1.5,0.3c-0.5,0.1-1.1,0.2-1.8,0.4
							c-0.3,0.1-0.8,0.2-1,0.3c-0.2,0.1-0.5,0.2-0.8,0.3c-2.2,0.7-5,2.1-8,4.1c-6.2,4-12.5,11-18.5,17.6c-5.1,5.5-10.7,10.4-16,13
							c1,1.2,2,2.3,3,3.4c5.8-2.2,12-6.5,17.3-11.3c6.7-6.2,13.1-12,18.4-14.9c2.6-1.5,4.8-2.3,6.4-2.7c0.2-0.1,0.4-0.1,0.6-0.2
							c0.2,0,0.1,0,0.1,0l0,0l0,0c0,0,0,0,0.1-0.1c0.1-0.1,0.4-0.1,0.4,0.2c0,0.1,0,0.1,0,0.2c0.1-0.1-0.4,0.5-1.1,1.2
							c-1.3,1.3-2.7,2.8-4.2,4.2c-3,2.9-6.2,6-9.4,9c-8.7,8-17.8,15.4-22.9,19.8c0.7,0.6,1.3,1.2,2,1.8c5.8-3.1,15.5-9.1,24.7-16.1
							C91.2,373.3,94.7,370.4,98,367.7z"/>
						
							<radialGradient id="SVGID_23_" cx="19.9805" cy="182.7078" r="5.8426" gradientTransform="matrix(2.5141 0 0 -2.6666 126.2145 901.4228)" gradientUnits="userSpaceOnUse">
							<stop  offset="7.407410e-03" style="stop-color:#B30058"/>
							<stop  offset="1" style="stop-color:#5C2D7D"/>
						</radialGradient>
						<path class="st24" d="M180.6,408.9c0,0-2.5,0.5-6.6,1.6c-4,1.1-9.6,3-14.3,7.2c-1.1,1-2.2,2.1-3,3.3
							c14.1-2.1,27.4-6.8,39.5-13.6C187.8,408.1,180.6,408.9,180.6,408.9z"/>
						
							<radialGradient id="SVGID_24_" cx="47.4149" cy="220.6032" r="5.4907" gradientTransform="matrix(2.5141 0 0 -2.6666 126.2145 901.4228)" gradientUnits="userSpaceOnUse">
							<stop  offset="7.407410e-03" style="stop-color:#B30058"/>
							<stop  offset="1" style="stop-color:#5C2D7D"/>
						</radialGradient>
						<path class="st25" d="M254.6,299.5c-3.2,1-7.4,2.9-11.2,5.7c-1.9,1.4-3.7,2.9-5.3,4.4c-0.8,0.8-1.6,1.6-2.3,2.3l-0.5,0.6
							c-0.2,0.2-0.5,0.6-0.8,1c-0.5,0.7-0.9,1.4-1.4,2c-1.7,2.7-1.8,5-1.4,6.7c0.2,0.8,0.5,1.4,0.7,1.8s0.4,0.6,0.4,0.6
							s0.5,0.8,1.8,1.7c0.7,0.4,1.6,0.8,2.7,1.1c1.2,0.2,2.7,0.3,4.1,0.4c3.3,0,7.9-0.1,12.4-1.1c0.8-0.2,1.4-0.4,2.2-0.6
							c0.5-2.2,0.9-4.4,1.3-6.6c-1.4,0.2-2.8,0.4-4.2,0.4c-4,0-8-0.5-11-1c-0.4-0.3,0-0.4-0.1-0.4c0,0-0.3,0.2-0.4-0.1v-0.1
							c0,0,0,0,0-0.1l0.4-0.5c0.5-0.7,1-1.5,1.6-2.3c1.1-1.6,2.5-3.1,3.9-4.6c2.8-3,6-5.7,8.6-7.6c1.3-1,2.5-1.8,3.2-2.5
							c0-0.6,0-1.2,0-1.7C258.3,298.6,256.6,298.8,254.6,299.5z"/>
						
							<radialGradient id="SVGID_25_" cx="41.4964" cy="218.8056" r="11.7014" gradientTransform="matrix(2.5141 0 0 -2.6666 126.2145 901.4228)" gradientUnits="userSpaceOnUse">
							<stop  offset="7.407410e-03" style="stop-color:#B30058"/>
							<stop  offset="1" style="stop-color:#5C2D7D"/>
						</radialGradient>
						<path class="st26" d="M243.7,293.2c-5,1.8-10.3,3.2-15.3,5c-5,1.7-9.7,4-13.6,6.6c-1.9,1.3-3.7,2.9-5,4.3
							c-1.3,1.5-2.5,2.8-3.2,4c-0.8,1.2-1.4,2.2-1.8,2.9c-0.4,0.7-0.6,1.1-0.6,1.1s-0.2,0.4-0.5,1.1s-0.7,1.8-1.1,3.3
							c-0.8,2.8-1.7,7.3-0.5,12.8c0.6,2.7,1.9,5.5,3.8,7.9s4.5,4.4,7.4,5.7c5.8,2.6,12.1,2.5,17.9,1.1c5.9-1.5,10.8-4.6,15.3-7.4
							c2.2-1.4,4.2-2.8,6.1-4c0.7-2,1.2-3.9,1.8-5.9c-3.3,1.4-6.8,3.3-10.4,5.2c-4.5,2.3-9.3,4.6-14.1,5.4s-9.8,0.3-13.4-1.7
							c-3.6-1.9-5.6-5.2-6-8.3c-0.5-3.1,0.1-5.9,0.8-7.8c0.4-1,0.7-1.7,0.8-2.2c0.2-0.5,0.4-0.8,0.4-0.8s0.1-0.3,0.4-0.8
							c0.2-0.5,0.7-1.2,1.1-2.1c1.1-1.8,2.8-4.1,5.7-6.3c2.9-2.3,6.8-4.5,11.3-6.4c4.5-2,9.7-3.8,14.9-6.1c4.7-2.1,9.2-4.6,13.3-7.4
							c-0.1-2.1-0.2-4.1-0.3-6.1C254.4,288.8,249.2,291.3,243.7,293.2z"/>
						
							<radialGradient id="SVGID_26_" cx="-40.4707" cy="224.9298" r="2.6933" gradientTransform="matrix(2.5141 0 0 -2.6666 126.2145 901.4228)" gradientUnits="userSpaceOnUse">
							<stop  offset="7.407410e-03" style="stop-color:#B30058"/>
							<stop  offset="1" style="stop-color:#5C2D7D"/>
						</radialGradient>
						<path class="st27" d="M27.4,306.3c1.1-2,1.1-4.4,0.7-6.2c-0.5-1.9-1.5-3.2-2.3-4.1c-0.6-0.7-0.8-1-0.8-1
							c-0.1-0.1-1.9-1.3-4.3-2.7c0,1.1-0.1,2.2-0.1,3.2c0,5.2,0.3,10.3,0.8,15.3c0.4-0.1,0.8-0.2,1-0.3c0.5-0.2,0.9-0.4,1.3-0.6
							c0.5-0.3,0.9-0.6,1.4-1C26.2,308.3,26.9,307.3,27.4,306.3z"/>
						
							<radialGradient id="SVGID_27_" cx="31.3211" cy="255.3659" r="9.2709" gradientTransform="matrix(2.5141 0 0 -2.6666 126.2145 901.4228)" gradientUnits="userSpaceOnUse">
							<stop  offset="7.407410e-03" style="stop-color:#B30058"/>
							<stop  offset="1" style="stop-color:#5C2D7D"/>
						</radialGradient>
						<path class="st28" d="M191.9,236.8c0.2-0.7,0.5-1.3,0.8-1.8c0.6-1,0.9-1.6,0.9-1.6s1.1-2.5,4.1-6.2c1.4-1.9,3.3-4.1,5.4-6.7
							c2-2.6,4-5.6,5.7-8.6c2.8-5,5.1-10.2,6.7-14.6c-1-0.9-2.2-1.8-3.3-2.7c-2.4,4.1-5.4,8.9-8.8,13.4c-2,2.6-4,5-6,7.2
							c-2.2,2.2-4.1,4.3-5.9,6.1c-1.8,1.9-3.2,3.7-4.2,5c-0.9,1.3-1.5,2.2-1.5,2.2s-0.5,0.9-1.2,2.6c-0.3,0.9-0.8,1.9-1,3.3
							c-0.1,0.3-0.2,0.8-0.3,1.4c-0.1,0.5-0.1,1.1-0.2,1.6c-0.1,1.1,0,2.2,0,3.4c0.2,1.1,0.5,2.2,0.7,3.4c0.1,0.6,0.3,1.2,0.4,1.8
							l0.1,0.2c0,0,0.1,0,0.2,0h0.5h0.8c1.2,0,2.4,0.2,3.7,0.1c1.2-0.1,2.5-0.2,3.8-0.4c3.1-0.4,6.3-1,9.6-1.7
							c13-2.8,25-8.8,24.4-10.1c-0.5-1.2-12.8,2.3-25.5,3.3c-3.1,0.3-6.3,0.4-9.2,0.5c-0.7,0-0.8-0.1-0.9-0.2c-0.1,0,0-0.4,0.1-0.5
							C191.7,237,191.7,237.2,191.9,236.8z"/>
						
							<radialGradient id="SVGID_28_" cx="-33.5504" cy="228.284" r="11.4905" gradientTransform="matrix(2.5141 0 0 -2.6666 126.2145 901.4228)" gradientUnits="userSpaceOnUse">
							<stop  offset="7.407410e-03" style="stop-color:#B30058"/>
							<stop  offset="1" style="stop-color:#5C2D7D"/>
						</radialGradient>
						<path class="st29" d="M24.4,273.1c2.3,5.6,6.2,10.7,10.9,13.2c4.6,2.5,8.8,2.9,11.4,3.1c2.7,0.2,4.1,0.1,4.1,0.1s0.1,0,0.7,0
							l0,0c0,0,0,0,0.1,0l0,0l0,0v0.2l0.1,0.4c0,0.3,0,0.6,0.1,1c0.2,2.6,0,6-1,9.8c-1.9,7.5-7.6,16.1-15.7,20.8
							c-3.6,2.2-7.4,3.7-11.1,4.7c0.4,1.7,0.8,3.4,1.3,5.1c4.1-0.7,8.5-1.9,12.6-4c4.8-2.3,9.3-6,12.8-10.2s6.1-9,7.6-13.6
							c1.6-4.7,2.2-9.1,2.1-12.7c0-0.5,0-0.9,0-1.3c0-0.5-0.1-1-0.1-1.4c-0.1-1.4-0.3-2.6-0.6-3.6c-0.4-2.2-0.8-3.9-0.9-5.1
							c-4,0.3-6.2,0.4-7.4,0.5c-0.8,0-0.9,0-0.9,0s-1.3,0.1-3.5,0.1s-5.1-0.2-8-1.6c-2.8-1.3-5.8-4.3-7.8-8.6
							c-2.2-4.3-3.4-9.6-4.1-15.3v-0.1c-1.6,4.9-2.9,10-4,15.2C23.5,270.6,24,271.9,24.4,273.1z"/>
					</g>
				</g>
				<g>
					<path class="st30" d="M126.8,104.3c-2,0.1-12,3.3-12.7,5.1c-0.8,1.8,2.5,30.5,4.5,34.3c2.1,3.8,12.7,1.5,13.4-1.8
						C132.7,138.7,126.8,104.3,126.8,104.3z"/>
					<path class="st31" d="M114.1,109.3c-0.8,1.8,2.5,30.5,4.5,34.3c0.9,1.8,3.9,2.2,6.7,1.8c0.7-7.3-1.6-34.6-2.2-35.5
						c-0.6-1-1.6-1.4-1.6-1.4C121,108.3,115.4,108.4,114.1,109.3z"/>
					<path class="st32" d="M125,130.9c-1.1,3.7-5,17-9.6,14.6c-3.3-1.7-0.8-10.8,0.8-12.5l0.5,2.8c-0.7,1.3-1.6,6.5-0.4,7.2
						c2.5,1.3,6.2-11.3,7.5-13.4L125,130.9z"/>
					<path class="st33" d="M122.4,109.9c-15.1,6.6-17.9,23.1-19.3,29.5c-0.4,1.8,6,5.4,8-3.1c2-8.4,12-14.5,12-14.5
						c-1.3,1.2,2.2,18,2.9,22.1c-3.9,6.9-6.4,12.5-8.6,19.8c-0.2,0.6-0.7,2.7-1,3.2c-2.3,3.7-0.2,4.3,2.8,5.1
						c1.8,0.5,3.5-1.2,6.2-4.1c0.7-0.7,1.8-1.2,2.5-2.1c3.7-4.4,7.7-10.7,7.9-10.9c1.3-1.5,3.7-1.2,5.8-1c5.7,0.6,7.4,3.5,10.5,7.4
						c3.4,4.5,5.9,12.4,9.7,12.9c3.7,0.4,4.7-2.3,2.1-11s-11.3-18.7-11.3-18.7c3-8.3,2.6-27.9,2.7-26.4c0,0,18.1,2.9,19.2-2
						c0.6-2.3-1.5-5.6-5.3-5.9c-8.9-0.8-10.1-1.5-13.5-2.7c-0.7-0.2-2.4-0.7-2.4-0.7c-0.8-0.6-0.8-1.4-1.2-1.3
						c-2.8,4.4-19.8,4.9-26.6,2.3C123.8,108.1,122.4,109.9,122.4,109.9z"/>
					<path class="st32" d="M149.2,140.4c-0.8,0-6.9,0.5-11.3,0.5c-4.4-0.1-5-0.7-5-0.7l0.2-4.1l14.4-0.1L149.2,140.4z"/>
					<path class="st31" d="M146.8,133.9c0,0-0.5,7.1-0.4,8.1s2.2,2,2.5,2.1c0.3,0.1,4.9-0.4,5.7-1.3c0.8-0.9,1.3-6.4,0.8-7.1
						C155.3,135.6,148,134,146.8,133.9z"/>
					<path class="st30" d="M149,144.1c0.3,0.1,4.9-0.4,5.7-1.3c0.8-0.9,1.3-6.4,0.8-7.1c-0.1-0.1-4.7-1.2-7.2-1.6
						c0.3,0.7,0.8,1.6,0.9,2.5C149.5,138.5,149,144.1,149,144.1z"/>
					<path class="st31" d="M146.8,133.9c0.1,0.7,2.1,1.3,2.3,4.6c1.4,0.9,5,1.7,6.2-0.4c1.2-2.1,0.3-3.7-0.1-4.1
						C154.8,133.5,146.8,133.9,146.8,133.9z"/>
					<path class="st32" d="M143.9,122.7c4.9,0.6,10.1-0.4,11.3-1.1c0,0,0.3,6.6-0.3,6.7c-0.5,0.1-9.5,1.7-10.6,0.7
						C143.4,128,143.9,122.7,143.9,122.7z"/>
					<path class="st32" d="M134.2,123.7c-4.9,1.1-10.3,0.6-11.6,0c0,0-0.2,6.6,0.8,6.8c1.1,0.3,9.1,0.7,10.2-0.4
						C134.6,128.9,134.2,123.7,134.2,123.7z"/>
					<path class="st32" d="M165.4,166.7c-0.1-0.2-0.4-1.9-0.8-1.6c-5.6,3.4-8,3.2-8,3.2c-0.3,0.4,0.3,1.7,0.6,1.9s2.7,0.1,4.7-0.9
						c1.9-1,3.5-2.4,3.5-2.4L165.4,166.7z"/>
					<path class="st32" d="M156.2,112.1c0.3,5-0.9,6.2-0.9,5.9c0.1-1.7,0.3-4.6-0.3-6.7c-0.8-3-2.3-4.5-2.2-4.6
						C153.4,106,155.9,106.3,156.2,112.1z"/>
					<path class="st33" d="M165.1,165.9c0.8,1.9,0.9,8.2,1.6,9.7c8.4-1.8,10.5,5.3,8.9,5.4c-5,0.1-15.7,0-16,0
						c-2,0-0.8-5.4-2.8-11.3C159.6,169.3,163.2,168.6,165.1,165.9z"/>
					<path class="st32" d="M124.1,170c0.4-0.3,1.3-1.6,1.3-2.1c0-0.6-7.5-4.5-7.9-4.2c-0.8,0.5-1.1,2-1.1,2L124.1,170z"/>
					<path class="st33" d="M124.9,168.9c-5.5-1.5-8-4.1-8.4-4.1c-0.1,0-5.8,11.9-6.2,14.2c-0.3,1.5,0.8,1.7,1.2,1.8s9.1,1,9.9-0.1
						s-1.4-3.4-0.5-4.7C121.8,174.7,124.9,169.9,124.9,168.9z"/>
					<path class="st32" d="M121.2,110.5c2.4,0.5,3.5,9.6,1,11.9l0.4,1.6c1.9-2.3,4.1-9-0.2-14.2L121.2,110.5z"/>
					<path class="st30" d="M151.3,104.3c1.1,0.1,2.4,0.4,2.5,2.1c0.2,3.6-5.4,6-11.9,6.7c-8.1,0.8-14.8-0.9-17.8-2.4
						c-1.2-0.6-1.2-1.2-0.9-1.9c0.3-0.7,1.2-1.1,1.5-1.2s24.9-2,25.7-2.5C151.2,104.5,151.3,104.3,151.3,104.3z"/>
					<path class="st33" d="M124.5,107.6c7.4,2,21.3,3.2,27.5-2C156.7,71.5,115.8,75.7,124.5,107.6z"/>
					<path class="st34" d="M140.2,84.5c12.4,0,18.2,23.1,1.3,23.9C122.8,109.3,126.6,84.5,140.2,84.5z"/>
					<path class="st30" d="M126.2,94.1c-1.3-0.1-4.3,0.5-4.9,1.5c-0.5,1-0.2,5.7,0.5,6.4c0.5,0.5,3,0.6,4.5,0.5
						c0.7,0,0.6-0.3,0.7-0.4c0.6-0.4,0.3-7.3-0.1-7.7C126.7,94,126.2,94.1,126.2,94.1z"/>
					<path class="st32" d="M113.8,130c0.5,0.1,0.9,0,1.3-0.4s0.9-1,0.3-2.1c-0.7-1.1-3.9-3.3-5.8-3.7c-2-0.4-2.5,0.1-2.9,0.7
						s-0.5,1.5-0.5,1.5L113.8,130z"/>
					<path class="st33" d="M115.1,129.6c-1.8-2.2-8.4-5.9-9.2-3.3c-1,3.3-3,7.4-3.8,11.5c-0.4,1.8-0.6,7.9,3.6,8.7s3.2-7.6,4.3-7.3
						c1.1,0.2,2.1,5.2,2.7,3.1c0.7-2.2-0.8-4.5-0.7-5.4C112.1,136,113.9,133.4,115.1,129.6z"/>
					<path class="st32" d="M137.4,154c0-0.3-3.7-4-6.2-6.3c-2.5-2.2-4.6-3.8-5.2-3.8c-0.6,0-1.2,1.6-1,1.7
						c5.6,3.5,10.7,9.7,10.7,9.7C136.3,155.3,137,154.4,137.4,154z"/>
					<path class="st32" d="M153.6,145.5c-0.4,3.1-3.9,7.2-7.8,9.5c-0.3,0.2-1.4-0.4-1.3-0.5c0.6-0.6,5.4-2.2,8.1-10
						C152.8,143.9,153.6,145.5,153.6,145.5z"/>
					<path class="st33" d="M116.2,174.7c3.4,0,6.2,2.3,6.2,5.2c0,0.4-0.1,0.9-0.2,1.3h-12c-0.1-0.4-0.2-0.8-0.2-1.3
						C110,177,112.8,174.7,116.2,174.7z"/>
					<path class="st32" d="M168.8,109.9c-0.1,0-0.6,0.2-0.6,0.2s1,1.3,1.1,4.1c0.2,2.7-0.8,4.7-0.8,4.7c0.3,0.3,0.7,0.4,1,0.3
						C171.4,119.2,172.8,110.6,168.8,109.9z"/>
					<path class="st33" d="M168.8,109.9c2,2.1,2,7.4,0.8,9.2c3-0.4,7.5-0.2,11-1.2c1.6-0.4,4.5-2.3,3.4-6.2
						c-1.1-4.1-6.3-3.1-8.2-2.2C175,110,172.3,109.5,168.8,109.9z"/>
					
						<linearGradient id="SVGID_29_" gradientUnits="userSpaceOnUse" x1="166.1961" y1="151.3627" x2="184.5616" y2="151.3627" gradientTransform="matrix(1 0 0 -1 0 258)">
						<stop  offset="0" style="stop-color:#FFFFFF;stop-opacity:0"/>
						<stop  offset="2.973682e-02" style="stop-color:#FDFDFE;stop-opacity:2.973682e-02"/>
						<stop  offset="0.4062" style="stop-color:#E2ECEE;stop-opacity:0.4062"/>
						<stop  offset="0.7416" style="stop-color:#D2E1E5;stop-opacity:0.7416"/>
						<stop  offset="1" style="stop-color:#CCDDE2"/>
					</linearGradient>
					<path class="st35" d="M184.5,180.7c0,0.4-0.3,0.7-0.7,0.7s-0.7-0.3-0.7-0.7c0.4-14.2-1.3-47.4-5.2-81.2
						c-2.8-24.3-6.7-48.8-11.8-66.7c-0.1-0.4,0.1-0.7,0.5-0.9c0.4-0.1,0.7,0.1,0.8,0.5c5.1,18,9.1,42.6,11.8,67
						C183.2,133.1,184.9,166.5,184.5,180.7z"/>
					
						<radialGradient id="SVGID_30_" cx="141.1774" cy="208.0968" r="25.2422" gradientTransform="matrix(0.9428 0 0 -1 11.5288 258)" gradientUnits="userSpaceOnUse">
						<stop  offset="5.925930e-02" style="stop-color:#E47E99"/>
						<stop  offset="0.5259" style="stop-color:#E43D99"/>
						<stop  offset="0.9926" style="stop-color:#B30058"/>
					</radialGradient>
					<path class="st36" d="M172.3,60.1c-4.8,0.3-41.3,6.8-48.8,10.1c-0.5-7.1,3.1-16.1,4.8-16.2c-3.8-3.5-7.5-7-11.2-10.5
						c15.1-10.8,26.4-12.8,48.5-14.2C162.9,37.1,167.7,53.7,172.3,60.1z"/>
					<path class="st30" d="M136.1,114.6l10.2-0.9c0.7-0.1,3.7,0.8,4.1,1.1c1.3,0.8,3.7,16.5-12.6,19.6c-1.8,0.3-5-1.9-5-3.8v-12.2
						C132.8,116.4,134.3,114.7,136.1,114.6z"/>
					<path class="st33" d="M138.7,115.4l10.2-0.9c1.8-0.2,3.2,1.3,3.2,3.2v12.2c0,1.9-1.4,3.6-3.2,3.7l-10.2,0.9
						c-1.8,0.2-3.2-1.3-3.2-3.2v-12.2C135.5,117.3,137,115.6,138.7,115.4z"/>
					<path class="st37" d="M140.2,117.9c1-0.1,1.9,0.7,1.9,1.8c0,1.1-0.8,2-1.9,2.1s-1.9-0.7-1.9-1.8S139.2,118,140.2,117.9z"/>
					<path class="st38" d="M148.7,127.8c0.8-0.1,1.3,0.5,1.3,1.3s-0.6,1.5-1.3,1.6c-0.8,0.1-1.3-0.5-1.3-1.3
						S147.9,127.9,148.7,127.8z"/>
					<path class="st39" d="M145.1,128.2c0.8-0.1,1.3,0.5,1.3,1.3s-0.6,1.5-1.3,1.6s-1.3-0.5-1.3-1.3
						C143.7,129,144.3,128.3,145.1,128.2z"/>
					<path class="st31" d="M134.3,133.6c0,0,0.5,7.1,0.4,8.1s-2.2,2-2.5,2.1s-4.9-0.4-5.7-1.3c-0.8-0.9-1.3-6.4-0.8-7.1
						C125.9,135.3,133.1,133.7,134.3,133.6z"/>
					<path class="st30" d="M132.2,143.9c-0.3,0.1-4.9-0.4-5.7-1.3c-0.8-0.9-1.3-6.4-0.8-7.1c0.1-0.1,4.7-1.2,7.2-1.6
						c-0.3,0.7-0.8,1.6-0.9,2.5C131.6,138.2,132.2,143.9,132.2,143.9z"/>
					<path class="st31" d="M134.3,133.6c-0.1,0.7-2.1,1.3-2.3,4.6c-1.4,0.9-5,1.7-6.2-0.4c-1.2-2.1-0.3-3.7,0.1-4.1
						C126.2,133.2,134.3,133.6,134.3,133.6z"/>
					<path class="st37" d="M140.9,86.2c5,0,9.2,4.7,9.5,10.5c0.2,5.8-3.7,10.5-8.7,10.5c-5,0-9.2-4.7-9.5-10.5
						C131.9,90.9,135.8,86.2,140.9,86.2z"/>
					
						<linearGradient id="SVGID_31_" gradientUnits="userSpaceOnUse" x1="133.9896" y1="165.789" x2="145.8693" y2="165.789" gradientTransform="matrix(1 0 0 -1 0 258)">
						<stop  offset="0" style="stop-color:#FFFFFF;stop-opacity:0"/>
						<stop  offset="2.973682e-02" style="stop-color:#FDFDFE;stop-opacity:2.973682e-02"/>
						<stop  offset="0.4062" style="stop-color:#E2ECEE;stop-opacity:0.4062"/>
						<stop  offset="0.7416" style="stop-color:#D2E1E5;stop-opacity:0.7416"/>
						<stop  offset="1" style="stop-color:#CCDDE2"/>
					</linearGradient>
					<path class="st40" d="M144,92.1c-7.6-2.5-9.5,6.9-10,4c-0.1-2.5,0.1-4.2,1.9-6.1c2.7-3,6.6-2.5,9.4-1.3
						C146.7,89.7,145.4,92.7,144,92.1z"/>
					<path class="st30" d="M109.3,138.7c-1.4,1.2-1.2,4.5-1.7,5.8c-0.1,3.6-4.2,0.7-5.2-1.2c0.5,1.6,0.6,2.9,3.5,3.6
						c2.9,0.6,3.3-4.5,3.8-6.5c0.1-0.5,0.3-0.7,0.6-0.7c0.6,0,1.9,4.9,2.5,2.7s-0.8-4.5-0.7-5.4c0-1,1.8-3.6,3-7.3
						c-0.1-0.1-0.3-0.3-0.4-0.4c-0.6-0.6-1.5-1.3-2.5-1.9c-0.1,0.3-0.3,0.9-0.5,1.6c-0.7,2-1.6,5.3-1.7,5.9c0,0.2,3.2,5.3,2.2,7
						C111.9,142.4,110.7,137.4,109.3,138.7z"/>
					<path class="st30" d="M115.7,128.2c2.5-2.9,5.4-4.9,6.7-5.8c2.3-2.2,1.4-10.4-0.8-11.7c-2.6,1-0.2,9.3-3.3,11.1
						c-1.3,0.8-2.4,1.5-3.2,2.1c-1.4,1-2.2,1.6-2.2,1.6c1.1,0.7,2.2,1.6,2.5,2.1c0.1,0.1,0.2,0.3,0.2,0.4
						C115.6,128,115.6,128.1,115.7,128.2z"/>
					<path class="st30" d="M126,104.4c-0.1-0.6-0.2-1.2-0.2-1.8c-0.7,0-1.5,0-2.2-0.1c0.1,0.8,0.2,1.6,0.4,2.4
						c0.2,0.9,0.4,1.8,0.7,2.7c0.3,0.1,0.7,0.2,0.9,0.2c0.4,0.1,0.8,0.2,1.1,0.3c-0.1-0.2-0.1-0.5-0.2-0.7
						C126.2,106.4,126.1,105.4,126,104.4z"/>
					<path class="st30" d="M126.4,94.1c2.5-8.7,10-12.6,16.8-11.2c-7.5-3.3-17.2,0.9-19.4,11.5c0.8-0.2,1.8-0.3,2.5-0.3
						C126.2,94.1,126.2,94.1,126.4,94.1z"/>
					<path class="st30" d="M113.7,175.1c-1.2,0.5-2.3,1.2-2.9,2.2c-0.5,0.8-0.8,1.6-0.8,2.6c0,0.4,0.1,0.9,0.2,1.3h1.1
						c0-0.1,0.1-0.2,0.1-0.4c0.5-1.2,1.2-2.8,2.2-3.7c1.8-1.6,6.1-1,6.6-1c-0.2-0.1-0.3-0.2-0.5-0.3c-0.7-0.2-1.8-0.5-3.2-0.7
						c-1-0.1-1.8-0.1-2.2-0.1C114.2,175,113.9,175,113.7,175.1z"/>
					<path class="st30" d="M110.8,177.3c0.7-1,1.7-1.7,2.9-2.2c0.7-3,3.3-5.7,5.2-8c0.2-0.2,0.4-0.4,0.5-0.6
						c-1.1-0.6-1.9-1.2-2.4-1.5c-0.2-0.1-0.3-0.2-0.4-0.2s-0.1,0-0.1,0C116.4,164.8,112.3,173.3,110.8,177.3z"/>
					<path class="st30" d="M149.2,152.5c-1,1-2.3,1.8-3.5,2.5c2.7,1.3,4.2,3.5,6.4,6.3c1.5,2,2.9,4.7,4.2,7.1c0,0,1.3,0.1,4.1-1.2
						c0,0-0.8-3.2-3.9-6.5C154,157.6,149.8,153.1,149.2,152.5z"/>
					<path class="st30" d="M157.3,169.7c-0.2,0-0.4,0.1-0.5,0.1c2,5.8,0.8,11.2,2.8,11.3c0.3,0,11,0,16,0c0.4,0,0.6-0.5,0.5-1.2
						l-11.4-0.3c0,0,0.6-2.6,1.2-3.1c0.7-0.5-3.3,1.4-3.3,1.4s-1.6,0.6-2.1-3.1c-0.1-0.4-0.1-0.7-0.1-1.1c-0.1-1.3-0.1-2.6-0.1-3.7
						c0-0.4,0-0.7,0.1-1C159.3,169.3,158.2,169.5,157.3,169.7z"/>
					<path class="st30" d="M124.5,168.8c-0.2-0.1-0.5-0.1-0.7-0.2l-0.3,1.1v0.1l-1,3.8c1.1-1.9,2.5-4.1,2.5-4.7
						C124.8,168.8,124.7,168.8,124.5,168.8z"/>
					<path class="st30" d="M124.5,167.1c0.6,0.4,0.9,0.7,0.9,0.8c0.7-0.7,1.8-1.2,2.5-2.1c3.2-3.8,6.7-9,7.6-10.5
						c0,0-0.8-0.9-2.1-2.3c-0.8,2.1-2,4.8-3.7,7.3C127.5,163.9,125.2,166.4,124.5,167.1z"/>
					<path class="st32" d="M155.4,118c0,0.3,1.2-0.9,0.9-5.9c0-0.2,0-0.4,0-0.6c0-0.1-1-2.5-2.6-3.8
						C155.4,111.9,155.7,113.2,155.4,118z"/>
					<path class="st30" d="M181.1,116.1c0.1,0.6,0.1,1.1,0.2,1.7c1.6-0.7,3.8-2.5,2.8-6c-0.3,1.1-1.1,3.3-2.4,4
						C181.5,115.9,181.3,116,181.1,116.1z"/>
					<path class="st30" d="M180,118.2c-0.1-0.6-0.1-1.1-0.2-1.7c-2,0.4-4.4,0.4-5.4,0.4c-0.1,0-0.2,0-0.3,0c-0.8,0-2-0.1-3-0.2
						c-0.3,0-0.6,0-0.8-0.1c-0.1,0.8-0.3,1.5-0.6,2.1c-0.1,0.2-0.2,0.3-0.3,0.4h0.1c0.1,0,0.1,0,0.2,0
						C172.6,118.7,176.6,118.9,180,118.2z"/>
					<path class="st30" d="M168.7,118.8c0,0,0.5-0.9,0.7-2.3c0,0-9.1-0.3-10.7-1c-0.8-0.4-1.7-2.2-2.4-3.9c0.2,2.2,0.1,4.5-0.9,6.5
						C155.3,118.1,163,119.3,168.7,118.8z"/>
					<path class="st30" d="M146.4,117.2L146.4,117.2c0.4,0,0.6,0.3,0.6,0.6v4c0,0.4-0.3,0.7-0.6,0.7l0,0c-0.4,0-0.6-0.3-0.6-0.6v-4
						C145.9,117.6,146.1,117.3,146.4,117.2z"/>
					<path class="st30" d="M148.1,117.1L148.1,117.1c0.4,0,0.6,0.3,0.6,0.6v4c0,0.4-0.3,0.7-0.6,0.7l0,0c-0.4,0-0.6-0.3-0.6-0.6v-4
						C147.5,117.4,147.7,117.1,148.1,117.1z"/>
					<path class="st30" d="M149.7,117L149.7,117c0.4,0,0.6,0.3,0.6,0.6v4c0,0.4-0.3,0.7-0.6,0.7l0,0c-0.4,0-0.6-0.3-0.6-0.6v-4
						C149.2,117.3,149.4,117,149.7,117z"/>
					<path class="st32" d="M127.6,136.8c0.3,0,0.5,0.3,0.6,0.7c0,0.4-0.2,0.7-0.4,0.7c-0.3,0-0.5-0.3-0.6-0.7
						S127.3,136.8,127.6,136.8z"/>
					<path class="st32" d="M153.4,137.4c-0.3,0-0.5,0.3-0.6,0.7c0,0.4,0.2,0.7,0.4,0.7c0.3,0,0.5-0.3,0.6-0.7
						C153.8,137.7,153.6,137.4,153.4,137.4z"/>
				</g>
			</g>
		</g>
	</g>
	<g>
		<path class="st5" d="M74.6,7.9l40.1,12.3c1.1,0.3,1.7,1.4,1.3,2.5c-0.3,1.1-1.4,1.7-2.5,1.3c-0.1,0-0.1,0-0.2-0.1L74.5,8.1
			c-0.1,0-0.1-0.1-0.1-0.1C74.5,7.9,74.5,7.9,74.6,7.9z"/>
	</g>
	<path class="st5" d="M136.7,39.3c0.5,0.9,1,1.8,1.5,2.8l0,0c-2.8-1.8-5.5-3.6-8.3-5.5l0,0c2.2,3.4,4.3,6.8,6.5,10.2l0,0
		c-0.9-0.3-1.8-0.7-2.8-1c0.1,0.2,0.2,0.3,0.2,0.4c0.6,1.2,1.3,2.3,1.9,3.5c0.9,1.5,1.8,3,2.8,4.5c0.7,1,1.4,2,2.2,3
		c0.5,0.6,0.9,1.1,1.5,1.6c1,0.9,2.2,1.5,3.6,1.7c1.5,0.2,2.9,0,4.2-0.7c2-1,3.2-2.6,3.6-4.8c0.4-2.2-0.1-4.2-1.5-5.9
		c-0.5-0.6-1.2-1.2-1.9-1.7c-1.2-0.9-2.4-1.8-3.7-2.5c-1.1-0.7-2.2-1.4-3.3-2c-1.5-0.8-2.9-1.7-4.4-2.5
		C138.1,40,137.5,39.6,136.7,39.3C136.8,39.3,136.8,39.3,136.7,39.3L136.7,39.3z M141.1,50.6c-1.5-2.4-3.1-4.9-4.6-7.3l0,0
		c2.4,1.6,4.8,3.2,7.2,4.8l0,0c-0.3-0.6-0.7-1.3-1-1.9c-0.3-0.6-0.7-1.3-1-1.9c0,0,0,0,0.1,0c1.1,0.6,2.1,1.2,3.1,1.9
		c1.4,0.9,2.9,1.9,4.2,2.9c0.4,0.3,0.8,0.7,1.3,1.1c0.1,0.1,0.2,0.2,0.3,0.4c1,1.2,1.3,2.6,1,4.1c-0.3,1.6-1.3,2.8-2.7,3.5
		c-1.6,0.8-3.1,0.7-4.7-0.1c-0.6-0.3-1-0.8-1.5-1.2c-0.7-0.8-1.3-1.6-1.9-2.5c-1-1.4-2-2.9-2.8-4.4c-0.1-0.1-0.1-0.2-0.2-0.3l0,0
		C139,49.8,140,50.2,141.1,50.6z"/>
	<path class="st41" d="M149.9,52.1C149.9,52.1,149.8,52,149.9,52.1c-0.1-0.1-0.1-0.1-0.2-0.1h-0.1l0,0l0,0l-0.2,0.2l0,0l-2.1,1.6
		l-2.2-1.6l-0.2-0.2h-0.1c-0.2,0-0.4,0.2-0.4,0.4v0.2v3.1v0.1c0,0.2,0.2,0.3,0.4,0.3h0.3v-3l1.6,1.2l0.5,0.4l0.1,0.1l0.6-0.4
		l1.5-1.1v3h0.3c0.2,0,0.3-0.1,0.4-0.3v-0.1v-3.1v-0.3C150,52.2,149.9,52.2,149.9,52.1z"/>
</g>
</svg>
