<?xml version="1.0" encoding="utf-8"?>
<svg version="1.1" id="Calque_1" xmlns="http://www.w3.org/2000/svg" xmlns:xlink="http://www.w3.org/1999/xlink" x="0px" y="0px"
	 viewBox="0 0 289.9 256" style="enable-background:new 0 0 289.9 256;" xml:space="preserve">
<style type="text/css">
	.st0{display:none;opacity:0.22;clip-path:url(#SVGID_2_);fill:url(#SVGID_3_);}
	.st1{opacity:0.35;clip-path:url(#SVGID_2_);}
	.st2{opacity:0.35;}
	.st3{opacity:0.79;clip-path:url(#SVGID_5_);}
	.st4{clip-path:url(#SVGID_2_);}
	.st5{fill:#FFFFFF;}
	.st6{fill:#F4257A;}
	.st7{display:none;}
	.st8{display:inline;fill:#F4257A;}
	.st9{display:inline;fill:url(#SVGID_6_);}
	.st10{display:inline;}
	.st11{fill:#E3AD27;}
	.st12{opacity:0.5;fill:url(#SVGID_7_);}
	.st13{fill:url(#SVGID_8_);}
	.st14{opacity:0.3;fill:url(#SVGID_9_);}
	.st15{opacity:0.4;fill:url(#SVGID_10_);}
	.st16{opacity:0.4;fill:url(#SVGID_11_);}
	.st17{opacity:0.2;}
	.st18{fill:url(#SVGID_12_);}
	.st19{fill:url(#SVGID_13_);}
	.st20{fill:url(#SVGID_14_);}
	.st21{fill:url(#SVGID_15_);}
	.st22{fill:url(#SVGID_16_);}
	.st23{fill:url(#SVGID_17_);}
	.st24{fill:url(#SVGID_18_);}
	.st25{fill:url(#SVGID_19_);}
	.st26{fill:url(#SVGID_20_);}
	.st27{fill:url(#SVGID_21_);}
	.st28{fill:url(#SVGID_22_);}
	.st29{fill:url(#SVGID_23_);}
	.st30{fill-rule:evenodd;clip-rule:evenodd;fill:#C4D6D3;}
	.st31{fill-rule:evenodd;clip-rule:evenodd;fill:#8DA2A3;}
	.st32{fill-rule:evenodd;clip-rule:evenodd;fill:#333333;}
	.st33{fill-rule:evenodd;clip-rule:evenodd;fill:#FFFFFF;}
	.st34{fill-rule:evenodd;clip-rule:evenodd;fill:#06223D;}
	.st35{fill-rule:evenodd;clip-rule:evenodd;fill:url(#SVGID_24_);}
	.st36{opacity:0.3;fill-rule:evenodd;clip-rule:evenodd;fill:url(#SVGID_25_);}
	.st37{fill-rule:evenodd;clip-rule:evenodd;fill:#0B2D49;}
	.st38{fill-rule:evenodd;clip-rule:evenodd;fill:#D24A47;}
	.st39{fill-rule:evenodd;clip-rule:evenodd;fill:#2790D6;}
	.st40{fill-rule:evenodd;clip-rule:evenodd;fill:url(#SVGID_26_);}
	.st41{opacity:0.92;fill:#FFFFFF;}
</style>
<g>
	<g>
		<defs>
			<path id="SVGID_1_" d="M172.2,2.5c32.2,4.9,61.8,17.3,83.2,39c27.5,27.8,41.5,69.4,31.1,108.1c-17,63.3-86.8,100.8-148,105.8
				c-37.4,3.1-87.5-4.9-96-49.2c-2.9-14.8,1.4-30.4,0.7-45.5c-0.8-16.6-9.7-28.2-20.3-40.3C6.5,101.9-7,78.1,3.9,53
				c10-23.1,35.1-35,57.9-41.8C97.2,0.7,136.4-2.9,172.2,2.5z"/>
		</defs>
		<use xlink:href="#SVGID_1_"  style="overflow:visible;fill:#01145F;"/>
		<clipPath id="SVGID_2_">
			<use xlink:href="#SVGID_1_"  style="overflow:visible;"/>
		</clipPath>
		<radialGradient id="SVGID_3_" cx="137.6201" cy="126.9423" r="141.5329" gradientUnits="userSpaceOnUse">
			<stop  offset="0" style="stop-color:#FFFFFF;stop-opacity:0"/>
			<stop  offset="1" style="stop-color:#29ABE2"/>
		</radialGradient>
		<path class="st0" d="M168-1.1c33.3,4.9,63.9,17.4,86,39.4c28.4,28.3,42.6,70.5,31.8,110c-17.8,64.5-90.3,103-153.6,108.4
			C93.4,260,41.7,252.1,33,207c-3.3-17.1,2.7-33,1.7-49.9c-0.8-14.8-12.2-26.8-21.8-37.5c-8.8-9.9-17.9-19.8-23.1-32
			c-18.3-43,29.5-69.2,63.9-79.5C90.4-2.7,131-6.5,168-1.1z"/>
		<g class="st1">
			<defs>
				<path id="SVGID_4_" class="st2" d="M308.2,52.1c0.5-29.8-11.6-57.9-30.3-75.2c-20.1-18.6-47.3-22.7-70.7-13.2
					c-12.9,5.3-24.4,15.6-36.8,22.5c-23.5,13.1-47.8,9.6-72.7,9.1C65.1-5.2,29.1,6.1,5.8,37.5c-23.9,32.3-28.9,85.2-19,126.8
					c7.6,32,24.5,54.9,46.5,71.6c25.3,19.2,54.4,28.7,81.9,41c27.8,12.4,56.5,24.4,86.3,23c12.9-0.6,25.1-4.2,36.7-11.9
					c34.1-22.7,46.1-63.9,48.1-111.1c0.7-17.6,3.2-34,7.2-50.8C299.3,102.1,307.8,77.6,308.2,52.1z"/>
			</defs>
			<clipPath id="SVGID_5_">
				<use xlink:href="#SVGID_4_"  style="overflow:visible;"/>
			</clipPath>
			<g class="st3">
				
					<image style="overflow:visible;" width="408" height="474" xlink:href="171967905081A1D0.png"  transform="matrix(1 0 0 1 -28.0441 -67.4052)">
				</image>
			</g>
		</g>
		<g class="st4">
			<g>
				<circle class="st5" cx="58.6" cy="54.1" r="1.7"/>
				<circle class="st5" cx="45.2" cy="13.3" r="1.7"/>
				<circle class="st5" cx="16" cy="65.1" r="1.7"/>
				<circle class="st5" cx="265.9" cy="30.7" r="1.7"/>
				<circle class="st5" cx="17.7" cy="-1.6" r="1.7"/>
				<circle class="st5" cx="58.5" cy="161.6" r="1.7"/>
				<circle class="st5" cx="249.6" cy="135.4" r="1.7"/>
				<circle class="st5" cx="255.4" cy="190.7" r="1.7"/>
				<circle class="st5" cx="2.3" cy="125.7" r="1.7"/>
				<circle class="st5" cx="35.1" cy="110.1" r="1.7"/>
				<circle class="st5" cx="16.5" cy="168.2" r="1.7"/>
				<circle class="st5" cx="275.9" cy="60.3" r="1.7"/>
				<circle class="st5" cx="39.8" cy="154.1" r="1.7"/>
				<circle class="st5" cx="267.6" cy="86.8" r="1.7"/>
				<circle class="st6" cx="203.3" cy="27.3" r="1.7"/>
				<circle class="st5" cx="64.3" cy="131.8" r="1.7"/>
				<circle class="st5" cx="25.4" cy="40.9" r="0.6"/>
				<circle class="st5" cx="45.2" cy="71.1" r="0.6"/>
				<circle class="st5" cx="244.7" cy="52.6" r="0.6"/>
				<circle class="st5" cx="244.7" cy="25" r="0.6"/>
				<circle class="st5" cx="197.3" cy="15.5" r="0.6"/>
				<circle class="st5" cx="278.2" cy="44.3" r="0.6"/>
				<circle class="st5" cx="282.3" cy="21.8" r="0.6"/>
				<circle class="st5" cx="257.3" cy="120" r="0.6"/>
				<circle class="st5" cx="140.7" cy="179.9" r="0.6"/>
				<circle class="st5" cx="17.1" cy="149.8" r="0.6"/>
				<circle class="st5" cx="34.5" cy="82.9" r="0.6"/>
				<circle class="st5" cx="12.8" cy="188.4" r="0.6"/>
				<circle class="st5" cx="236.2" cy="148.7" r="0.6"/>
				<circle class="st5" cx="58.2" cy="143.7" r="0.6"/>
				<circle class="st5" cx="277.6" cy="205.8" r="0.6"/>
				<circle class="st5" cx="14" cy="25.7" r="0.6"/>
				<circle class="st5" cx="-1.1" cy="0.1" r="0.6"/>
				<circle class="st5" cx="1.2" cy="84" r="0.6"/>
				<circle class="st5" cx="58.1" cy="18.4" r="0.6"/>
				<g>
					<path class="st5" d="M42.7,39.9c-0.5,1.1-1.3,2-2.3,2.5c-0.4,0.2-0.4,0.7,0,0.8c1.1,0.5,1.9,1.4,2.3,2.5c0.2,0.4,0.7,0.4,0.9,0
						c0.5-1.1,1.3-2,2.3-2.5c0.4-0.2,0.4-0.7,0-0.8c-1.1-0.5-1.9-1.4-2.3-2.5C43.4,39.6,42.9,39.6,42.7,39.9z"/>
				</g>
				<g>
					<path class="st5" d="M3.8,151.2c-0.5,1.1-1.3,2-2.3,2.5c-0.4,0.2-0.4,0.7,0,0.8c1.1,0.5,1.9,1.4,2.3,2.5c0.2,0.4,0.7,0.4,0.9,0
						c0.5-1.1,1.3-2,2.3-2.5c0.4-0.2,0.4-0.7,0-0.8c-1.1-0.5-1.9-1.4-2.3-2.5C4.5,150.9,4,150.9,3.8,151.2z"/>
				</g>
				<g>
					<path class="st6" d="M83.9,18.7c-0.5,1.1-1.3,2-2.3,2.5c-0.4,0.2-0.4,0.7,0,0.8c1.1,0.5,1.9,1.4,2.3,2.5c0.2,0.4,0.7,0.4,0.9,0
						c0.5-1.1,1.3-2,2.3-2.5c0.4-0.2,0.4-0.7,0-0.8c-1.1-0.5-1.9-1.4-2.3-2.5C84.6,18.3,84.1,18.3,83.9,18.7z"/>
				</g>
				<circle class="st5" cx="93.1" cy="0.9" r="1.7"/>
				<circle class="st5" cx="155.7" cy="12" r="1.7"/>
				<circle class="st6" cx="194.9" cy="5.3" r="1.7"/>
				<circle class="st5" cx="59.8" cy="0" r="0.6"/>
				<circle class="st5" cx="80.4" cy="1.5" r="0.6"/>
				<circle class="st5" cx="179.3" cy="19.8" r="0.6"/>
				<g>
					<path class="st6" d="M277.7,104c-0.5,1.1-1.3,2-2.3,2.5c-0.4,0.2-0.4,0.7,0,0.8c1.1,0.5,1.9,1.4,2.3,2.5c0.2,0.4,0.7,0.4,0.9,0
						c0.5-1.1,1.3-2,2.3-2.5c0.4-0.2,0.4-0.7,0-0.8c-1.1-0.5-1.9-1.4-2.3-2.5C278.4,103.6,277.9,103.6,277.7,104z"/>
				</g>
				<g>
					<path class="st6" d="M20.7,73.8c-0.6,1.4-1.8,2.7-3.2,3.4c-0.5,0.2-0.5,0.9,0,1.2c1.4,0.7,2.5,1.9,3.2,3.4c0.2,0.5,1,0.5,1.2,0
						c0.6-1.4,1.8-2.7,3.2-3.4c0.5-0.2,0.5-0.9,0-1.2c-1.4-0.7-2.5-1.9-3.2-3.4C21.6,73.3,20.9,73.3,20.7,73.8z"/>
				</g>
			</g>
			<g class="st7">
				<circle class="st8" cx="147.4" cy="310.5" r="138.5"/>
				
					<radialGradient id="SVGID_6_" cx="167.8553" cy="465.5425" r="58.8298" gradientTransform="matrix(3.6184 2.1894 -2.1894 3.6184 588.1149 -1818.4933)" gradientUnits="userSpaceOnUse">
					<stop  offset="3.703700e-03" style="stop-color:#E38427"/>
					<stop  offset="0.9185" style="stop-color:#FFE245"/>
				</radialGradient>
				<path class="st9" d="M275.7,258.4c-2.7,15.5-8.2,30.7-16.8,45c-37.2,61.4-117.1,81.1-178.5,43.9c-33.8-20.4-54.9-53.8-60.9-89.9
					C-6.4,319.5,16.3,393,75.7,428.9c65.4,39.6,150.6,18.6,190.2-46.8C289.4,343.3,291.5,297.5,275.7,258.4z"/>
				<g class="st10">
					<g>
						<path class="st11" d="M142.7,295.2c0.1,0.2,0.2,0.5,0.2,0.7c1.2,3.7,4.4,6.9,8.6,6.8c4.1-0.1,7.4-2.6,8.8-6.5
							c0.2-0.7,0.3-1.6,0.3-2.3c0.3-3.5-2.3-6.9-5.4-8.3c-3-1.3-7.4-1-9.7,1.6c-0.2,0.2-0.4,0.5-0.6,0.7
							C143.1,289.9,141.8,292.6,142.7,295.2L142.7,295.2z"/>
					</g>
				</g>
				<g class="st10">
					<g>
						<path class="st11" d="M188.7,285c-0.3-0.1-0.5-0.1-0.8-0.2c-2.6-0.6-5.6,0.3-6.9,2.7c-1.4,2.5-1,5.3,0.8,7.4
							c0.2,0.2,0.3,0.4,0.5,0.6c2.7,3.2,8.1,2.3,10.2-1.1C194.5,291.2,192.8,285.9,188.7,285L188.7,285z"/>
					</g>
				</g>
				<g class="st10">
					<g>
						<path class="st11" d="M216.3,254.5c13.2,8,25.7-12.5,12.4-20.6C215.5,225.9,203,246.5,216.3,254.5L216.3,254.5z"/>
					</g>
				</g>
				<g class="st10">
					<g>
						<path class="st11" d="M227.2,300.2c4.4,2.6,8.5-4.1,4.1-6.8C226.9,290.8,222.8,297.6,227.2,300.2L227.2,300.2z"/>
					</g>
				</g>
				<g class="st10">
					<g>
						<path class="st11" d="M108.5,279.2c4.3,2.6,10.7,1.3,13.1-3.2c2.5-4.6,1.4-10.4-3.2-13.1c-4.3-2.6-10.7-1.3-13.1,3.2
							C102.8,270.7,103.9,276.5,108.5,279.2L108.5,279.2z"/>
					</g>
				</g>
				<g class="st10">
					<g>
						<path class="st11" d="M173,340.1c5.6,3.4,10.8-5.3,5.2-8.6C172.7,328.1,167.5,336.8,173,340.1L173,340.1z"/>
					</g>
				</g>
				<g class="st10">
					<g>
						<path class="st11" d="M196.9,331.3c5.1,3.1,9.9-4.8,4.8-7.9C196.6,320.2,191.8,328.2,196.9,331.3L196.9,331.3z"/>
					</g>
				</g>
				<g class="st10">
					<g>
						<path class="st11" d="M194.5,264.5c5.4,3.3,10.5-5.1,5.1-8.4C194.2,252.8,189.1,261.2,194.5,264.5L194.5,264.5z"/>
					</g>
				</g>
				<g class="st10">
					<g>
						<path class="st11" d="M42,320.7c4.4,2.7,11,1.3,13.5-3.3c2.6-4.7,1.4-10.7-3.3-13.5c-4.4-2.7-11-1.3-13.5,3.3
							C36.2,311.9,37.3,317.8,42,320.7L42,320.7z"/>
					</g>
				</g>
				<g class="st10">
					<g>
						<path class="st11" d="M75.9,382.7c1.5,0.9,2.9-1.4,1.4-2.3C75.8,379.4,74.4,381.8,75.9,382.7L75.9,382.7z"/>
					</g>
				</g>
				<g class="st10">
					<g>
						<path class="st11" d="M102.9,380.5c5.6,3.4,10.8-5.3,5.2-8.6C102.6,368.5,97.3,377.1,102.9,380.5L102.9,380.5z"/>
					</g>
				</g>
				<g class="st10">
					<g>
						<path class="st11" d="M106.3,417.4c10.2,6.2,19.9-9.7,9.6-15.9C105.7,395.4,96,411.2,106.3,417.4L106.3,417.4z"/>
					</g>
				</g>
				<g class="st10">
					<g>
						<path class="st11" d="M63.4,377.3c0-0.2,0.1-0.5,0.1-0.7c0.5-3.7-4.7-6.9-7.8-4.7c-0.2,0.1-0.4,0.3-0.6,0.4
							c-1.7,1.2-2.9,2.7-2.9,4.8c0,2,1,3.9,2.7,4.9c1.7,1,3.8,1.1,5.6,0.1C62.4,381.1,63.1,379.4,63.4,377.3L63.4,377.3z"/>
					</g>
				</g>
				<g class="st10">
					<g>
						<path class="st11" d="M199,382.2c3.1,1.8,7.6,0.9,9.4-2.3c1.8-3.3,1-7.4-2.3-9.4c-3.1-1.8-7.6-0.9-9.4,2.3
							C194.9,376,195.7,380.2,199,382.2L199,382.2z"/>
					</g>
				</g>
				<g class="st10">
					<g>
						<path class="st11" d="M220.4,391.6c0.2,0.1,0.3-0.2,0.2-0.2C220.4,391.3,220.2,391.5,220.4,391.6L220.4,391.6z"/>
					</g>
				</g>
				<g class="st10">
					<g>
						<path class="st11" d="M243.7,322.4c5.1,3.1,9.9-4.8,4.8-7.9C243.4,311.4,238.6,319.3,243.7,322.4L243.7,322.4z"/>
					</g>
				</g>
				<g class="st10">
					<g>
						<path class="st11" d="M231.1,397.5c7.7,4.6,14.9-7.3,7.2-11.9C230.7,380.9,223.4,392.8,231.1,397.5L231.1,397.5z"/>
					</g>
				</g>
				<g class="st10">
					<g>
						<path class="st11" d="M199.9,325.2c-16.5,27.3-7.8,62.8,19.5,79.3c6.9,4.2,14.4,6.7,21.9,7.8c9.4-8.6,17.7-18.7,24.6-30.1
							c13.6-22.4,20-47.1,20-71.6c-2.1-1.7-4.3-3.4-6.7-4.9C251.9,289.2,216.4,297.9,199.9,325.2z"/>
						<path class="st11" d="M274.1,254.6c-6.1-13.8-14.4-26.7-24.9-38c-1.8,1.6-3.5,3.4-4.8,5.6c-6.6,10.8-3.1,24.9,7.7,31.5
							C259,257.8,267.3,257.9,274.1,254.6z"/>
						<path class="st11" d="M75.7,428.9c5.7,3.5,11.6,6.5,17.7,9c5.3-4,10-9,13.7-15.1c15.3-25.3,7.2-58.1-18.1-73.4
							c-23.5-14.2-53.6-8.2-70,13C29.9,389.2,49.1,412.8,75.7,428.9z"/>
						<path class="st11" d="M19.3,257.7c-5.1,12.5-8.3,25.4-9.7,38.3c6.2-0.8,12-4.3,15.5-10.1C31,276.4,28.3,264.1,19.3,257.7z"/>
						<path class="st11" d="M168.5,431.2c-12.4-7.5-28.6-3.5-36.1,8.9c-1.5,2.4-2.5,5-3.1,7.6c17,2.2,34.1,1.3,50.5-2.6
							C177.8,439.5,173.9,434.5,168.5,431.2z"/>
						<circle class="st11" cx="167.6" cy="390" r="21.2"/>
					</g>
				</g>
			</g>
			<g>
				
					<radialGradient id="SVGID_7_" cx="114.8959" cy="197.6869" r="59.4551" gradientTransform="matrix(2.6666 0 0 2.6666 -160.7152 -231.5422)" gradientUnits="userSpaceOnUse">
					<stop  offset="2.222220e-02" style="stop-color:#E43D99"/>
					<stop  offset="0.4741" style="stop-color:#E43D99"/>
					<stop  offset="0.837" style="stop-color:#E44099;stop-opacity:0.5"/>
					<stop  offset="1" style="stop-color:#E47E99;stop-opacity:0"/>
				</radialGradient>
				<circle class="st12" cx="145.7" cy="295.6" r="158.5"/>
				
					<radialGradient id="SVGID_8_" cx="98.2806" cy="161.8907" r="100.5362" gradientTransform="matrix(2.6666 0 0 2.6666 -160.7152 -231.5422)" gradientUnits="userSpaceOnUse">
					<stop  offset="5.925930e-02" style="stop-color:#E47E99"/>
					<stop  offset="0.5259" style="stop-color:#E43D99"/>
					<stop  offset="0.9926" style="stop-color:#B30058"/>
				</radialGradient>
				<circle class="st13" cx="145.7" cy="295.6" r="126.7"/>
				
					<radialGradient id="SVGID_9_" cx="92.9783" cy="161.1092" r="90.0486" gradientTransform="matrix(2.6666 0 0 2.6666 -160.7152 -231.5422)" gradientUnits="userSpaceOnUse">
					<stop  offset="5.925930e-02" style="stop-color:#E47E99"/>
					<stop  offset="0.5259" style="stop-color:#E43D99"/>
					<stop  offset="0.9926" style="stop-color:#B30058"/>
				</radialGradient>
				<path class="st14" d="M39,309.9c0-70,56.7-126.7,126.7-126.7c23,0,44.6,6.2,63.2,16.9c-22.3-19.4-51.3-31.2-83.2-31.2
					c-70,0-126.7,56.7-126.7,126.7c0,46.9,25.6,87.9,63.5,109.8C55.8,382.2,39,348,39,309.9z"/>
				
					<radialGradient id="SVGID_10_" cx="120.8361" cy="203.0557" r="83.3521" gradientTransform="matrix(2.6666 0 0 2.6666 -160.7152 -231.5422)" gradientUnits="userSpaceOnUse">
					<stop  offset="7.407410e-03" style="stop-color:#B30058"/>
					<stop  offset="1" style="stop-color:#5C2D7D"/>
				</radialGradient>
				<path class="st15" d="M245.5,217.7c2.1,9.2,3.3,18.9,3.3,28.8c0,70-56.7,126.7-126.7,126.7c-40.6,0-76.7-19.1-99.9-48.8
					c13,56.1,63.3,97.9,123.4,97.9c70,0,126.7-56.7,126.7-126.7C272.4,266.2,262.3,239.2,245.5,217.7z"/>
				
					<radialGradient id="SVGID_11_" cx="199.7187" cy="58.5748" r="83.3556" gradientTransform="matrix(1.7144 2.0424 -2.0424 1.7144 -77.9704 -193.0375)" gradientUnits="userSpaceOnUse">
					<stop  offset="7.407410e-03" style="stop-color:#B30058"/>
					<stop  offset="1" style="stop-color:#5C2D7D"/>
				</radialGradient>
				<path class="st16" d="M269.4,320.4c-5.7,7.6-12.3,14.7-19.9,21c-53.6,45-133.5,38-178.5-15.6C45,294.7,36.4,254.8,44.2,218
					C9.6,264,9.9,329.4,48.5,375.4C93.5,429,173.4,436,227,391C249.5,372.1,263.8,347,269.4,320.4z"/>
				<g class="st17">
					
						<radialGradient id="SVGID_12_" cx="96.9498" cy="163.1791" r="18.0848" gradientTransform="matrix(2.6666 0 0 2.6666 -160.7152 -231.5422)" gradientUnits="userSpaceOnUse">
						<stop  offset="7.407410e-03" style="stop-color:#B30058"/>
						<stop  offset="1" style="stop-color:#5C2D7D"/>
					</radialGradient>
					<path class="st18" d="M60.4,237.3c6.5,1.2,13.5,1,20.5,0.2c6.9-0.9,13.7-2.8,19.8-5.3c6.1-2.5,11.5-5.6,15.8-8.7
						c2.2-1.5,4-3.1,5.7-4.5c0.8-0.7,1.6-1.3,2.3-1.9c0.7-0.6,1.3-1.2,1.8-1.8c2.2-2.2,3.4-3.4,3.4-3.4s0.3-0.3,0.8-1
						c0.5-0.6,1.3-1.6,2.2-2.8c1-1.2,2.1-2.6,3.3-4.4c1.2-1.7,2.7-3.6,4-5.8c5.1-7.7,10.8-18.2,16.5-28.7c-2.7-0.2-5.4-0.4-8.2-0.4
						c-5.7,9.1-11,17.7-15.7,24c-1.4,2-2.8,3.7-4,5.3c-1.2,1.6-2.3,2.9-3.2,3.9c-0.9,1-1.6,1.9-2.1,2.4c-0.5,0.6-0.8,0.8-0.8,0.8
						s-1.1,1.2-3,3.2c-0.5,0.5-1,1.1-1.6,1.7c-0.6,0.6-1.3,1.2-2,1.8c-1.4,1.3-3,2.8-4.8,4.2c-7.3,5.9-18.8,11.9-31.4,14.3
						c-6.3,1.2-12.7,1.8-18.6,1.2c-5.9-0.5-11.4-2.1-15.6-4.2c-1.9-0.9-3.5-2-4.9-3.1c-0.6,0.8-1.1,1.7-1.7,2.6
						c1.3,1.3,2.8,2.6,4.6,3.8C48.1,234,53.9,236.2,60.4,237.3z"/>
					
						<radialGradient id="SVGID_13_" cx="98.9749" cy="158.1855" r="9.9253" gradientTransform="matrix(2.6666 0 0 2.6666 -160.7152 -231.5422)" gradientUnits="userSpaceOnUse">
						<stop  offset="7.407410e-03" style="stop-color:#B30058"/>
						<stop  offset="1" style="stop-color:#5C2D7D"/>
					</radialGradient>
					<path class="st19" d="M73.1,199.7c0.6,2.1,1.7,4.2,3.4,6.1c1.7,1.9,3.9,3.4,6.3,4.2c5,1.7,9.6,1.1,13.8,0.1
						c4.2-1,7.9-2.8,10.7-4.7c2.9-1.8,5-3.6,6.4-4.9c1.4-1.3,2.2-2.1,2.2-2.1s3-3.2,6.5-8.5c1.8-2.6,3.7-5.8,5.5-9.2
						c1.8-3.4,3.7-6.9,5.7-10.3c0.2-0.4,0.4-0.7,0.6-1.1c-3,0.3-6.1,0.6-9,1.1c-1.4,2.1-2.8,4.2-4.2,6.1c-2.1,3.1-4.1,5.8-5.9,8.1
						c-3.6,4.5-6.3,7.1-6.3,7.1s-0.6,0.7-1.7,1.9c-1.1,1.2-2.8,2.8-4.9,4.4c-2.1,1.6-4.8,3.2-7.9,4.3c-3,1-6.7,1.7-9.6,1
						c-2.9-0.6-5.2-2.7-6.6-5.7c-1.2-2.6-1.7-5.5-2-8.1c-1.4,0.9-2.7,1.8-4.1,2.8C72.1,194.7,72.4,197.1,73.1,199.7z"/>
					
						<radialGradient id="SVGID_14_" cx="101.8341" cy="223.6051" r="23.2312" gradientTransform="matrix(2.6666 0 0 2.6666 -160.7152 -231.5422)" gradientUnits="userSpaceOnUse">
						<stop  offset="7.407410e-03" style="stop-color:#B30058"/>
						<stop  offset="1" style="stop-color:#5C2D7D"/>
					</radialGradient>
					<path class="st20" d="M90.9,404.2c0.4-4.9,3-9.2,7.2-12.4c4.2-3.2,9.4-5.5,14.8-7.4c11.1-3.5,22.6-7,33.2-10.3
						c10.5-3.2,21.2-6.3,29.2-12.8c3.9-3.2,7-6.8,8.8-11.2c1.7-4.2,1.9-8.2,1.7-11.3c-0.3-3.1-0.9-5.6-1.6-7.2
						c-0.3-0.8-0.6-1.4-0.8-1.8c-0.2-0.4-0.3-0.6-0.3-0.6s-0.4-0.9-1.5-2.3c-1-1.5-2.9-3.7-6.2-5.4c-3.2-1.8-8.1-2.4-12.3-1.3
						c-2.1,0.5-4.1,1.2-5.9,1.8c-1.8,0.6-3.6,1.1-5.6,1.5c-8,1.7-18.1,1-29.5,0.9c-5.7,0-11.8,0.3-17.9,1.7
						c-6.2,1.5-12.1,4.3-17.2,7.7c-10.3,6.7-18.9,14.9-28.4,19.6c-7.5,3.7-15.5,5.2-22.8,5.4c0.8,1.4,1.6,2.8,2.5,4.2
						c7.1,0,15-1.3,22.6-4.6c10.8-4.7,20-12.9,29.8-18.7c4.9-2.9,10-5.1,15.2-6.2c5.3-1,10.8-1.1,16.2-1c10.8,0.4,21.6,1.6,31.2-0.1
						c2.4-0.4,4.7-1,6.8-1.6c2-0.6,3.7-1.1,5.1-1.4c2.9-0.6,4.6-0.1,5.9,0.6c1.3,0.7,2.2,1.8,2.7,2.6c0.6,0.8,0.8,1.3,0.8,1.3
						c0,0,0.3,0.4,0.7,1.4c0.4,0.9,0.9,2.5,1.1,4.5c0.2,2,0.1,4.6-0.9,7.1c-0.8,2.3-3,5.3-5.9,7.7c-2.9,2.5-6.8,4.7-11.2,6.6
						c-4.4,1.9-9.5,3.6-14.8,5.4c-10.6,3.7-21.7,7.4-33.1,11.5c-5.7,2.2-11.4,4.9-16.4,9.1c-2.4,2.1-4.6,4.6-6.2,7.5
						c-1.6,2.9-2.4,6.2-2.5,9.3c0,1.1,0,2.2,0,3.3c1.8,0.9,3.5,1.9,5.3,2.7C90.8,407.9,90.7,406,90.9,404.2z"/>
					
						<radialGradient id="SVGID_15_" cx="125.9624" cy="238.876" r="13.6707" gradientTransform="matrix(2.6666 0 0 2.6666 -160.7152 -231.5422)" gradientUnits="userSpaceOnUse">
						<stop  offset="7.407410e-03" style="stop-color:#B30058"/>
						<stop  offset="1" style="stop-color:#5C2D7D"/>
					</radialGradient>
					<path class="st21" d="M150.1,406.7l1.7-1.1c0.6-0.3,1.2-0.6,1.8-0.9c4.7-2.4,9.5-3.7,13.6-4.6c4.2-0.8,7.8-1,10.3-1.2
						c2.5-0.1,4-0.1,4-0.1s5.8-0.4,14.6,0.2c4.4,0.3,9.6,0.9,15.2,1.7c1.3,0.2,2.7,0.4,4.1,0.6c3-2,6-4.1,8.8-6.4
						c-3.8-0.5-7.7-1.4-11.5-2.2c-5.7-1.2-11-2.1-15.7-2.7c-9.3-1.2-15.8-1-15.8-1s-1.6,0.1-4.4,0.3c-2.8,0.3-6.8,0.7-11.5,1.9
						c-4.7,1.2-10.2,3.1-15.5,6.2c-0.7,0.4-1.3,0.8-2,1.2l-1.9,1.4c-1.3,0.9-2.6,1.9-3.8,2.9c-2.4,2.1-4.7,4.4-6.8,6.8
						c-3.1,3.6-6.1,7.3-8.9,10.9c2.4,0.4,4.7,0.6,7.1,0.9c2.2-2.3,4.5-4.7,6.8-7c2.1-2.1,4.3-4,6.5-5.7
						C147.8,408.2,148.9,407.4,150.1,406.7z"/>
					
						<radialGradient id="SVGID_16_" cx="125.9762" cy="177.1564" r="28.43" gradientTransform="matrix(2.6666 0 0 2.6666 -160.7152 -231.5422)" gradientUnits="userSpaceOnUse">
						<stop  offset="7.407410e-03" style="stop-color:#B30058"/>
						<stop  offset="1" style="stop-color:#5C2D7D"/>
					</radialGradient>
					<path class="st22" d="M181.1,198.7c-3.3,4-7,8.1-11,12c-8.1,8-17.5,15.5-27.7,21.9c-5.1,3.2-10.4,6-15.7,8.6
						c-5.3,2.5-10.9,4.8-16.2,7.7c-5.3,2.9-10.4,6.3-14.3,11c-3.8,4.6-6.5,9.9-7.4,15.4c-0.9,5.5,0.2,11.1,2.6,15.1
						c2.4,4.1,5.7,6.8,8.4,8.5c2.8,1.7,5.1,2.5,6.7,3.1c1.6,0.5,2.4,0.7,2.4,0.7s0.9,0.2,2.5,0.5c1.6,0.3,4,0.6,6.9,0.6
						c3,0.1,6.6-0.2,10.6-1c3.9-0.8,8.3-2,12.8-3.8c4.6-1.8,9.3-4.2,14-7.2c4.7-3.1,9.1-6.9,13.4-10.6c4.3-3.7,8.7-7.2,13.7-9.4
						c4.9-2.2,10.6-2.8,16.5-3c6-0.1,12.2,0.2,18.6-0.5c6.3-0.7,12.4-2.4,17.9-4.7c11-4.7,19.6-11.6,26.5-17.8
						c-0.5-1.2-1.1-2.4-1.6-3.6c-0.2,0.2-0.5,0.4-0.7,0.6c-7.1,5.7-15.8,11.9-26.2,15.7c-5.2,1.9-10.7,3.2-16.4,3.6
						c-5.7,0.4-11.8-0.2-18.1-0.2c-6.3-0.1-13.1,0.4-19.4,2.9c-6.3,2.5-11.3,6.5-15.9,10.1c-4.6,3.7-8.7,7.1-12.9,9.6
						c-4.2,2.6-8.5,4.6-12.6,6.1c-4.1,1.5-7.9,2.4-11.4,3c-3.3,0.6-6.3,0.7-8.6,0.6c-2.4-0.1-4.2-0.4-5.5-0.6
						c-1.2-0.3-1.9-0.4-1.9-0.4s-0.6-0.2-1.8-0.5c-1.1-0.4-2.9-0.9-4.7-2c-1.8-1.1-3.8-2.6-5.3-5c-1.5-2.4-2.2-5.5-1.8-9.1
						c0.5-3.6,2.2-7.7,5.1-11.3c2.8-3.5,6.9-6.7,11.7-9.4c4.7-2.8,10.1-5.1,15.6-8c5.5-2.8,10.9-6,16.1-9.5
						c10.4-7,19.9-15.3,27.9-23.9c4-4.3,7.6-8.7,10.8-13c3.2-4.3,6-8.7,8-13c1.4-3.2,2.5-6.3,3.2-9.2c-1-0.4-1.9-0.8-2.9-1.2
						c-0.8,2.8-2,5.7-3.6,8.7C187.2,190.8,184.4,194.7,181.1,198.7z"/>
					
						<radialGradient id="SVGID_17_" cx="91.2407" cy="225.1157" r="10.1009" gradientTransform="matrix(2.6666 0 0 2.6666 -160.7152 -231.5422)" gradientUnits="userSpaceOnUse">
						<stop  offset="7.407410e-03" style="stop-color:#B30058"/>
						<stop  offset="1" style="stop-color:#5C2D7D"/>
					</radialGradient>
					<path class="st23" d="M101.1,367.7c1.7-1.4,3.4-2.7,4.9-4c0.4-0.3,0.8-0.6,1.2-1c0.2-0.2,0.4-0.4,0.8-0.8
						c0.3-0.3,0.6-0.7,0.9-1c1.2-1.3,2.1-2.8,2.7-4.1c1.2-2.8,1.1-5.3,0.4-7.3c-0.4-1-1.1-1.9-1.7-2.6c-0.7-0.4-1.3-0.7-1.9-1.1
						c-0.3-0.2-0.6-0.3-0.8-0.5c-0.4,0-0.8,0-1.1,0c-0.7,0-1.3,0.1-1.8,0.1c-1,0-1.5,0.1-1.5,0.1s-0.6,0.1-1.6,0.3
						c-0.5,0.1-1.2,0.2-1.9,0.4c-0.3,0.1-0.9,0.2-1.1,0.3c-0.2,0.1-0.5,0.2-0.8,0.3c-2.3,0.7-5.3,2.1-8.5,4.1
						c-6.6,4-13.3,11-19.6,17.6c-5.4,5.5-11.4,10.4-17,13c1.1,1.2,2.1,2.3,3.2,3.4c6.1-2.2,12.7-6.5,18.4-11.3
						c7.1-6.2,13.9-12,19.5-14.9c2.8-1.5,5.1-2.3,6.8-2.7c0.2-0.1,0.4-0.1,0.6-0.2c0.2,0,0.1,0,0.1,0l0,0c0,0,0,0,0,0s0,0,0.1-0.1
						c0.1-0.1,0.4-0.1,0.4,0.2c0,0.1,0,0.1,0,0.2c0.1-0.1-0.4,0.5-1.2,1.2c-1.4,1.3-2.9,2.8-4.5,4.2c-3.2,2.9-6.6,6-10,9
						c-9.2,8-18.9,15.4-24.3,19.8c0.7,0.6,1.4,1.2,2.1,1.8C70,389,80.3,383,90.1,376C93.9,373.3,97.6,370.4,101.1,367.7z"/>
					
						<radialGradient id="SVGID_18_" cx="129.4016" cy="242.1647" r="5.8426" gradientTransform="matrix(2.6666 0 0 2.6666 -160.7152 -231.5422)" gradientUnits="userSpaceOnUse">
						<stop  offset="7.407410e-03" style="stop-color:#B30058"/>
						<stop  offset="1" style="stop-color:#5C2D7D"/>
					</radialGradient>
					<path class="st24" d="M188.7,408.9c0,0-2.7,0.5-7,1.6c-4.2,1.1-10.2,3-15.2,7.2c-1.2,1-2.3,2.1-3.2,3.3
						c15-2.1,29.1-6.8,41.9-13.6C196.4,408.1,188.7,408.9,188.7,408.9z"/>
					
						<radialGradient id="SVGID_19_" cx="156.8276" cy="204.2693" r="5.495" gradientTransform="matrix(2.6666 0 0 2.6666 -160.7152 -231.5422)" gradientUnits="userSpaceOnUse">
						<stop  offset="7.407410e-03" style="stop-color:#B30058"/>
						<stop  offset="1" style="stop-color:#5C2D7D"/>
					</radialGradient>
					<path class="st25" d="M267.2,299.5c-3.4,1-7.9,2.9-11.9,5.7c-2,1.4-3.9,2.9-5.6,4.4c-0.8,0.8-1.7,1.6-2.4,2.3l-0.5,0.6
						c-0.2,0.2-0.5,0.6-0.8,1c-0.5,0.7-1,1.4-1.5,2c-1.8,2.7-1.9,5-1.5,6.7c0.2,0.8,0.5,1.4,0.7,1.8c0.2,0.4,0.4,0.6,0.4,0.6
						s0.5,0.8,1.9,1.7c0.7,0.4,1.7,0.8,2.9,1.1c1.3,0.2,2.9,0.3,4.4,0.4c3.5,0,8.4-0.1,13.2-1.1c0.8-0.2,1.5-0.4,2.3-0.6
						c0.5-2.2,1-4.4,1.4-6.6c-1.5,0.2-3,0.4-4.5,0.4c-4.2,0-8.5-0.5-11.7-1c-0.4-0.3,0-0.4-0.1-0.4c0,0-0.3,0.2-0.4-0.1
						c0,0,0-0.1,0-0.1c0,0,0,0,0-0.1l0.4-0.5c0.5-0.7,1.1-1.5,1.7-2.3c1.2-1.6,2.6-3.1,4.1-4.6c3-3,6.4-5.7,9.1-7.6
						c1.4-1,2.6-1.8,3.4-2.5c0-0.6,0-1.2,0-1.7C271.2,298.6,269.4,298.8,267.2,299.5z"/>
					
						<radialGradient id="SVGID_20_" cx="150.9175" cy="206.0669" r="11.7014" gradientTransform="matrix(2.6666 0 0 2.6666 -160.7152 -231.5422)" gradientUnits="userSpaceOnUse">
						<stop  offset="7.407410e-03" style="stop-color:#B30058"/>
						<stop  offset="1" style="stop-color:#5C2D7D"/>
					</radialGradient>
					<path class="st26" d="M255.7,293.2c-5.3,1.8-10.9,3.2-16.2,5c-5.3,1.7-10.3,4-14.4,6.6c-2,1.3-3.9,2.9-5.3,4.3
						c-1.4,1.5-2.6,2.8-3.4,4c-0.8,1.2-1.5,2.2-1.9,2.9c-0.4,0.7-0.6,1.1-0.6,1.1s-0.2,0.4-0.5,1.1c-0.3,0.7-0.7,1.8-1.2,3.3
						c-0.9,2.8-1.8,7.3-0.5,12.8c0.6,2.7,2,5.5,4,7.9c2,2.4,4.8,4.4,7.8,5.7c6.1,2.6,12.8,2.5,19,1.1c6.3-1.5,11.5-4.6,16.2-7.4
						c2.3-1.4,4.5-2.8,6.5-4c0.7-2,1.3-3.9,1.9-5.9c-3.5,1.4-7.2,3.3-11,5.2c-4.8,2.3-9.9,4.6-15,5.4c-5.1,0.8-10.4,0.3-14.2-1.7
						c-3.8-1.9-5.9-5.2-6.4-8.3c-0.5-3.1,0.1-5.9,0.8-7.8c0.4-1,0.7-1.7,0.9-2.2c0.2-0.5,0.4-0.8,0.4-0.8s0.1-0.3,0.4-0.8
						c0.2-0.5,0.7-1.2,1.2-2.1c1.2-1.8,3-4.1,6-6.3c3.1-2.3,7.2-4.5,12-6.4c4.8-2,10.3-3.8,15.8-6.1c5-2.1,9.8-4.6,14.1-7.4
						c-0.1-2.1-0.2-4.1-0.3-6.1C267,288.8,261.5,291.3,255.7,293.2z"/>
					
						<radialGradient id="SVGID_21_" cx="68.9504" cy="199.9427" r="2.6933" gradientTransform="matrix(2.6666 0 0 2.6666 -160.7152 -231.5422)" gradientUnits="userSpaceOnUse">
						<stop  offset="7.407410e-03" style="stop-color:#B30058"/>
						<stop  offset="1" style="stop-color:#5C2D7D"/>
					</radialGradient>
					<path class="st27" d="M26.3,306.3c1.2-2,1.2-4.4,0.7-6.2c-0.5-1.9-1.6-3.2-2.4-4.1c-0.6-0.7-0.9-1-0.9-1
						c-0.1-0.1-2-1.3-4.6-2.7c0,1.1-0.1,2.2-0.1,3.2c0,5.2,0.3,10.3,0.9,15.3c0.4-0.1,0.8-0.2,1.1-0.3c0.5-0.2,1-0.4,1.4-0.6
						c0.5-0.3,1-0.6,1.5-1C25,308.3,25.7,307.3,26.3,306.3z"/>
					
						<radialGradient id="SVGID_22_" cx="140.7498" cy="169.4942" r="9.2608" gradientTransform="matrix(2.6666 0 0 2.6666 -160.7152 -231.5422)" gradientUnits="userSpaceOnUse">
						<stop  offset="7.407410e-03" style="stop-color:#B30058"/>
						<stop  offset="1" style="stop-color:#5C2D7D"/>
					</radialGradient>
					<path class="st28" d="M200.7,236.8c0.2-0.7,0.5-1.3,0.8-1.8c0.6-1,1-1.6,1-1.6s1.2-2.5,4.4-6.2c1.5-1.9,3.5-4.1,5.7-6.7
						c2.1-2.6,4.2-5.6,6-8.6c3-5,5.4-10.2,7.1-14.6c-1.1-0.9-2.3-1.8-3.5-2.7c-2.5,4.1-5.7,8.9-9.3,13.4c-2.1,2.6-4.2,5-6.4,7.2
						c-2.3,2.2-4.4,4.3-6.3,6.1c-1.9,1.9-3.4,3.7-4.5,5c-1,1.3-1.6,2.2-1.6,2.2s-0.5,0.9-1.3,2.6c-0.3,0.9-0.8,1.9-1.1,3.3
						c-0.1,0.3-0.2,0.8-0.3,1.4c-0.1,0.5-0.1,1.1-0.2,1.6c-0.1,1.1,0,2.2,0,3.4c0.2,1.1,0.5,2.2,0.7,3.4c0.1,0.6,0.3,1.2,0.4,1.8
						l0.1,0.2c0,0,0.1,0,0.2,0l0.5,0l0.9,0c1.3,0,2.5,0.2,3.9,0.1c1.3-0.1,2.6-0.2,4-0.4c3.3-0.4,6.7-1,10.2-1.7
						c13.8-2.8,26.5-8.8,25.9-10.1c-0.5-1.2-13.6,2.3-27,3.3c-3.3,0.3-6.7,0.4-9.8,0.5c-0.7,0-0.8-0.1-1-0.2c-0.1,0,0-0.4,0.1-0.5
						C200.5,237,200.5,237.2,200.7,236.8z"/>
					
						<radialGradient id="SVGID_23_" cx="75.8707" cy="196.5885" r="11.4905" gradientTransform="matrix(2.6666 0 0 2.6666 -160.7152 -231.5422)" gradientUnits="userSpaceOnUse">
						<stop  offset="7.407410e-03" style="stop-color:#B30058"/>
						<stop  offset="1" style="stop-color:#5C2D7D"/>
					</radialGradient>
					<path class="st29" d="M23.1,273.1c2.4,5.6,6.6,10.7,11.6,13.2c4.9,2.5,9.3,2.9,12.1,3.1c2.9,0.2,4.4,0.1,4.4,0.1s0.1,0,0.7,0
						c0,0,0,0,0,0c0,0,0,0,0.1,0c0,0,0,0,0,0l0,0l0,0.2l0.1,0.4c0,0.3,0,0.6,0.1,1c0.2,2.6,0,6-1.1,9.8c-2,7.5-8.1,16.1-16.6,20.8
						c-3.8,2.2-7.8,3.7-11.8,4.7c0.4,1.7,0.9,3.4,1.4,5.1c4.4-0.7,9-1.9,13.4-4c5.1-2.3,9.9-6,13.6-10.2c3.7-4.2,6.5-9,8.1-13.6
						c1.7-4.7,2.3-9.1,2.2-12.7c0-0.5,0-0.9,0-1.3c0-0.5-0.1-1-0.1-1.4c-0.1-1.4-0.3-2.6-0.6-3.6c-0.4-2.2-0.8-3.9-1-5.1
						c-4.2,0.3-6.6,0.4-7.9,0.5c-0.8,0-1,0-1,0s-1.4,0.1-3.7,0.1c-2.3,0-5.4-0.2-8.5-1.6c-3-1.3-6.1-4.3-8.3-8.6
						c-2.3-4.3-3.6-9.6-4.4-15.3c0,0,0-0.1,0-0.1c-1.7,4.9-3.1,10-4.2,15.2C22.1,270.6,22.6,271.9,23.1,273.1z"/>
				</g>
			</g>
			<g>
				<path class="st30" d="M131.7,104.3c-2.1,0.1-12.7,3.3-13.5,5.1c-0.8,1.8,2.6,30.5,4.8,34.3c2.2,3.8,13.5,1.5,14.2-1.8
					C137.9,138.7,131.7,104.3,131.7,104.3z"/>
				<path class="st31" d="M118.2,109.3c-0.8,1.8,2.6,30.5,4.8,34.3c1,1.8,4.1,2.2,7.1,1.8c0.7-7.3-1.7-34.6-2.3-35.5
					c-0.6-1-1.7-1.4-1.7-1.4C125.5,108.3,119.6,108.4,118.2,109.3z"/>
				<path class="st32" d="M129.8,130.9c-1.2,3.7-5.3,17-10.2,14.6c-3.5-1.7-0.8-10.8,0.9-12.5l0.5,2.8c-0.7,1.3-1.7,6.5-0.4,7.2
					c2.7,1.3,6.6-11.3,8-13.4L129.8,130.9z"/>
				<path class="st33" d="M127,109.9c-16,6.6-19,23.1-20.5,29.5c-0.4,1.8,6.4,5.4,8.5-3.1c2.1-8.4,12.7-14.5,12.7-14.5
					c-1.4,1.2,2.3,18,3.1,22.1c-4.1,6.9-6.8,12.5-9.1,19.8c-0.2,0.6-0.7,2.7-1.1,3.2c-2.4,3.7-0.2,4.3,3,5.1
					c1.9,0.5,3.7-1.2,6.6-4.1c0.7-0.7,1.9-1.2,2.7-2.1c3.9-4.4,8.2-10.7,8.4-10.9c1.4-1.5,3.9-1.2,6.1-1c6,0.6,7.9,3.5,11.1,7.4
					c3.6,4.5,6.3,12.4,10.3,12.9c3.9,0.4,5-2.3,2.2-11c-2.8-8.7-12-18.7-12-18.7c3.2-8.3,2.8-27.9,2.9-26.4c0,0,19.2,2.9,20.4-2
					c0.6-2.3-1.6-5.6-5.6-5.9c-9.4-0.8-10.7-1.5-14.3-2.7c-0.7-0.2-2.5-0.7-2.5-0.7c-0.8-0.6-0.9-1.4-1.3-1.3
					c-3,4.4-21,4.9-28.2,2.3C128.5,108.1,127,109.9,127,109.9z"/>
				<path class="st32" d="M155.5,140.4c-0.8,0-7.3,0.5-12,0.5c-4.7-0.1-5.3-0.7-5.3-0.7l0.2-4.1l15.3-0.1L155.5,140.4z"/>
				<path class="st31" d="M152.9,133.9c0,0-0.5,7.1-0.4,8.1c0.1,1,2.3,2,2.6,2.1c0.3,0.1,5.2-0.4,6-1.3c0.8-0.9,1.4-6.4,0.8-7.1
					C161.9,135.6,154.2,134,152.9,133.9z"/>
				<path class="st30" d="M155.2,144.1c0.3,0.1,5.2-0.4,6-1.3c0.8-0.9,1.4-6.4,0.8-7.1c-0.1-0.1-5-1.2-7.6-1.6
					c0.3,0.7,0.8,1.6,1,2.5C155.8,138.5,155.2,144.1,155.2,144.1z"/>
				<path class="st31" d="M152.9,133.9c0.1,0.7,2.2,1.3,2.4,4.6c1.5,0.9,5.3,1.7,6.6-0.4c1.3-2.1,0.3-3.7-0.1-4.1
					C161.4,133.5,152.9,133.9,152.9,133.9z"/>
				<path class="st32" d="M149.8,122.7c5.2,0.6,10.7-0.4,12-1.1c0,0,0.3,6.6-0.3,6.7c-0.5,0.1-10.1,1.7-11.2,0.7
					C149.3,128,149.8,122.7,149.8,122.7z"/>
				<path class="st32" d="M139.5,123.7c-5.2,1.1-10.9,0.6-12.3,0c0,0-0.2,6.6,0.9,6.8c1.2,0.3,9.7,0.7,10.8-0.4
					C140,128.9,139.5,123.7,139.5,123.7z"/>
				<path class="st32" d="M172.6,166.7c-0.1-0.2-0.4-1.9-0.9-1.6c-5.9,3.4-8.5,3.2-8.5,3.2c-0.3,0.4,0.3,1.7,0.6,1.9
					c0.3,0.2,2.9,0.1,5-0.9c2-1,3.7-2.4,3.7-2.4L172.6,166.7z"/>
				<path class="st32" d="M162.9,112.1c0.3,5-1,6.2-1,5.9c0.1-1.7,0.3-4.6-0.3-6.7c-0.9-3-2.4-4.5-2.3-4.6
					C159.9,106,162.6,106.3,162.9,112.1z"/>
				<path class="st33" d="M172.3,165.9c0.8,1.9,1,8.2,1.7,9.7c8.9-1.8,11.1,5.3,9.4,5.4c-5.3,0.1-16.7,0-17,0c-2.1,0-0.9-5.4-3-11.3
					C166.5,169.3,170.3,168.6,172.3,165.9z"/>
				<path class="st32" d="M128.8,170c0.4-0.3,1.4-1.6,1.4-2.1c0-0.6-8-4.5-8.4-4.2c-0.8,0.5-1.2,2-1.2,2L128.8,170z"/>
				<path class="st33" d="M129.7,168.9c-5.8-1.5-8.5-4.1-8.9-4.1c-0.1,0-6.2,11.9-6.6,14.2c-0.3,1.5,0.8,1.7,1.3,1.8
					c0.5,0.1,9.7,1,10.5-0.1c0.8-1.1-1.5-3.4-0.5-4.7C126.4,174.7,129.7,169.9,129.7,168.9z"/>
				<path class="st32" d="M125.8,110.5c2.5,0.5,3.7,9.6,1.1,11.9l0.4,1.6c2-2.3,4.3-9-0.2-14.2L125.8,110.5z"/>
				<path class="st30" d="M157.7,104.3c1.2,0.1,2.5,0.4,2.7,2.1c0.2,3.6-5.7,6-12.6,6.7c-8.6,0.8-15.7-0.9-18.9-2.4
					c-1.3-0.6-1.3-1.2-1-1.9c0.3-0.7,1.3-1.1,1.6-1.2c0.3-0.1,26.4-2,27.3-2.5C157.6,104.5,157.7,104.3,157.7,104.3z"/>
				<path class="st33" d="M129.3,107.6c7.9,2,22.6,3.2,29.2-2C163.4,71.5,120,75.7,129.3,107.6z"/>
				<path class="st34" d="M145.9,84.5c13.1,0,19.3,23.1,1.4,23.9C127.4,109.3,131.5,84.5,145.9,84.5z"/>
				<path class="st30" d="M131.1,94.1c-1.4-0.1-4.6,0.5-5.2,1.5c-0.5,1-0.2,5.7,0.5,6.4c0.5,0.5,3.2,0.6,4.8,0.5
					c0.7,0,0.6-0.3,0.7-0.4c0.6-0.4,0.3-7.3-0.1-7.7C131.6,94,131.1,94.1,131.1,94.1z"/>
				<path class="st32" d="M117.9,130c0.5,0.1,1,0,1.4-0.4c0.4-0.4,1-1,0.3-2.1c-0.7-1.1-4.1-3.3-6.2-3.7c-2.1-0.4-2.6,0.1-3.1,0.7
					c-0.5,0.6-0.5,1.5-0.5,1.5L117.9,130z"/>
				<path class="st33" d="M119.3,129.6c-1.9-2.2-8.9-5.9-9.8-3.3c-1.1,3.3-3.2,7.4-4,11.5c-0.4,1.8-0.6,7.9,3.8,8.7
					c4.4,0.8,3.4-7.6,4.6-7.3c1.2,0.2,2.2,5.2,2.9,3.1c0.7-2.2-0.8-4.5-0.7-5.4C116.1,136,118,133.4,119.3,129.6z"/>
				<path class="st32" d="M142.9,154c0-0.3-3.9-4-6.6-6.3c-2.6-2.2-4.9-3.8-5.5-3.8c-0.6,0-1.3,1.6-1.1,1.7
					c5.9,3.5,11.3,9.7,11.4,9.7C141.8,155.3,142.5,154.4,142.9,154z"/>
				<path class="st32" d="M160.1,145.5c-0.4,3.1-4.1,7.2-8.3,9.5c-0.3,0.2-1.5-0.4-1.4-0.5c0.6-0.6,5.7-2.2,8.6-10
					C159.3,143.9,160.1,145.5,160.1,145.5z"/>
				<path class="st33" d="M120.4,174.7c3.6,0,6.6,2.3,6.6,5.2c0,0.4-0.1,0.9-0.2,1.3h-12.7c-0.1-0.4-0.2-0.8-0.2-1.3
					C113.9,177,116.8,174.7,120.4,174.7z"/>
				<path class="st32" d="M176.2,109.9c-0.1,0-0.6,0.2-0.6,0.2s1.1,1.3,1.2,4.1c0.2,2.7-0.8,4.7-0.8,4.7c0.3,0.3,0.7,0.4,1.1,0.3
					C179,119.2,180.5,110.6,176.2,109.9z"/>
				<path class="st33" d="M176.2,109.9c2.1,2.1,2.1,7.4,0.8,9.2c3.2-0.4,8-0.2,11.7-1.2c1.7-0.4,4.8-2.3,3.6-6.2
					c-1.2-4.1-6.7-3.1-8.7-2.2C182.8,110,179.9,109.5,176.2,109.9z"/>
				<linearGradient id="SVGID_24_" gradientUnits="userSpaceOnUse" x1="173.4898" y1="106.6031" x2="192.9538" y2="106.6031">
					<stop  offset="0" style="stop-color:#FFFFFF;stop-opacity:0"/>
					<stop  offset="2.973682e-02" style="stop-color:#FDFDFE;stop-opacity:2.973682e-02"/>
					<stop  offset="0.4062" style="stop-color:#E2ECEE;stop-opacity:0.4062"/>
					<stop  offset="0.7416" style="stop-color:#D2E1E5;stop-opacity:0.7416"/>
					<stop  offset="1" style="stop-color:#CCDDE2"/>
				</linearGradient>
				<path class="st35" d="M192.9,180.7c0,0.4-0.3,0.7-0.7,0.7c-0.4,0-0.7-0.3-0.7-0.7c0.4-14.2-1.4-47.4-5.5-81.2
					c-3-24.3-7.1-48.8-12.5-66.7c-0.1-0.4,0.1-0.7,0.5-0.9c0.4-0.1,0.7,0.1,0.9,0.5c5.4,18,9.6,42.6,12.5,67
					C191.5,133.1,193.3,166.5,192.9,180.7z"/>
				<radialGradient id="SVGID_25_" cx="150.6" cy="49.9032" r="25.2422" gradientUnits="userSpaceOnUse">
					<stop  offset="5.925930e-02" style="stop-color:#E47E99"/>
					<stop  offset="0.5259" style="stop-color:#E43D99"/>
					<stop  offset="0.9926" style="stop-color:#B30058"/>
				</radialGradient>
				<path class="st36" d="M179.9,60.1c-5.1,0.3-43.8,6.8-51.8,10.1c-0.5-7.1,3.3-16.1,5.1-16.2c-4-3.5-8-7-11.9-10.5
					c16-10.8,28-12.8,51.4-14.2C170,37.1,175.1,53.7,179.9,60.1z"/>
				<path class="st30" d="M141.5,114.6l10.8-0.9c0.7-0.1,3.9,0.8,4.4,1.1c1.4,0.8,3.9,16.5-13.4,19.6c-1.9,0.3-5.3-1.9-5.3-3.8
					v-12.2C138.1,116.4,139.6,114.7,141.5,114.6z"/>
				<path class="st33" d="M144.3,115.4l10.8-0.9c1.9-0.2,3.4,1.3,3.4,3.2v12.2c0,1.9-1.5,3.6-3.4,3.7l-10.8,0.9
					c-1.9,0.2-3.4-1.3-3.4-3.2v-12.2C140.9,117.3,142.5,115.6,144.3,115.4z"/>
				<path class="st37" d="M145.9,117.9c1.1-0.1,2,0.7,2,1.8c0,1.1-0.9,2-2,2.1c-1.1,0.1-2-0.7-2-1.8S144.8,118,145.9,117.9z"/>
				<path class="st38" d="M154.9,127.8c0.8-0.1,1.4,0.5,1.4,1.3c0,0.8-0.6,1.5-1.4,1.6c-0.8,0.1-1.4-0.5-1.4-1.3
					C153.5,128.6,154.1,127.9,154.9,127.8z"/>
				<path class="st39" d="M151.1,128.2c0.8-0.1,1.4,0.5,1.4,1.3c0,0.8-0.6,1.5-1.4,1.6c-0.8,0.1-1.4-0.5-1.4-1.3
					C149.6,129,150.3,128.3,151.1,128.2z"/>
				<path class="st31" d="M139.6,133.6c0,0,0.5,7.1,0.4,8.1c-0.1,1-2.3,2-2.6,2.1c-0.3,0.1-5.2-0.4-6-1.3c-0.8-0.9-1.4-6.4-0.8-7.1
					C130.7,135.3,138.4,133.7,139.6,133.6z"/>
				<path class="st30" d="M137.4,143.9c-0.3,0.1-5.2-0.4-6-1.3c-0.8-0.9-1.4-6.4-0.8-7.1c0.1-0.1,5-1.2,7.6-1.6
					c-0.3,0.7-0.8,1.6-1,2.5C136.8,138.2,137.4,143.9,137.4,143.9z"/>
				<path class="st31" d="M139.6,133.6c-0.1,0.7-2.2,1.3-2.4,4.6c-1.5,0.9-5.3,1.7-6.6-0.4c-1.3-2.1-0.3-3.7,0.1-4.1
					C131.1,133.2,139.6,133.6,139.6,133.6z"/>
				<path class="st37" d="M146.6,86.2c5.3,0,9.8,4.7,10.1,10.5c0.2,5.8-3.9,10.5-9.2,10.5c-5.3,0-9.8-4.7-10.1-10.5
					C137.1,90.9,141.2,86.2,146.6,86.2z"/>
				<linearGradient id="SVGID_26_" gradientUnits="userSpaceOnUse" x1="139.3139" y1="92.1397" x2="151.9144" y2="92.1397">
					<stop  offset="0" style="stop-color:#FFFFFF;stop-opacity:0"/>
					<stop  offset="2.973682e-02" style="stop-color:#FDFDFE;stop-opacity:2.973682e-02"/>
					<stop  offset="0.4062" style="stop-color:#E2ECEE;stop-opacity:0.4062"/>
					<stop  offset="0.7416" style="stop-color:#D2E1E5;stop-opacity:0.7416"/>
					<stop  offset="1" style="stop-color:#CCDDE2"/>
				</linearGradient>
				<path class="st40" d="M149.9,92.1c-8.1-2.5-10.1,6.9-10.6,4c-0.1-2.5,0.1-4.2,2-6.1c2.9-3,7-2.5,10-1.3
					C152.8,89.7,151.4,92.7,149.9,92.1z"/>
				<path class="st30" d="M113.1,138.7c-1.5,1.2-1.3,4.5-1.8,5.8c-0.1,3.6-4.5,0.7-5.5-1.2c0.5,1.6,0.6,2.9,3.7,3.6
					c3.1,0.6,3.5-4.5,4-6.5c0.1-0.5,0.3-0.7,0.6-0.7c0.6,0,2,4.9,2.7,2.7c0.7-2.2-0.8-4.5-0.7-5.4c0-1,1.9-3.6,3.2-7.3
					c-0.1-0.1-0.3-0.3-0.4-0.4c-0.6-0.6-1.6-1.3-2.6-1.9c-0.1,0.3-0.3,0.9-0.5,1.6c-0.7,2-1.7,5.3-1.8,5.9c0,0.2,3.4,5.3,2.3,7
					C115.9,142.4,114.6,137.4,113.1,138.7z"/>
				<path class="st30" d="M119.9,128.2c2.7-2.9,5.7-4.9,7.1-5.8c2.4-2.2,1.5-10.4-0.8-11.7c-2.8,1-0.2,9.3-3.5,11.1
					c-1.4,0.8-2.5,1.5-3.4,2.1c-1.5,1-2.3,1.6-2.3,1.6c1.2,0.7,2.3,1.6,2.6,2.1c0.1,0.1,0.2,0.3,0.2,0.4
					C119.8,128,119.8,128.1,119.9,128.2z"/>
				<path class="st30" d="M130.8,104.4c-0.1-0.6-0.2-1.2-0.2-1.8c-0.7,0-1.6,0-2.3-0.1c0.1,0.8,0.2,1.6,0.4,2.4
					c0.2,0.9,0.4,1.8,0.7,2.7c0.3,0.1,0.7,0.2,1,0.2c0.4,0.1,0.8,0.2,1.2,0.3c-0.1-0.2-0.1-0.5-0.2-0.7
					C131.1,106.4,130.9,105.4,130.8,104.4z"/>
				<path class="st30" d="M131.3,94.1c2.6-8.7,10.6-12.6,17.8-11.2c-8-3.3-18.2,0.9-20.6,11.5c0.9-0.2,1.9-0.3,2.6-0.3
					C131.1,94.1,131.1,94.1,131.3,94.1z"/>
				<path class="st30" d="M117.8,175.1c-1.3,0.5-2.4,1.2-3.1,2.2c-0.5,0.8-0.9,1.6-0.9,2.6c0,0.4,0.1,0.9,0.2,1.3h1.2
					c0-0.1,0.1-0.2,0.1-0.4c0.5-1.2,1.3-2.8,2.3-3.7c1.9-1.6,6.5-1,7-1c-0.2-0.1-0.3-0.2-0.5-0.3c-0.7-0.2-1.9-0.5-3.4-0.7
					c-1.1-0.1-1.9-0.1-2.3-0.1C118.3,175,118,175,117.8,175.1z"/>
				<path class="st30" d="M114.7,177.3c0.7-1,1.8-1.7,3.1-2.2c0.7-3,3.5-5.7,5.5-8c0.2-0.2,0.4-0.4,0.5-0.6c-1.2-0.6-2-1.2-2.5-1.5
					c-0.2-0.1-0.3-0.2-0.4-0.2c-0.1,0-0.1,0-0.1,0C120.7,164.8,116.3,173.3,114.7,177.3z"/>
				<path class="st30" d="M155.5,152.5c-1.1,1-2.4,1.8-3.7,2.5c2.9,1.3,4.5,3.5,6.8,6.3c1.6,2,3.1,4.7,4.5,7.1c0,0,1.4,0.1,4.4-1.2
					c0,0-0.9-3.2-4.1-6.5C160.5,157.6,156.1,153.1,155.5,152.5z"/>
				<path class="st30" d="M164,169.7c-0.2,0-0.4,0.1-0.5,0.1c2.1,5.8,0.9,11.2,3,11.3c0.3,0,11.7,0,17,0c0.4,0,0.6-0.5,0.5-1.2
					l-12.1-0.3c0,0,0.6-2.6,1.3-3.1c0.7-0.5-3.5,1.4-3.5,1.4s-1.7,0.6-2.2-3.1c-0.1-0.4-0.1-0.7-0.1-1.1c-0.1-1.3-0.1-2.6-0.1-3.7
					c0-0.4,0-0.7,0.1-1C166.2,169.3,165,169.5,164,169.7z"/>
				<path class="st30" d="M129.3,168.8c-0.2-0.1-0.5-0.1-0.7-0.2l-0.3,1.1l0,0.1l-1.1,3.8c1.2-1.9,2.6-4.1,2.6-4.7
					C129.6,168.8,129.5,168.8,129.3,168.8z"/>
				<path class="st30" d="M129.2,167.1c0.6,0.4,1,0.7,1,0.8c0.7-0.7,1.9-1.2,2.7-2.1c3.4-3.8,7.1-9,8.1-10.5c0,0-0.8-0.9-2.2-2.3
					c-0.9,2.1-2.1,4.8-3.9,7.3C132.4,163.9,130,166.4,129.2,167.1z"/>
				<path class="st32" d="M162,118c0,0.3,1.3-0.9,1-5.9c0-0.2,0-0.4,0-0.6c0-0.1-1.1-2.5-2.8-3.8C162,111.9,162.3,113.2,162,118z"/>
				<path class="st30" d="M189.3,116.1c0.1,0.6,0.1,1.1,0.2,1.7c1.7-0.7,4-2.5,3-6c-0.3,1.1-1.2,3.3-2.5,4
					C189.7,115.9,189.5,116,189.3,116.1z"/>
				<path class="st30" d="M188.1,118.2c-0.1-0.6-0.1-1.1-0.2-1.7c-2.1,0.4-4.7,0.4-5.7,0.4c-0.1,0-0.2,0-0.3,0
					c-0.8,0-2.1-0.1-3.2-0.2c-0.3,0-0.6,0-0.9-0.1c-0.1,0.8-0.3,1.5-0.6,2.1c-0.1,0.2-0.2,0.3-0.3,0.4c0,0,0.1,0,0.1,0
					c0.1,0,0.1,0,0.2,0C180.3,118.7,184.5,118.9,188.1,118.2z"/>
				<path class="st30" d="M176.1,118.8c0,0,0.5-0.9,0.7-2.3c0,0-9.7-0.3-11.4-1c-0.8-0.4-1.8-2.2-2.5-3.9c0.2,2.2,0.1,4.5-1,6.5
					C161.9,118.1,170.1,119.3,176.1,118.8z"/>
				<path class="st30" d="M152.5,117.2L152.5,117.2c0.4,0,0.6,0.3,0.6,0.6v4c0,0.4-0.3,0.7-0.6,0.7l0,0c-0.4,0-0.6-0.3-0.6-0.6v-4
					C151.9,117.6,152.2,117.3,152.5,117.2z"/>
				<path class="st30" d="M154.3,117.1L154.3,117.1c0.4,0,0.6,0.3,0.6,0.6v4c0,0.4-0.3,0.7-0.6,0.7l0,0c-0.4,0-0.6-0.3-0.6-0.6v-4
					C153.6,117.4,153.9,117.1,154.3,117.1z"/>
				<path class="st30" d="M156,117L156,117c0.4,0,0.6,0.3,0.6,0.6v4c0,0.4-0.3,0.7-0.6,0.7l0,0c-0.4,0-0.6-0.3-0.6-0.6v-4
					C155.4,117.3,155.7,117,156,117z"/>
				<path class="st32" d="M132.5,136.8c0.3,0,0.5,0.3,0.6,0.7c0,0.4-0.2,0.7-0.4,0.7c-0.3,0-0.5-0.3-0.6-0.7
					C132,137.1,132.2,136.8,132.5,136.8z"/>
				<path class="st32" d="M159.9,137.4c-0.3,0-0.5,0.3-0.6,0.7c0,0.4,0.2,0.7,0.4,0.7c0.3,0,0.5-0.3,0.6-0.7
					C160.3,137.7,160.1,137.4,159.9,137.4z"/>
			</g>
		</g>
	</g>
	<g>
		<path class="st5" d="M84,7.9l40.1,12.3c1.1,0.3,1.7,1.4,1.3,2.5c-0.3,1.1-1.4,1.7-2.5,1.3c-0.1,0-0.1,0-0.2-0.1L83.9,8.1
			c-0.1,0-0.1-0.1-0.1-0.1C83.9,7.9,83.9,7.9,84,7.9z"/>
	</g>
	<path class="st5" d="M146.1,39.3c0.5,0.9,1,1.8,1.5,2.8c0,0,0,0,0,0c-2.8-1.8-5.5-3.6-8.3-5.5c0,0,0,0,0,0
		c2.2,3.4,4.3,6.8,6.5,10.2c0,0,0,0,0,0c-0.9-0.3-1.8-0.7-2.8-1c0.1,0.2,0.2,0.3,0.2,0.4c0.6,1.2,1.3,2.3,1.9,3.5
		c0.9,1.5,1.8,3,2.8,4.5c0.7,1,1.4,2,2.2,3c0.5,0.6,0.9,1.1,1.5,1.6c1,0.9,2.2,1.5,3.6,1.7c1.5,0.2,2.9,0,4.2-0.7
		c2-1,3.2-2.6,3.6-4.8c0.4-2.2-0.1-4.2-1.5-5.9c-0.5-0.6-1.2-1.2-1.9-1.7c-1.2-0.9-2.4-1.8-3.7-2.5c-1.1-0.7-2.2-1.4-3.3-2
		c-1.5-0.8-2.9-1.7-4.4-2.5C147.5,40,146.9,39.6,146.1,39.3C146.2,39.3,146.2,39.3,146.1,39.3C146.1,39.3,146.1,39.3,146.1,39.3z
		 M150.5,50.6c-1.5-2.4-3.1-4.9-4.6-7.3c0,0,0,0,0,0c2.4,1.6,4.8,3.2,7.2,4.8c0,0,0,0,0,0c-0.3-0.6-0.7-1.3-1-1.9
		c-0.3-0.6-0.7-1.3-1-1.9c0,0,0,0,0.1,0c1.1,0.6,2.1,1.2,3.1,1.9c1.4,0.9,2.9,1.9,4.2,2.9c0.4,0.3,0.8,0.7,1.3,1.1
		c0.1,0.1,0.2,0.2,0.3,0.4c1,1.2,1.3,2.6,1,4.1c-0.3,1.6-1.3,2.8-2.7,3.5c-1.6,0.8-3.1,0.7-4.7-0.1c-0.6-0.3-1-0.8-1.5-1.2
		c-0.7-0.8-1.3-1.6-1.9-2.5c-1-1.4-2-2.9-2.8-4.4c-0.1-0.1-0.1-0.2-0.2-0.3c0,0,0,0,0,0C148.4,49.8,149.4,50.2,150.5,50.6z"/>
	<path class="st41" d="M159.3,52.1C159.3,52.1,159.2,52,159.3,52.1c-0.1-0.1-0.1-0.1-0.2-0.1c0,0-0.1,0-0.1,0l0,0h0l-0.2,0.2l0,0
		l-2.1,1.6l-2.2-1.6l-0.2-0.2h-0.1c-0.2,0-0.4,0.2-0.4,0.4v0.2v3.1c0,0,0,0.1,0,0.1c0,0.2,0.2,0.3,0.4,0.3h0.3v-3l1.6,1.2l0.5,0.4
		l0.1,0.1l0.6-0.4l1.5-1.1v3h0.3c0.2,0,0.3-0.1,0.4-0.3c0,0,0-0.1,0-0.1v-3.1v-0.3C159.4,52.2,159.3,52.2,159.3,52.1z"/>
</g>
</svg>
