<?xml version="1.0" encoding="UTF-8"?>
<svg width="17px" height="17px" viewBox="0 0 17 17" version="1.1" xmlns="http://www.w3.org/2000/svg" xmlns:xlink="http://www.w3.org/1999/xlink">
    <title>error-galaxy</title>
    <defs>
        <radialGradient cx="50%" cy="0%" fx="50%" fy="0%" r="100%" gradientTransform="translate(0.500000,0.000000),scale(0.970690,1.000000),rotate(90.000000),translate(-0.500000,-0.000000)" id="radialGradient-1">
            <stop stop-color="#D10731" offset="0%"></stop>
            <stop stop-color="#A40316" offset="100%"></stop>
        </radialGradient>
        <linearGradient x1="23.8547672%" y1="76.1624136%" x2="76.1470911%" y2="23.8698652%" id="linearGradient-2">
            <stop stop-color="#A40316" offset="0%"></stop>
            <stop stop-color="#C62033" offset="100%"></stop>
        </linearGradient>
        <linearGradient x1="23.8547672%" y1="76.1624136%" x2="76.1470911%" y2="23.8698652%" id="linearGradient-3">
            <stop stop-color="#A40316" offset="0%"></stop>
            <stop stop-color="#C62033" offset="100%"></stop>
        </linearGradient>
    </defs>
    <g id="Page-1" stroke="none" stroke-width="1" fill="none" fill-rule="evenodd">
        <g id="error-galaxy" fill-rule="nonzero">
            <g id="Group-5" transform="translate(1.756377, 0.000000)">
                <path d="M6.88928436,8.71673015 C6.51162159,8.71673015 6.2024877,8.41675804 6.2024877,8.05006379 C6.2024877,7.68347045 6.51162159,7.38339738 6.88928436,7.38339738 C7.26705108,7.38339738 7.57608102,7.68347045 7.57608102,8.05006379 C7.57608102,8.41675804 7.26705108,8.71673015 6.88928436,8.71673015 M6.88928436,6.05016551 C5.74753494,6.05016551 4.82899837,6.94177945 4.82899837,8.05006379 C4.82899837,9.15834807 5.74753494,10.0499621 6.88928436,10.0499621 C8.03103375,10.0499621 8.94957034,9.15834807 8.94957034,8.05006379 C8.94957034,6.9501576 8.02250667,6.05016551 6.88928436,6.05016551" id="Fill-1" fill="url(#radialGradient-1)"></path>
                <path d="M9.636367,8.05006379 C9.636367,9.52504238 8.40880052,10.7166285 6.88928436,10.7166285 C5.36987219,10.7166285 4.14220171,9.52504238 4.14220171,8.05006379 C4.14220171,8.02694822 4.14269567,8.00395888 4.14311162,7.98094422 C4.18075571,6.53814068 5.39365972,5.38349907 6.88928436,5.38349907 C8.40880052,5.38349907 9.636367,6.57518611 9.636367,8.05006379 Z M13.7557691,7.95967091 C13.7058543,5.05978053 11.2620561,2.71703532 8.26277368,2.71703532 C5.26804077,2.71703532 2.82697234,5.05281558 2.77006425,7.94677568 C2.76915435,7.98109564 2.76871239,8.01554183 2.76871239,8.05006379 C2.76871239,10.2582543 4.61441666,12.0498603 6.88928436,12.0498603 C9.16415205,12.0498603 11.0098563,10.2582543 11.0098563,8.05006379 C11.0098563,6.06901627 9.52424065,4.4235479 7.57602899,4.10593629 C7.79942381,4.06952174 8.02877196,4.05026719 8.26277368,4.05026719 C10.522173,4.05026719 12.3578163,5.81749595 12.3828517,8.0048169 C12.3577383,10.9255516 9.90403522,13.2926994 6.88928436,13.2926994 C3.86618839,13.2926994 1.40718182,10.9124545 1.39548304,7.98059099 C1.40133243,5.99611147 2.31880313,4.12074942 3.89330357,2.85820164 C6.82062549,0.516642494 11.147252,0.916647389 13.5680426,3.75819372 L14.6240009,2.90816755 C13.0529841,1.0665956 10.7266417,0 8.26277368,0 C3.72679087,0 0.0443773902,3.56158543 0.0221496991,7.95967091 L0.0216297532,7.95967091 C0.0216297532,7.96635822 0.0218637288,7.97296989 0.0218897261,7.97965726 C0.0218637288,7.98631938 0.0216297532,7.99293104 0.0216297532,7.99959316 L0.0221496991,7.99959316 C0.0443253955,11.6642396 3.10865308,14.6259312 6.88928436,14.6259312 C10.6525234,14.6177298 13.7059062,11.6913423 13.7557691,8.05006379 L13.756939,8.05006379 C13.756939,8.03497307 13.756471,8.02000852 13.756341,8.00496832 C13.756445,7.98982709 13.756939,7.97481208 13.756939,7.95967091 L13.7557691,7.95967091 Z" id="Fill-3" fill="#AB091C"></path>
            </g>
            <path d="M0.162659621,1.62630758 C0.788769272,1.62630758 1.30098834,2.13852664 1.30098834,2.76463629 C1.30098834,2.85409429 1.37418999,2.92729592 1.46364796,2.92729592 C1.55310592,2.92729592 1.62630758,2.85409429 1.62630758,2.76463629 C1.62630758,2.13852664 2.13852664,1.62630758 2.76463629,1.62630758 C2.85409429,1.62630758 2.92729592,1.55310592 2.92729592,1.46364796 C2.92729592,1.37418999 2.85409429,1.30098834 2.76463629,1.30098834 C2.13852664,1.30098834 1.62630758,0.788769272 1.62630758,0.162659621 C1.62630758,0.0732016302 1.55310592,0 1.46364796,0 C1.37418999,0 1.30098834,0.0732016302 1.30098834,0.162659621 C1.30098834,0.788769272 0.788769272,1.30098834 0.162659621,1.30098834 C0.0732016302,1.30098834 0,1.37418999 0,1.46364796 C0,1.55310592 0.0732016302,1.62630758 0.162659621,1.62630758 Z" id="Path" fill="url(#linearGradient-2)"></path>
            <path d="M0.162659621,15.0918688 C0.788769272,15.0918688 1.30098834,15.6040879 1.30098834,16.2301975 C1.30098834,16.3196555 1.37418999,16.3928571 1.46364796,16.3928571 C1.55310592,16.3928571 1.62630758,16.3196555 1.62630758,16.2301975 C1.62630758,15.6040879 2.13852664,15.0918688 2.76463629,15.0918688 C2.85409429,15.0918688 2.92729592,15.0186671 2.92729592,14.9292092 C2.92729592,14.8397512 2.85409429,14.7665496 2.76463629,14.7665496 C2.13852664,14.7665496 1.62630758,14.2543305 1.62630758,13.6282208 C1.62630758,13.5387628 1.55310592,13.4655612 1.46364796,13.4655612 C1.37418999,13.4655612 1.30098834,13.5387628 1.30098834,13.6282208 C1.30098834,14.2543305 0.788769272,14.7665496 0.162659621,14.7665496 C0.0732016302,14.7665496 0,14.8397512 0,14.9292092 C0,15.0186671 0.0732016302,15.0918688 0.162659621,15.0918688 Z" id="Path" fill="url(#linearGradient-3)"></path>
            <path d="M13.6282208,15.0918688 C14.2543305,15.0918688 14.7665496,15.6040879 14.7665496,16.2301975 C14.7665496,16.3196555 14.8397512,16.3928571 14.9292092,16.3928571 C15.0186671,16.3928571 15.0918688,16.3196555 15.0918688,16.2301975 C15.0918688,15.6040879 15.6040879,15.0918688 16.2301975,15.0918688 C16.3196555,15.0918688 16.3928571,15.0186671 16.3928571,14.9292092 C16.3928571,14.8397512 16.3196555,14.7665496 16.2301975,14.7665496 C15.6040879,14.7665496 15.0918688,14.2543305 15.0918688,13.6282208 C15.0918688,13.5387628 15.0186671,13.4655612 14.9292092,13.4655612 C14.8397512,13.4655612 14.7665496,13.5387628 14.7665496,13.6282208 C14.7665496,14.2543305 14.2543305,14.7665496 13.6282208,14.7665496 C13.5387628,14.7665496 13.4655612,14.8397512 13.4655612,14.9292092 C13.4655612,15.0186671 13.5387628,15.0918688 13.6282208,15.0918688 Z" id="Path" fill="url(#linearGradient-2)"></path>
        </g>
    </g>
</svg>