<?xml version="1.0" encoding="UTF-8"?>
<svg width="17px" height="17px" viewBox="0 0 17 17" version="1.1" xmlns="http://www.w3.org/2000/svg" xmlns:xlink="http://www.w3.org/1999/xlink">
    <!-- Generator: Sketch 52.4 (67378) - http://www.bohemiancoding.com/sketch -->
    <title>success-meteor</title>
    <desc>Created with Sketch.</desc>
    <defs>
        <linearGradient x1="50%" y1="0%" x2="50%" y2="100%" id="linearGradient-1">
            <stop stop-color="#E8FCF3" offset="0%"></stop>
            <stop stop-color="#CCF8E4" offset="100%"></stop>
        </linearGradient>
        <path d="M4.09816375,8.19642857 C1.83564743,8.19642857 0,6.36078114 0,4.09826482 C0,1.83564743 1.83564743,0 4.09816375,0 C6.36078114,0 8.19642857,1.83564743 8.19642857,4.09826482 C8.19642857,6.36078114 6.36078114,8.19642857 4.09816375,8.19642857 Z" id="path-2"></path>
        <linearGradient x1="50%" y1="0%" x2="50%" y2="100%" id="linearGradient-4">
            <stop stop-color="#6FEA3D" offset="0%"></stop>
            <stop stop-color="#72FF4E" offset="100%"></stop>
        </linearGradient>
    </defs>
    <g id="Page-1" stroke="none" stroke-width="1" fill="none" fill-rule="evenodd">
        <g id="meteor_alerts_17px">
            <g id="success-meteor" transform="translate(-1.000000, 0.000000)">
                <g id="Group" transform="translate(8.892857, 8.500000) scale(-1, 1) translate(-8.892857, -8.500000) translate(0.392857, 0.000000)">
                    <path d="M16.2220502,8.75558474 L13.5262716,8.75558474 L15.6277921,5.20385466 C15.6794889,5.12514366 15.6535895,5.01142698 15.5675301,4.96772168 C15.5416308,4.95021882 15.5071662,4.94141562 15.4813688,4.94141562 L12.777025,4.94141562 L16.0498296,0.278824862 C16.1531212,0.130102509 15.9809005,-0.0711283423 15.817245,0.0250854848 L9.0132538,4.17160139 L9.68500613,1.45099729 C9.71947065,1.31107813 9.58171449,1.19736147 9.45252354,1.24976641 C8.50505489,1.65222817 5.61982329,2.91191477 3.75088735,4.17160139 C2.06283924,5.32637451 0.193801344,6.98841932 0.0130155255,9.82274013 C-0.211003902,13.3219616 2.48477478,16.3575133 5.93846724,16.392519 C11.3042272,16.4449239 15.489934,10.391427 16.3684736,9.02672339 C16.4374025,8.91300668 16.3512413,8.75558474 16.2220502,8.75558474 Z" id="Path" fill="#FFFFFF"></path>
                    <g id="Path" transform="translate(2.341837, 5.854592)">
                        <g id="Group">
                            <g id="Mask" fill="url(#linearGradient-1)">
                                <path d="M4.09816375,8.19642857 C1.83564743,8.19642857 0,6.36078114 0,4.09826482 C0,1.83564743 1.83564743,0 4.09816375,0 C6.36078114,0 8.19642857,1.83564743 8.19642857,4.09826482 C8.19642857,6.36078114 6.36078114,8.19642857 4.09816375,8.19642857 Z" id="path-1"></path>
                            </g>
                            <g id="Clipped">
                                <g id="Path-Clipped">
                                    <mask id="mask-3" fill="white">
                                        <use xlink:href="#path-2"></use>
                                    </mask>
                                    <g id="path-1"></g>
                                    <path d="M4.97359385,7.48286086 C2.62028864,7.48286086 0.711066772,5.58326411 0.711066772,3.23081189 C0.711066772,2.27213295 1.03077732,1.34004312 1.62572703,0.585459183 C-0.221361024,2.04134376 -0.541071575,4.71328556 0.906404574,6.56853207 C2.35388071,8.42388377 5.03572768,8.73454536 6.89164694,7.28759388 C7.15805491,7.07456579 7.39786408,6.83484356 7.6109694,6.56853207 C6.85611184,7.1633713 5.93262043,7.48286086 4.97359385,7.48286086 Z" id="Path" fill="url(#linearGradient-4)" mask="url(#mask-3)"></path>
                                </g>
                            </g>
                        </g>
                    </g>
                </g>
            </g>
        </g>
    </g>
</svg>