<?xml version="1.0" encoding="UTF-8"?>
<svg width="17px" height="17px" viewBox="0 0 17 17" version="1.1" xmlns="http://www.w3.org/2000/svg" xmlns:xlink="http://www.w3.org/1999/xlink">
    <!-- Generator: Sketch 52.4 (67378) - http://www.bohemiancoding.com/sketch -->
    <title>warning-moon</title>
    <desc>Created with Sketch.</desc>
    <defs>
        <linearGradient x1="15.5220072%" y1="84.4658852%" x2="90.7542887%" y2="9.23382818%" id="linearGradient-1">
            <stop stop-color="#FF99B5" offset="0%"></stop>
            <stop stop-color="#FFDC68" offset="100%"></stop>
        </linearGradient>
        <linearGradient x1="20.1493247%" y1="79.8406056%" x2="94.456332%" y2="5.53581604%" id="linearGradient-2">
            <stop stop-color="#FF99B5" offset="0%"></stop>
            <stop stop-color="#FFDC68" offset="100%"></stop>
        </linearGradient>
        <linearGradient x1="19.2233581%" y1="80.7647001%" x2="90.8416377%" y2="9.14664434%" id="linearGradient-3">
            <stop stop-color="#FF99B5" offset="0%"></stop>
            <stop stop-color="#FFDC68" offset="100%"></stop>
        </linearGradient>
        <path d="M15.678287,12.3082201 C15.5500767,12.1042727 15.3280413,11.9786049 15.0875552,11.9740867 C14.9437249,11.9718802 14.7975881,11.9999348 14.6539675,12.0096016 C14.4954605,12.020319 14.3366391,12.0257829 14.177608,12.0257829 C10.26169,12.0250473 7.0877774,8.8427951 7.0884064,4.91788419 C7.0887209,3.56212241 7.47576293,2.23473046 8.20414001,1.09237272 C8.41097483,0.75508716 8.3058277,0.31356885 7.96931495,0.106153993 C7.8368065,0.0245119859 7.68123489,-0.0116332554 7.52629228,0.00328717745 C2.8594582,0.546516518 -0.484388144,4.77876703 0.057596554,9.45642358 C0.599581225,14.1339751 4.82213464,17.4855006 9.48907354,16.9422712 C12.0264425,16.6469099 14.2971172,15.2243215 15.6736744,13.0675854 C15.8213836,12.836529 15.8231658,12.5410627 15.678287,12.3082201 Z" id="path-4"></path>
    </defs>
    <g id="Page-1" stroke="none" stroke-width="1" fill="none" fill-rule="evenodd">
        <g id="meteor_alerts_17px">
            <g id="warning-moon">
                <g id="Group-2" transform="translate(9.107143, 0.607143)">
                    <path d="M5.02573821,1.68655227 C5.67747404,1.6872506 6.20560654,2.21538307 6.20630487,2.8671189 C6.20630487,2.96019554 6.28182361,3.03571429 6.375,3.03571429 C6.46817639,3.03571429 6.54359537,2.96019554 6.54359537,2.8671189 C6.54439346,2.21538307 7.07252591,1.6872506 7.72426177,1.68655227 C7.81733841,1.68655227 7.89285714,1.61103352 7.89285714,1.51785713 C7.89285714,1.42468077 7.81733841,1.34926177 7.72426177,1.34926177 C7.07252591,1.34846368 6.54439346,0.820331187 6.54359537,0.168695113 C6.54359537,0.0755187491 6.46817639,0 6.375,0 C6.28182361,0 6.20630487,0.0755187491 6.20630487,0.168695113 C6.20560654,0.820331187 5.67747404,1.34846368 5.02573821,1.34926177 C4.9326616,1.34926177 4.85714286,1.42468077 4.85714286,1.51785713 C4.85714286,1.61103352 4.9326616,1.68655227 5.02573821,1.68655227 Z" id="Path" fill="url(#linearGradient-1)"></path>
                    <path d="M4.41859536,8.36506827 C5.07033119,8.3658663 5.59846368,8.89388168 5.59916199,9.54559611 C5.59916199,9.63876941 5.67468077,9.71428571 5.76785713,9.71428571 C5.86093374,9.71428571 5.93645251,9.63876941 5.93645251,9.54559611 C5.9372506,8.89398144 6.46538305,8.3658663 7.11701916,8.36506827 C7.21019555,8.36506827 7.28571429,8.28955202 7.28571429,8.19647842 C7.28571429,8.10330512 7.21019555,8.02778887 7.11701916,8.02778887 C6.46538305,8.02709054 5.9372506,7.49897546 5.93645251,6.84726097 C5.93645251,6.75408767 5.86093374,6.67857143 5.76785713,6.67857143 C5.67468077,6.67857143 5.59916199,6.75408767 5.59916199,6.84726097 C5.59846368,7.49897546 5.07033119,8.02709054 4.41859536,8.02778887 C4.32551875,8.02778887 4.25,8.10330512 4.25,8.19647842 C4.25,8.28955202 4.32551875,8.36506827 4.41859536,8.36506827 Z" id="Path" fill="url(#linearGradient-2)"></path>
                    <path d="M0.168695137,4.72226656 C0.820331205,4.72296489 1.34846367,5.25109738 1.34926176,5.90283321 C1.34926176,5.99600958 1.42478051,6.07142857 1.51785714,6.07142857 C1.61103351,6.07142857 1.68655225,5.99600958 1.68655225,5.90283321 C1.68725058,5.25109738 2.21538308,4.72296489 2.8671189,4.72226656 C2.96029527,4.72226656 3.03571429,4.6467478 3.03571429,4.55357144 C3.03571429,4.46049481 2.96029527,4.38497606 2.8671189,4.38497606 C2.21538308,4.38417797 1.68725058,3.8560455 1.68655225,3.2044094 C1.68655225,3.11123303 1.61103351,3.03571429 1.51785714,3.03571429 C1.42478051,3.03571429 1.34926176,3.11123303 1.34926176,3.2044094 C1.34846367,3.8560455 0.820331205,4.38417797 0.168695137,4.38497606 C0.0755187485,4.38497606 0,4.46049481 0,4.55357144 C0,4.6467478 0.0755187485,4.72226656 0.168695137,4.72226656 Z" id="Path" fill="url(#linearGradient-3)"></path>
                </g>
                <g id="Path">
                    <g id="Mask" fill="#FFFFFF">
                        <path d="M15.678287,12.3082201 C15.5500767,12.1042727 15.3280413,11.9786049 15.0875552,11.9740867 C14.9437249,11.9718802 14.7975881,11.9999348 14.6539675,12.0096016 C14.4954605,12.020319 14.3366391,12.0257829 14.177608,12.0257829 C10.26169,12.0250473 7.0877774,8.8427951 7.0884064,4.91788419 C7.0887209,3.56212241 7.47576293,2.23473046 8.20414001,1.09237272 C8.41097483,0.75508716 8.3058277,0.31356885 7.96931495,0.106153993 C7.8368065,0.0245119859 7.68123489,-0.0116332554 7.52629228,0.00328717745 C2.8594582,0.546516518 -0.484388144,4.77876703 0.057596554,9.45642358 C0.599581225,14.1339751 4.82213464,17.4855006 9.48907354,16.9422712 C12.0264425,16.6469099 14.2971172,15.2243215 15.6736744,13.0675854 C15.8213836,12.836529 15.8231658,12.5410627 15.678287,12.3082201 Z" id="path-4"></path>
                    </g>
                    <g id="Clipped">
                        <mask id="mask-5" fill="white">
                            <use xlink:href="#path-4"></use>
                        </mask>
                        <g id="path-4"></g>
                        <path d="M9.68270226,15.8169925 C4.69790094,15.8157012 0.658063461,11.9041195 0.659286654,7.08009734 C0.659842639,4.9546565 1.46113821,2.90239171 2.91327797,1.30769231 C-1.05772766,4.2228962 -1.83489322,9.70141344 1.17747114,13.5442311 C4.18983548,17.3871564 9.85094544,18.1391477 13.8218399,15.2239438 C14.2962122,14.8758196 14.7336667,14.4831442 15.1279762,14.0516208 C13.5610797,15.2002693 11.6484674,15.8204361 9.68270226,15.8169925 Z" id="Path" fill="#FFB694" mask="url(#mask-5)"></path>
                    </g>
                </g>
            </g>
        </g>
    </g>
</svg>