<svg width="33" height="32" viewBox="0 0 33 32" fill="none" xmlns="http://www.w3.org/2000/svg">
<path d="M12.25 4.00004V1.33337H20.25V4.00004H12.25ZM14.9167 18.6667H17.5833V10.6667H14.9167V18.6667ZM16.25 29.3334C14.6056 29.3334 13.0556 29.0167 11.6 28.3834C10.1444 27.75 8.87222 26.8889 7.78333 25.8C6.69444 24.7112 5.83333 23.4389 5.2 21.9834C4.56667 20.5278 4.25 18.9778 4.25 17.3334C4.25 15.6889 4.56667 14.1389 5.2 12.6834C5.83333 11.2278 6.69444 9.9556 7.78333 8.86671C8.87222 7.77782 10.1444 6.91671 11.6 6.28337C13.0556 5.65004 14.6056 5.33337 16.25 5.33337C17.6278 5.33337 18.95 5.5556 20.2167 6.00004C21.4833 6.44449 22.6722 7.08893 23.7833 7.93337L25.65 6.06671L27.5167 7.93337L25.65 9.80004C26.4944 10.9112 27.1389 12.1 27.5833 13.3667C28.0278 14.6334 28.25 15.9556 28.25 17.3334C28.25 18.9778 27.9333 20.5278 27.3 21.9834C26.6667 23.4389 25.8056 24.7112 24.7167 25.8C23.6278 26.8889 22.3556 27.75 20.9 28.3834C19.4444 29.0167 17.8944 29.3334 16.25 29.3334ZM16.25 26.6667C18.8278 26.6667 21.0278 25.7556 22.85 23.9334C24.6722 22.1112 25.5833 19.9112 25.5833 17.3334C25.5833 14.7556 24.6722 12.5556 22.85 10.7334C21.0278 8.91115 18.8278 8.00004 16.25 8.00004C13.6722 8.00004 11.4722 8.91115 9.65 10.7334C7.82778 12.5556 6.91667 14.7556 6.91667 17.3334C6.91667 19.9112 7.82778 22.1112 9.65 23.9334C11.4722 25.7556 13.6722 26.6667 16.25 26.6667Z" fill="black"/>
</svg>
