<svg width="27" height="32" viewBox="0 0 27 32" fill="none" xmlns="http://www.w3.org/2000/svg">
<g clip-path="url(#clip0_436_4968)">
<mask id="mask0_436_4968" style="mask-type:alpha" maskUnits="userSpaceOnUse" x="0" y="0" width="26" height="32">
<path d="M16.5121 0H3.23385C1.94508 0 0.890625 0.968182 0.890625 2.15151V29.404C0.890625 30.5874 1.94508 31.5556 3.23385 31.5556H23.5418C24.8306 31.5556 25.8851 30.5874 25.8851 29.404V8.60605L16.5121 0Z" fill="white"/>
</mask>
<g mask="url(#mask0_436_4968)">
<path d="M16.5121 0H3.23385C1.94508 0 0.890625 0.968182 0.890625 2.15151V29.404C0.890625 30.5874 1.94508 31.5556 3.23385 31.5556H23.5418C24.8306 31.5556 25.8851 30.5874 25.8851 29.404V8.60605L20.4175 5.02019L16.5121 0Z" fill="#673AB7"/>
</g>
<mask id="mask1_436_4968" style="mask-type:alpha" maskUnits="userSpaceOnUse" x="0" y="0" width="26" height="32">
<path d="M16.5121 0H3.23385C1.94508 0 0.890625 0.968182 0.890625 2.15151V29.404C0.890625 30.5874 1.94508 31.5556 3.23385 31.5556H23.5418C24.8306 31.5556 25.8851 30.5874 25.8851 29.404V8.60605L16.5121 0Z" fill="white"/>
</mask>
<g mask="url(#mask1_436_4968)">
<path d="M11.0449 24.3838H19.6368V22.9495H11.0449V24.3838ZM11.0449 15.7778V17.2121H19.6368V15.7778H11.0449ZM9.09226 16.4949C9.09226 17.0884 8.56698 17.5707 7.92066 17.5707C7.2743 17.5707 6.74902 17.0884 6.74902 16.4949C6.74902 15.9015 7.2743 15.4192 7.92066 15.4192C8.56698 15.4192 9.09226 15.9015 9.09226 16.4949ZM9.09226 20.0808C9.09226 20.6743 8.56698 21.1566 7.92066 21.1566C7.2743 21.1566 6.74902 20.6743 6.74902 20.0808C6.74902 19.4873 7.2743 19.005 7.92066 19.005C8.56698 19.005 9.09226 19.4873 9.09226 20.0808ZM9.09226 23.6666C9.09226 24.2601 8.56698 24.7424 7.92066 24.7424C7.2743 24.7424 6.74902 24.2601 6.74902 23.6666C6.74902 23.0732 7.2743 22.5909 7.92066 22.5909C8.56698 22.5909 9.09226 23.0732 9.09226 23.6666ZM11.0449 20.798H19.6368V19.3636H11.0449V20.798Z" fill="#F1F1F1"/>
</g>
<mask id="mask2_436_4968" style="mask-type:alpha" maskUnits="userSpaceOnUse" x="0" y="0" width="26" height="32">
<path d="M16.5121 0H3.23385C1.94508 0 0.890625 0.968182 0.890625 2.15151V29.404C0.890625 30.5874 1.94508 31.5556 3.23385 31.5556H23.5418C24.8306 31.5556 25.8851 30.5874 25.8851 29.404V8.60605L16.5121 0Z" fill="white"/>
</mask>
<g mask="url(#mask2_436_4968)">
<path d="M17.1973 7.97668L25.8848 15.9516V8.606L17.1973 7.97668Z" fill="url(#paint0_linear_436_4968)"/>
</g>
<mask id="mask3_436_4968" style="mask-type:alpha" maskUnits="userSpaceOnUse" x="0" y="0" width="26" height="32">
<path d="M16.5121 0H3.23385C1.94508 0 0.890625 0.968182 0.890625 2.15151V29.404C0.890625 30.5874 1.94508 31.5556 3.23385 31.5556H23.5418C24.8306 31.5556 25.8851 30.5874 25.8851 29.404V8.60605L16.5121 0Z" fill="white"/>
</mask>
<g mask="url(#mask3_436_4968)">
<path d="M16.5117 0V6.45456C16.5117 7.64326 17.5603 8.60605 18.855 8.60605H25.8846L16.5117 0Z" fill="#B39DDB"/>
</g>
<mask id="mask4_436_4968" style="mask-type:alpha" maskUnits="userSpaceOnUse" x="0" y="0" width="26" height="32">
<path d="M16.5121 0H3.23385C1.94508 0 0.890625 0.968182 0.890625 2.15151V29.404C0.890625 30.5874 1.94508 31.5556 3.23385 31.5556H23.5418C24.8306 31.5556 25.8851 30.5874 25.8851 29.404V8.60605L16.5121 0Z" fill="white"/>
</mask>
<g mask="url(#mask4_436_4968)">
<path d="M3.23385 0C1.94508 0 0.890625 0.968183 0.890625 2.15151V2.33081C0.890625 1.14748 1.94508 0.179293 3.23385 0.179293H16.5121V0H3.23385Z" fill="white" fill-opacity="0.2"/>
</g>
<mask id="mask5_436_4968" style="mask-type:alpha" maskUnits="userSpaceOnUse" x="0" y="0" width="26" height="32">
<path d="M16.5121 0H3.23385C1.94508 0 0.890625 0.968182 0.890625 2.15151V29.404C0.890625 30.5874 1.94508 31.5556 3.23385 31.5556H23.5418C24.8306 31.5556 25.8851 30.5874 25.8851 29.404V8.60605L16.5121 0Z" fill="white"/>
</mask>
<g mask="url(#mask5_436_4968)">
<path d="M23.5418 31.3763H3.23385C1.94508 31.3763 0.890625 30.4081 0.890625 29.2247V29.404C0.890625 30.5874 1.94508 31.5555 3.23385 31.5555H23.5418C24.8306 31.5555 25.8851 30.5874 25.8851 29.404V29.2247C25.8851 30.4081 24.8306 31.3763 23.5418 31.3763Z" fill="#311B92" fill-opacity="0.2"/>
</g>
<mask id="mask6_436_4968" style="mask-type:alpha" maskUnits="userSpaceOnUse" x="0" y="0" width="26" height="32">
<path d="M16.5121 0H3.23385C1.94508 0 0.890625 0.968182 0.890625 2.15151V29.404C0.890625 30.5874 1.94508 31.5556 3.23385 31.5556H23.5418C24.8306 31.5556 25.8851 30.5874 25.8851 29.404V8.60605L16.5121 0Z" fill="white"/>
</mask>
<g mask="url(#mask6_436_4968)">
<path d="M18.855 8.60608C17.5603 8.60608 16.5117 7.64329 16.5117 6.45459V6.63385C16.5117 7.82259 17.5603 8.78537 18.855 8.78537H25.8846V8.60608H18.855Z" fill="#311B92" fill-opacity="0.1"/>
</g>
<path d="M16.5121 0H3.23385C1.94508 0 0.890625 0.968182 0.890625 2.15151V29.404C0.890625 30.5874 1.94508 31.5556 3.23385 31.5556H23.5418C24.8306 31.5556 25.8851 30.5874 25.8851 29.404V8.60605L16.5121 0Z" fill="url(#paint1_radial_436_4968)"/>
</g>
<defs>
<linearGradient id="paint0_linear_436_4968" x1="21.5415" y1="8.66145" x2="21.5415" y2="15.9527" gradientUnits="userSpaceOnUse">
<stop stop-color="#311B92" stop-opacity="0.2"/>
<stop offset="1" stop-color="#311B92" stop-opacity="0.02"/>
</linearGradient>
<radialGradient id="paint1_radial_436_4968" cx="0" cy="0" r="1" gradientUnits="userSpaceOnUse" gradientTransform="translate(1.68246 0.627233) scale(40.3032 37.0058)">
<stop stop-color="white" stop-opacity="0.1"/>
<stop offset="1" stop-color="white" stop-opacity="0"/>
</radialGradient>
<clipPath id="clip0_436_4968">
<rect width="25.4415" height="32" fill="white" transform="translate(0.890625)"/>
</clipPath>
</defs>
</svg>
