<svg  viewBox="0 0 24 32" fill="none" xmlns="http://www.w3.org/2000/svg">
<g clip-path="url(#clip0_2_84)">
<mask id="mask0_2_84" style="mask-type:alpha" maskUnits="userSpaceOnUse" x="0" y="0" width="24" height="32">
<path d="M14.5278 0.457703H2.51784C1.35217 0.457703 0.398438 1.41143 0.398438 2.57711V29.4229C0.398438 30.5886 1.35217 31.5423 2.51784 31.5423H20.886C22.0517 31.5423 23.0054 30.5886 23.0054 29.4229V8.93532L14.5278 0.457703Z" fill="white"/>
</mask>
<g mask="url(#mask0_2_84)">
<path d="M14.5278 0.457703H2.51784C1.35217 0.457703 0.398438 1.41143 0.398438 2.57711V29.4229C0.398438 30.5886 1.35217 31.5423 2.51784 31.5423H20.886C22.0517 31.5423 23.0054 30.5886 23.0054 29.4229V8.93532L18.0601 5.40296L14.5278 0.457703Z" fill="#0F9D58"/>
</g>
<mask id="mask1_2_84" style="mask-type:alpha" maskUnits="userSpaceOnUse" x="0" y="0" width="24" height="32">
<path d="M14.5278 0.457703H2.51784C1.35217 0.457703 0.398438 1.41143 0.398438 2.57711V29.4229C0.398438 30.5886 1.35217 31.5423 2.51784 31.5423H20.886C22.0517 31.5423 23.0054 30.5886 23.0054 29.4229V8.93532L14.5278 0.457703Z" fill="white"/>
</mask>
<g mask="url(#mask1_2_84)">
<path d="M6.0498 15.6468V25.8905H17.3533V15.6468H6.0498ZM10.9951 24.4776H7.46276V22.7114H10.9951V24.4776ZM10.9951 21.6517H7.46276V19.8855H10.9951V21.6517ZM10.9951 18.8259H7.46276V17.0597H10.9951V18.8259ZM15.9404 24.4776H12.408V22.7114H15.9404V24.4776ZM15.9404 21.6517H12.408V19.8855H15.9404V21.6517ZM15.9404 18.8259H12.408V17.0597H15.9404V18.8259Z" fill="#F1F1F1"/>
</g>
<mask id="mask2_2_84" style="mask-type:alpha" maskUnits="userSpaceOnUse" x="0" y="0" width="24" height="32">
<path d="M14.5278 0.457703H2.51784C1.35217 0.457703 0.398438 1.41143 0.398438 2.57711V29.4229C0.398438 30.5886 1.35217 31.5423 2.51784 31.5423H20.886C22.0517 31.5423 23.0054 30.5886 23.0054 29.4229V8.93532L14.5278 0.457703Z" fill="white"/>
</mask>
<g mask="url(#mask2_2_84)">
<path d="M15.1475 8.31537L23.0052 16.1713V8.9353L15.1475 8.31537Z" fill="url(#paint0_linear_2_84)"/>
</g>
<mask id="mask3_2_84" style="mask-type:alpha" maskUnits="userSpaceOnUse" x="0" y="0" width="24" height="32">
<path d="M14.5278 0.457703H2.51784C1.35217 0.457703 0.398438 1.41143 0.398438 2.57711V29.4229C0.398438 30.5886 1.35217 31.5423 2.51784 31.5423H20.886C22.0517 31.5423 23.0054 30.5886 23.0054 29.4229V8.93532L14.5278 0.457703Z" fill="white"/>
</mask>
<g mask="url(#mask3_2_84)">
<path d="M14.5273 0.457703V6.81592C14.5273 7.98687 15.4758 8.93531 16.6467 8.93531H23.0049L14.5273 0.457703Z" fill="#87CEAC"/>
</g>
<mask id="mask4_2_84" style="mask-type:alpha" maskUnits="userSpaceOnUse" x="0" y="0" width="24" height="32">
<path d="M14.5278 0.457703H2.51784C1.35217 0.457703 0.398438 1.41143 0.398438 2.57711V29.4229C0.398438 30.5886 1.35217 31.5423 2.51784 31.5423H20.886C22.0517 31.5423 23.0054 30.5886 23.0054 29.4229V8.93532L14.5278 0.457703Z" fill="white"/>
</mask>
<g mask="url(#mask4_2_84)">
<path d="M2.51784 0.457703C1.35217 0.457703 0.398438 1.41143 0.398438 2.57711V2.75372C0.398438 1.58805 1.35217 0.63432 2.51784 0.63432H14.5278V0.457703H2.51784Z" fill="white" fill-opacity="0.2"/>
</g>
<mask id="mask5_2_84" style="mask-type:alpha" maskUnits="userSpaceOnUse" x="0" y="0" width="24" height="32">
<path d="M14.5278 0.457703H2.51784C1.35217 0.457703 0.398438 1.41143 0.398438 2.57711V29.4229C0.398438 30.5886 1.35217 31.5423 2.51784 31.5423H20.886C22.0517 31.5423 23.0054 30.5886 23.0054 29.4229V8.93532L14.5278 0.457703Z" fill="white"/>
</mask>
<g mask="url(#mask5_2_84)">
<path d="M20.886 31.3656H2.51784C1.35217 31.3656 0.398438 30.4119 0.398438 29.2462V29.4229C0.398438 30.5886 1.35217 31.5423 2.51784 31.5423H20.886C22.0517 31.5423 23.0054 30.5886 23.0054 29.4229V29.2462C23.0054 30.4119 22.0517 31.3656 20.886 31.3656Z" fill="#263238" fill-opacity="0.2"/>
</g>
<mask id="mask6_2_84" style="mask-type:alpha" maskUnits="userSpaceOnUse" x="0" y="0" width="24" height="32">
<path d="M14.5278 0.457703H2.51784C1.35217 0.457703 0.398438 1.41143 0.398438 2.57711V29.4229C0.398438 30.5886 1.35217 31.5423 2.51784 31.5423H20.886C22.0517 31.5423 23.0054 30.5886 23.0054 29.4229V8.93532L14.5278 0.457703Z" fill="white"/>
</mask>
<g mask="url(#mask6_2_84)">
<path d="M16.6467 8.93531C15.4758 8.93531 14.5273 7.98686 14.5273 6.81592V6.99253C14.5273 8.1635 15.4758 9.11192 16.6467 9.11192H23.0049V8.93531H16.6467Z" fill="#263238" fill-opacity="0.1"/>
</g>
</g>
<defs>
<linearGradient id="paint0_linear_2_84" x1="19.0767" y1="8.9899" x2="19.0767" y2="16.1724" gradientUnits="userSpaceOnUse">
<stop stop-color="#263238" stop-opacity="0.2"/>
<stop offset="1" stop-color="#263238" stop-opacity="0.02"/>
</linearGradient>
<clipPath id="clip0_2_84">
<rect width="23.68" height="32" fill="white"/>
</clipPath>
</defs>
</svg>
