<svg width="36" height="36" viewBox="0 0 36 36" fill="none" xmlns="http://www.w3.org/2000/svg">
<mask id="mask0_503_40" style="mask-type:alpha" maskUnits="userSpaceOnUse" x="0" y="0" width="36" height="36">
<rect width="36" height="36" fill="#D9D9D9"/>
</mask>
<g mask="url(#mask0_503_40)">
</g>
<g clip-path="url(#clip0_503_40)">
<mask id="mask1_503_40" style="mask-type:alpha" maskUnits="userSpaceOnUse" x="7" y="2" width="23" height="31">
<path d="M20.9311 2H9.08966C7.94035 2 7 2.94035 7 4.08966V30.5587C7 31.708 7.94035 32.6483 9.08966 32.6483H27.2C28.3493 32.6483 29.2897 31.708 29.2897 30.5587V10.3586L20.9311 2Z" fill="white"/>
</mask>
<g mask="url(#mask1_503_40)">
<path d="M20.9311 2H9.08966C7.94035 2 7 2.94035 7 4.08966V30.5587C7 31.708 7.94035 32.6483 9.08966 32.6483H27.2C28.3493 32.6483 29.2897 31.708 29.2897 30.5587V10.3586L24.4138 6.87586L20.9311 2Z" fill="#673AB7"/>
</g>
<mask id="mask2_503_40" style="mask-type:alpha" maskUnits="userSpaceOnUse" x="7" y="2" width="23" height="31">
<path d="M20.9311 2H9.08966C7.94035 2 7 2.94035 7 4.08966V30.5587C7 31.708 7.94035 32.6483 9.08966 32.6483H27.2C28.3493 32.6483 29.2897 31.708 29.2897 30.5587V10.3586L20.9311 2Z" fill="white"/>
</mask>
<g mask="url(#mask2_503_40)">
<path d="M16.0557 25.6827H23.7177V24.2896H16.0557V25.6827ZM16.0557 17.3241V18.7172H23.7177V17.3241H16.0557ZM14.3143 18.0206C14.3143 18.5971 13.8458 19.0655 13.2695 19.0655C12.693 19.0655 12.2246 18.5971 12.2246 18.0206C12.2246 17.4443 12.693 16.9758 13.2695 16.9758C13.8458 16.9758 14.3143 17.4443 14.3143 18.0206ZM14.3143 21.5034C14.3143 22.0798 13.8458 22.5483 13.2695 22.5483C12.693 22.5483 12.2246 22.0798 12.2246 21.5034C12.2246 20.927 12.693 20.4586 13.2695 20.4586C13.8458 20.4586 14.3143 20.927 14.3143 21.5034ZM14.3143 24.9862C14.3143 25.5626 13.8458 26.031 13.2695 26.031C12.693 26.031 12.2246 25.5626 12.2246 24.9862C12.2246 24.4098 12.693 23.9414 13.2695 23.9414C13.8458 23.9414 14.3143 24.4098 14.3143 24.9862ZM16.0557 22.2H23.7177V20.8069H16.0557V22.2Z" fill="#F1F1F1"/>
</g>
<mask id="mask3_503_40" style="mask-type:alpha" maskUnits="userSpaceOnUse" x="7" y="2" width="23" height="31">
<path d="M20.9311 2H9.08966C7.94035 2 7 2.94035 7 4.08966V30.5587C7 31.708 7.94035 32.6483 9.08966 32.6483H27.2C28.3493 32.6483 29.2897 31.708 29.2897 30.5587V10.3586L20.9311 2Z" fill="white"/>
</mask>
<g mask="url(#mask3_503_40)">
<path d="M21.542 9.74731L29.2894 17.493V10.3585L21.542 9.74731Z" fill="url(#paint0_linear_503_40)"/>
</g>
<mask id="mask4_503_40" style="mask-type:alpha" maskUnits="userSpaceOnUse" x="7" y="2" width="23" height="31">
<path d="M20.9311 2H9.08966C7.94035 2 7 2.94035 7 4.08966V30.5587C7 31.708 7.94035 32.6483 9.08966 32.6483H27.2C28.3493 32.6483 29.2897 31.708 29.2897 30.5587V10.3586L20.9311 2Z" fill="white"/>
</mask>
<g mask="url(#mask4_503_40)">
<path d="M20.9307 2V8.26899C20.9307 9.42352 21.8658 10.3586 23.0203 10.3586H29.2893L20.9307 2Z" fill="#B39DDB"/>
</g>
<mask id="mask5_503_40" style="mask-type:alpha" maskUnits="userSpaceOnUse" x="7" y="2" width="23" height="31">
<path d="M20.9311 2H9.08966C7.94035 2 7 2.94035 7 4.08966V30.5587C7 31.708 7.94035 32.6483 9.08966 32.6483H27.2C28.3493 32.6483 29.2897 31.708 29.2897 30.5587V10.3586L20.9311 2Z" fill="white"/>
</mask>
<g mask="url(#mask5_503_40)">
<path d="M9.08966 2C7.94035 2 7 2.94035 7 4.08966V4.2638C7 3.11449 7.94035 2.17414 9.08966 2.17414H20.9311V2H9.08966Z" fill="white" fill-opacity="0.2"/>
</g>
<mask id="mask6_503_40" style="mask-type:alpha" maskUnits="userSpaceOnUse" x="7" y="2" width="23" height="31">
<path d="M20.9311 2H9.08966C7.94035 2 7 2.94035 7 4.08966V30.5587C7 31.708 7.94035 32.6483 9.08966 32.6483H27.2C28.3493 32.6483 29.2897 31.708 29.2897 30.5587V10.3586L20.9311 2Z" fill="white"/>
</mask>
<g mask="url(#mask6_503_40)">
<path d="M27.2 32.4742H9.08966C7.94035 32.4742 7 31.5339 7 30.3845V30.5587C7 31.708 7.94035 32.6483 9.08966 32.6483H27.2C28.3493 32.6483 29.2897 31.708 29.2897 30.5587V30.3845C29.2897 31.5339 28.3493 32.4742 27.2 32.4742Z" fill="#311B92" fill-opacity="0.2"/>
</g>
<mask id="mask7_503_40" style="mask-type:alpha" maskUnits="userSpaceOnUse" x="7" y="2" width="23" height="31">
<path d="M20.9311 2H9.08966C7.94035 2 7 2.94035 7 4.08966V30.5587C7 31.708 7.94035 32.6483 9.08966 32.6483H27.2C28.3493 32.6483 29.2897 31.708 29.2897 30.5587V10.3586L20.9311 2Z" fill="white"/>
</mask>
<g mask="url(#mask7_503_40)">
<path d="M23.0203 10.3587C21.8658 10.3587 20.9307 9.42357 20.9307 8.26904V8.44315C20.9307 9.59771 21.8658 10.5328 23.0203 10.5328H29.2893V10.3587H23.0203Z" fill="#311B92" fill-opacity="0.1"/>
</g>
<path d="M20.9311 2H9.08966C7.94035 2 7 2.94035 7 4.08966V30.5587C7 31.708 7.94035 32.6483 9.08966 32.6483H27.2C28.3493 32.6483 29.2897 31.708 29.2897 30.5587V10.3586L20.9311 2Z" fill="url(#paint1_radial_503_40)"/>
</g>
<defs>
<linearGradient id="paint0_linear_503_40" x1="25.4161" y1="10.4124" x2="25.4161" y2="17.4941" gradientUnits="userSpaceOnUse">
<stop stop-color="#311B92" stop-opacity="0.2"/>
<stop offset="1" stop-color="#311B92" stop-opacity="0.02"/>
</linearGradient>
<radialGradient id="paint1_radial_503_40" cx="0" cy="0" r="1" gradientUnits="userSpaceOnUse" gradientTransform="translate(7.70615 2.6092) scale(35.9418)">
<stop stop-color="white" stop-opacity="0.1"/>
<stop offset="1" stop-color="white" stop-opacity="0"/>
</radialGradient>
<clipPath id="clip0_503_40">
<rect width="22.6884" height="31.08" fill="white" transform="translate(7 2)"/>
</clipPath>
</defs>
</svg>
