<svg viewBox="0 0 36 36" fill="none" xmlns="http://www.w3.org/2000/svg">
<g clip-path="url(#clip0_2_84)">
<mask id="mask0_2_84" style="mask-type:alpha" maskUnits="userSpaceOnUse" x="7" y="2" width="24" height="32">
<path d="M21.5278 2.4577H9.51784C8.35217 2.4577 7.39844 3.41143 7.39844 4.57711V31.4229C7.39844 32.5886 8.35217 33.5423 9.51784 33.5423H27.886C29.0517 33.5423 30.0054 32.5886 30.0054 31.4229V10.9353L21.5278 2.4577Z" fill="white"/>
</mask>
<g mask="url(#mask0_2_84)">
<path d="M21.5278 2.4577H9.51784C8.35217 2.4577 7.39844 3.41143 7.39844 4.57711V31.4229C7.39844 32.5886 8.35217 33.5423 9.51784 33.5423H27.886C29.0517 33.5423 30.0054 32.5886 30.0054 31.4229V10.9353L25.0601 7.40296L21.5278 2.4577Z" fill="#0F9D58"/>
</g>
<mask id="mask1_2_84" style="mask-type:alpha" maskUnits="userSpaceOnUse" x="7" y="2" width="24" height="32">
<path d="M21.5278 2.4577H9.51784C8.35217 2.4577 7.39844 3.41143 7.39844 4.57711V31.4229C7.39844 32.5886 8.35217 33.5423 9.51784 33.5423H27.886C29.0517 33.5423 30.0054 32.5886 30.0054 31.4229V10.9353L21.5278 2.4577Z" fill="white"/>
</mask>
<g mask="url(#mask1_2_84)">
<path d="M13.0498 17.6468V27.8905H24.3533V17.6468H13.0498ZM17.9951 26.4776H14.4628V24.7114H17.9951V26.4776ZM17.9951 23.6517H14.4628V21.8855H17.9951V23.6517ZM17.9951 20.8259H14.4628V19.0597H17.9951V20.8259ZM22.9404 26.4776H19.408V24.7114H22.9404V26.4776ZM22.9404 23.6517H19.408V21.8855H22.9404V23.6517ZM22.9404 20.8259H19.408V19.0597H22.9404V20.8259Z" fill="#F1F1F1"/>
</g>
<mask id="mask2_2_84" style="mask-type:alpha" maskUnits="userSpaceOnUse" x="7" y="2" width="24" height="32">
<path d="M21.5278 2.4577H9.51784C8.35217 2.4577 7.39844 3.41143 7.39844 4.57711V31.4229C7.39844 32.5886 8.35217 33.5423 9.51784 33.5423H27.886C29.0517 33.5423 30.0054 32.5886 30.0054 31.4229V10.9353L21.5278 2.4577Z" fill="white"/>
</mask>
<g mask="url(#mask2_2_84)">
<path d="M22.1475 10.3154L30.0052 18.1713V10.9353L22.1475 10.3154Z" fill="url(#paint0_linear_2_84)"/>
</g>
<mask id="mask3_2_84" style="mask-type:alpha" maskUnits="userSpaceOnUse" x="7" y="2" width="24" height="32">
<path d="M21.5278 2.4577H9.51784C8.35217 2.4577 7.39844 3.41143 7.39844 4.57711V31.4229C7.39844 32.5886 8.35217 33.5423 9.51784 33.5423H27.886C29.0517 33.5423 30.0054 32.5886 30.0054 31.4229V10.9353L21.5278 2.4577Z" fill="white"/>
</mask>
<g mask="url(#mask3_2_84)">
<path d="M21.5273 2.4577V8.81592C21.5273 9.98687 22.4758 10.9353 23.6467 10.9353H30.0049L21.5273 2.4577Z" fill="#87CEAC"/>
</g>
<mask id="mask4_2_84" style="mask-type:alpha" maskUnits="userSpaceOnUse" x="7" y="2" width="24" height="32">
<path d="M21.5278 2.4577H9.51784C8.35217 2.4577 7.39844 3.41143 7.39844 4.57711V31.4229C7.39844 32.5886 8.35217 33.5423 9.51784 33.5423H27.886C29.0517 33.5423 30.0054 32.5886 30.0054 31.4229V10.9353L21.5278 2.4577Z" fill="white"/>
</mask>
<g mask="url(#mask4_2_84)">
<path d="M9.51784 2.4577C8.35217 2.4577 7.39844 3.41143 7.39844 4.57711V4.75372C7.39844 3.58805 8.35217 2.63432 9.51784 2.63432H21.5278V2.4577H9.51784Z" fill="white" fill-opacity="0.2"/>
</g>
<mask id="mask5_2_84" style="mask-type:alpha" maskUnits="userSpaceOnUse" x="7" y="2" width="24" height="32">
<path d="M21.5278 2.4577H9.51784C8.35217 2.4577 7.39844 3.41143 7.39844 4.57711V31.4229C7.39844 32.5886 8.35217 33.5423 9.51784 33.5423H27.886C29.0517 33.5423 30.0054 32.5886 30.0054 31.4229V10.9353L21.5278 2.4577Z" fill="white"/>
</mask>
<g mask="url(#mask5_2_84)">
<path d="M27.886 33.3656H9.51784C8.35217 33.3656 7.39844 32.4119 7.39844 31.2462V31.4229C7.39844 32.5886 8.35217 33.5423 9.51784 33.5423H27.886C29.0517 33.5423 30.0054 32.5886 30.0054 31.4229V31.2462C30.0054 32.4119 29.0517 33.3656 27.886 33.3656Z" fill="#263238" fill-opacity="0.2"/>
</g>
<mask id="mask6_2_84" style="mask-type:alpha" maskUnits="userSpaceOnUse" x="7" y="2" width="24" height="32">
<path d="M21.5278 2.4577H9.51784C8.35217 2.4577 7.39844 3.41143 7.39844 4.57711V31.4229C7.39844 32.5886 8.35217 33.5423 9.51784 33.5423H27.886C29.0517 33.5423 30.0054 32.5886 30.0054 31.4229V10.9353L21.5278 2.4577Z" fill="white"/>
</mask>
<g mask="url(#mask6_2_84)">
<path d="M23.6467 10.9353C22.4758 10.9353 21.5273 9.98686 21.5273 8.81592V8.99253C21.5273 10.1635 22.4758 11.1119 23.6467 11.1119H30.0049V10.9353H23.6467Z" fill="#263238" fill-opacity="0.1"/>
</g>
</g>
<defs>
<linearGradient id="paint0_linear_2_84" x1="26.0767" y1="10.9899" x2="26.0767" y2="18.1724" gradientUnits="userSpaceOnUse">
<stop stop-color="#263238" stop-opacity="0.2"/>
<stop offset="1" stop-color="#263238" stop-opacity="0.02"/>
</linearGradient>
<clipPath id="clip0_2_84">
<rect width="23.68" height="32" fill="white" transform="translate(7 2)"/>
</clipPath>
</defs>
</svg>
