<svg width="25" height="32" viewBox="0 0 25 32" fill="none" xmlns="http://www.w3.org/2000/svg">
<g clip-path="url(#clip0_436_4968)">
<mask id="mask0_436_4968" style="mask-type:alpha" maskUnits="userSpaceOnUse" x="0" y="0" width="25" height="32">
<path d="M15.4305 0H3.07161C1.87207 0 0.890625 0.968182 0.890625 2.15151V29.404C0.890625 30.5874 1.87207 31.5556 3.07161 31.5556H21.9735C23.173 31.5556 24.1545 30.5874 24.1545 29.404V8.60605L15.4305 0Z" fill="white"/>
</mask>
<g mask="url(#mask0_436_4968)">
<path d="M15.4305 0H3.07161C1.87207 0 0.890625 0.968182 0.890625 2.15151V29.404C0.890625 30.5874 1.87207 31.5556 3.07161 31.5556H21.9735C23.173 31.5556 24.1545 30.5874 24.1545 29.404V8.60605L19.0655 5.02019L15.4305 0Z" fill="#673AB7"/>
</g>
<mask id="mask1_436_4968" style="mask-type:alpha" maskUnits="userSpaceOnUse" x="0" y="0" width="25" height="32">
<path d="M15.4305 0H3.07161C1.87207 0 0.890625 0.968182 0.890625 2.15151V29.404C0.890625 30.5874 1.87207 31.5556 3.07161 31.5556H21.9735C23.173 31.5556 24.1545 30.5874 24.1545 29.404V8.60605L15.4305 0Z" fill="white"/>
</mask>
<g mask="url(#mask1_436_4968)">
<path d="M10.3413 24.3838H18.3382V22.9495H10.3413V24.3838ZM10.3413 15.7778V17.2121H18.3382V15.7778H10.3413ZM8.52377 16.4949C8.52377 17.0884 8.03486 17.5707 7.43329 17.5707C6.83168 17.5707 6.34277 17.0884 6.34277 16.4949C6.34277 15.9015 6.83168 15.4192 7.43329 15.4192C8.03486 15.4192 8.52377 15.9015 8.52377 16.4949ZM8.52377 20.0808C8.52377 20.6743 8.03486 21.1566 7.43329 21.1566C6.83168 21.1566 6.34277 20.6743 6.34277 20.0808C6.34277 19.4873 6.83168 19.005 7.43329 19.005C8.03486 19.005 8.52377 19.4873 8.52377 20.0808ZM8.52377 23.6666C8.52377 24.2601 8.03486 24.7424 7.43329 24.7424C6.83168 24.7424 6.34277 24.2601 6.34277 23.6666C6.34277 23.0732 6.83168 22.5909 7.43329 22.5909C8.03486 22.5909 8.52377 23.0732 8.52377 23.6666ZM10.3413 20.798H18.3382V19.3636H10.3413V20.798Z" fill="#F1F1F1"/>
</g>
<mask id="mask2_436_4968" style="mask-type:alpha" maskUnits="userSpaceOnUse" x="0" y="0" width="25" height="32">
<path d="M15.4305 0H3.07161C1.87207 0 0.890625 0.968182 0.890625 2.15151V29.404C0.890625 30.5874 1.87207 31.5556 3.07161 31.5556H21.9735C23.173 31.5556 24.1545 30.5874 24.1545 29.404V8.60605L15.4305 0Z" fill="white"/>
</mask>
<g mask="url(#mask2_436_4968)">
<path d="M16.0684 7.97668L24.1544 15.9516V8.606L16.0684 7.97668Z" fill="url(#paint0_linear_436_4968)"/>
</g>
<mask id="mask3_436_4968" style="mask-type:alpha" maskUnits="userSpaceOnUse" x="0" y="0" width="25" height="32">
<path d="M15.4305 0H3.07161C1.87207 0 0.890625 0.968182 0.890625 2.15151V29.404C0.890625 30.5874 1.87207 31.5556 3.07161 31.5556H21.9735C23.173 31.5556 24.1545 30.5874 24.1545 29.404V8.60605L15.4305 0Z" fill="white"/>
</mask>
<g mask="url(#mask3_436_4968)">
<path d="M15.4307 0V6.45456C15.4307 7.64326 16.4067 8.60605 17.6117 8.60605H24.1546L15.4307 0Z" fill="#B39DDB"/>
</g>
<mask id="mask4_436_4968" style="mask-type:alpha" maskUnits="userSpaceOnUse" x="0" y="0" width="25" height="32">
<path d="M15.4305 0H3.07161C1.87207 0 0.890625 0.968182 0.890625 2.15151V29.404C0.890625 30.5874 1.87207 31.5556 3.07161 31.5556H21.9735C23.173 31.5556 24.1545 30.5874 24.1545 29.404V8.60605L15.4305 0Z" fill="white"/>
</mask>
<g mask="url(#mask4_436_4968)">
<path d="M3.07161 0C1.87207 0 0.890625 0.968183 0.890625 2.15151V2.33081C0.890625 1.14748 1.87207 0.179293 3.07161 0.179293H15.4305V0H3.07161Z" fill="white" fill-opacity="0.2"/>
</g>
<mask id="mask5_436_4968" style="mask-type:alpha" maskUnits="userSpaceOnUse" x="0" y="0" width="25" height="32">
<path d="M15.4305 0H3.07161C1.87207 0 0.890625 0.968182 0.890625 2.15151V29.404C0.890625 30.5874 1.87207 31.5556 3.07161 31.5556H21.9735C23.173 31.5556 24.1545 30.5874 24.1545 29.404V8.60605L15.4305 0Z" fill="white"/>
</mask>
<g mask="url(#mask5_436_4968)">
<path d="M21.9735 31.3762H3.07161C1.87207 31.3762 0.890625 30.4081 0.890625 29.2247V29.404C0.890625 30.5874 1.87207 31.5555 3.07161 31.5555H21.9735C23.173 31.5555 24.1545 30.5874 24.1545 29.404V29.2247C24.1545 30.4081 23.173 31.3762 21.9735 31.3762Z" fill="#311B92" fill-opacity="0.2"/>
</g>
<mask id="mask6_436_4968" style="mask-type:alpha" maskUnits="userSpaceOnUse" x="0" y="0" width="25" height="32">
<path d="M15.4305 0H3.07161C1.87207 0 0.890625 0.968182 0.890625 2.15151V29.404C0.890625 30.5874 1.87207 31.5556 3.07161 31.5556H21.9735C23.173 31.5556 24.1545 30.5874 24.1545 29.404V8.60605L15.4305 0Z" fill="white"/>
</mask>
<g mask="url(#mask6_436_4968)">
<path d="M17.6117 8.60608C16.4067 8.60608 15.4307 7.64329 15.4307 6.45459V6.63385C15.4307 7.82259 16.4067 8.78537 17.6117 8.78537H24.1546V8.60608H17.6117Z" fill="#311B92" fill-opacity="0.1"/>
</g>
<path d="M15.4305 0H3.07161C1.87207 0 0.890625 0.968182 0.890625 2.15151V29.404C0.890625 30.5874 1.87207 31.5556 3.07161 31.5556H21.9735C23.173 31.5556 24.1545 30.5874 24.1545 29.404V8.60605L15.4305 0Z" fill="url(#paint1_radial_436_4968)"/>
</g>
<defs>
<linearGradient id="paint0_linear_436_4968" x1="20.1118" y1="8.66145" x2="20.1118" y2="15.9527" gradientUnits="userSpaceOnUse">
<stop stop-color="#311B92" stop-opacity="0.2"/>
<stop offset="1" stop-color="#311B92" stop-opacity="0.02"/>
</linearGradient>
<radialGradient id="paint1_radial_436_4968" cx="0" cy="0" r="1" gradientUnits="userSpaceOnUse" gradientTransform="translate(1.62764 0.627233) scale(37.5127 37.0058)">
<stop stop-color="white" stop-opacity="0.1"/>
<stop offset="1" stop-color="white" stop-opacity="0"/>
</radialGradient>
<clipPath id="clip0_436_4968">
<rect width="23.68" height="32" fill="white" transform="translate(0.890625)"/>
</clipPath>
</defs>
</svg>
