<svg width="36" height="36" viewBox="0 0 36 36" fill="none" xmlns="http://www.w3.org/2000/svg">
<path d="M11.5946 6.35571L13.4769 9.81881L13.4613 9.83441L3.0156 3L3 3.0156L11.1626 15.7946C11.1626 15.8102 11.147 15.8102 11.147 15.8252L7.64413 14.5689L7.93754 15.1053L10.3754 19.4263C11.4666 21.349 12.6299 23.2299 13.8627 25.065L16.594 28.7885C17.1802 29.5085 17.782 30.1984 18.4762 30.811C19.7573 31.945 21.2537 32.6344 22.9512 32.8948C24.8028 33.1708 26.5777 32.9104 28.2283 32.0368C30.6974 30.7498 32.2712 28.7423 32.8112 26.0304C33.3669 23.2878 32.6876 20.8363 30.8822 18.6908C30.203 17.8784 29.3851 17.2046 28.5523 16.5458C27.0709 15.3969 25.5126 14.3547 23.9076 13.3587L19.7261 10.8304L14.2017 7.73507L11.702 6.38691L11.6096 6.34071C11.6096 6.34071 11.594 6.34071 11.594 6.35631L11.5946 6.35571ZM17.0572 20.5135L11.24 11.3812C11.2556 11.3812 11.2556 11.3656 11.2706 11.3656L20.3441 17.3564L20.3597 17.3408L19.0787 14.9811L17.7826 12.6213C17.8132 12.6369 17.8444 12.6519 17.86 12.6675C19.2107 13.3937 20.5335 14.1706 21.8255 14.9967C23.6466 16.1456 25.452 17.3258 27.1489 18.6434C27.6875 19.0762 28.2123 19.5258 28.7227 19.9915C28.8769 20.1295 29.0005 20.2825 29.1241 20.4361C30.3278 21.9379 30.806 23.6382 30.4202 25.5234C30.0038 27.5303 28.8463 29.0015 27.0253 29.9206C25.05 30.9166 23.0748 30.8398 21.1307 29.7677C20.4209 29.3693 19.8347 28.8179 19.2947 28.2047C18.4306 27.2243 17.6434 26.1978 16.903 25.125C15.622 23.3172 14.4339 21.4627 13.3077 19.5631C13.2303 19.4251 13.1379 19.2871 13.0611 19.1342L13.0767 19.1186L17.0578 20.5129L17.0572 20.5135Z" fill="#FFDDE2"/>
<path d="M17.0567 20.5135L13.1062 19.1191L13.0906 19.1347L13.3372 19.5637C14.4542 21.469 15.6538 23.3247 16.9325 25.1256L19.3242 28.2053C19.8642 28.8185 20.4504 29.3698 21.1602 29.7682C23.0893 30.841 25.0795 30.9172 27.0548 29.9212C28.8758 29.0021 30.0483 27.5159 30.4497 25.524C30.8355 23.6394 30.3573 21.9385 29.1536 20.4367C29.03 20.2837 28.8914 20.1151 28.7522 19.9921L27.1784 18.6439C25.4809 17.3108 23.6755 16.1462 21.855 14.9972C20.559 14.1849 19.2474 13.4037 17.8895 12.6681C17.8739 12.6525 17.8589 12.6525 17.8121 12.6219L19.1082 14.9816L20.3892 17.3414L20.3736 17.357L11.3001 11.3661C11.2845 11.3661 11.2845 11.3817 11.2695 11.3817L17.0561 20.5141L17.0567 20.5135Z" fill="#FF486A"/>
<path d="M27.911 22.5864C27.881 22.5408 27.8354 22.4952 27.7904 22.4652C27.7604 22.4502 27.7454 22.4346 27.7148 22.4196C27.6542 22.389 27.5942 22.389 27.5336 22.389H27.5186L27.2324 22.6014L27.2173 22.6164L24.5941 24.5406L21.9102 22.5708L21.639 22.374H21.5784C21.4583 22.375 21.3434 22.4233 21.2587 22.5084C21.174 22.5936 21.1263 22.7087 21.126 22.8288V23.0712V26.9345C21.126 26.9801 21.126 27.0257 21.141 27.0557C21.2016 27.2375 21.3672 27.3737 21.5784 27.3737H21.9102V23.6316L23.8555 25.0559L24.4885 25.5257L24.6091 25.6169L25.3477 25.0715L27.2173 23.6928V27.3593H27.5492C27.7604 27.3593 27.926 27.2231 27.9866 27.0413C28.0016 26.9957 28.0016 26.9501 28.0016 26.9201V23.1324V22.8144C27.9866 22.7388 27.9716 22.662 27.911 22.5864Z" fill="white"/>
</svg>
