<svg xmlns="http://www.w3.org/2000/svg" width="24px" height="24px" viewBox="0 0 24 24"><path d="M3.96875,12.796875 L3.96875,10.921875 C4.34896023,10.9010416 4.6354157,10.8437505 4.828125,10.75 C5.0208343,10.6562495 5.1874993,10.498699 5.328125,10.2773438 C5.46875,10.0559885 5.56510391,9.7786475 5.6171875,9.4453125 C5.64843766,9.25781156 5.66796883,8.96630987 5.67578128,8.57080191 L5.6796875,8.140625 C5.6796875,7.13020328 5.72656203,6.42578324 5.8203125,6.02734375 C5.91406297,5.62890426 6.08333211,5.30859496 6.328125,5.06640625 C6.57291789,4.82421754 6.92968516,4.6328132 7.3984375,4.4921875 C7.67643368,4.41015584 8.09399188,4.36401357 8.65112213,4.35375975 L9.3125,4.3515625 L9.3125,6.21875 C8.73437211,6.21875 8.36328207,6.25130176 8.19921875,6.31640625 C8.03515543,6.38151074 7.91406289,6.48046809 7.8359375,6.61328125 C7.77083301,6.72395889 7.73285579,6.90064287 7.72200518,7.14333716 L7.70945254,7.77156465 C7.69860548,8.1165619 7.67826719,8.58072625 7.6484375,9.1640625 C7.6223957,9.67969008 7.55468805,10.0976546 7.4453125,10.4179688 C7.33593695,10.7382829 7.19661543,11.0026031 7.02734375,11.2109375 C6.85807207,11.4192719 6.59896008,11.6354155 6.25,11.859375 C6.5572932,12.0364592 6.80859277,12.2434884 7.00390625,12.4804688 C7.19921973,12.7174491 7.34895781,13.0052066 7.453125,13.34375 C7.55729219,13.6822934 7.62499984,14.1354138 7.65625,14.703125 L7.70912966,16.1977014 C7.71033489,16.261923 7.7109375,16.3158142 7.7109375,16.359375 C7.7109375,16.7031267 7.75260375,16.9427077 7.8359375,17.078125 C7.91927125,17.2135423 8.04557207,17.3164059 8.21484375,17.3867188 C8.38411543,17.4570316 8.74999719,17.4921875 9.3125,17.4921875 L9.3125,19.3671875 L8.8984375,19.3671875 C8.19530898,19.3671875 7.65625188,19.3111985 7.28125,19.1992188 C6.90624813,19.087239 6.58984504,18.901043 6.33203125,18.640625 C6.07421746,18.380207 5.90104211,18.0585957 5.8125,17.6757812 C5.7337959,17.3355018 5.69007193,16.8213603 5.68132715,16.133344 L5.67621531,15.4160141 C5.66464132,14.7107176 5.62413229,14.2387165 5.5546875,14 C5.44010359,13.5833313 5.26692824,13.2851571 5.03515625,13.1054688 C4.80338426,12.9257804 4.44791906,12.8229168 3.96875,12.796875 Z M19.8671875,12.796875 C19.4869773,12.8177084 19.2005218,12.8749995 19.0078125,12.96875 C18.8151032,13.0625005 18.6497403,13.220051 18.5117188,13.4414062 C18.3736972,13.6627615 18.276042,13.9401025 18.21875,14.2734375 C18.1874998,14.4609384 18.1679687,14.7509753 18.1601562,15.1435536 L18.15625,15.5703125 C18.15625,16.5807342 18.1106775,17.2864563 18.0195312,17.6875 C17.928385,18.0885437 17.7604179,18.410155 17.515625,18.6523438 C17.2708321,18.8945325 16.9114607,19.0859368 16.4375,19.2265625 C16.1197901,19.320313 15.6197951,19.3671875 14.9375,19.3671875 L14.5234375,19.3671875 L14.5234375,17.4921875 C15.080732,17.4921875 15.4453116,17.4570316 15.6171875,17.3867188 C15.7890634,17.3164059 15.9153642,17.2148444 15.9960938,17.0820312 C16.0633684,16.9713536 16.1035157,16.7964781 16.1165365,16.5574007 L16.1396484,15.7128917 C16.150716,15.4095071 16.1666666,15.0338564 16.1875,14.5859375 C16.2135418,14.0442681 16.2838536,13.6106787 16.3984375,13.2851562 C16.5130214,12.9596338 16.6653636,12.6835949 16.8554688,12.4570312 C17.0455739,12.2304676 17.289061,12.0312509 17.5859375,11.859375 C17.2005189,11.6093737 16.9192717,11.3645845 16.7421875,11.125 C16.4973946,10.7812483 16.3307296,10.3437527 16.2421875,9.8125 L16.2185905,9.62946404 C16.1884033,9.34970242 16.1633184,8.92708575 16.1433355,8.36160953 L16.1171875,7.40625 C16.1119791,7.01562305 16.0768232,6.75520898 16.0117188,6.625 C15.9466143,6.49479102 15.8294279,6.3945316 15.6601562,6.32421875 C15.4908846,6.2539059 15.1119821,6.21875 14.5234375,6.21875 L14.5234375,4.3515625 L14.9375,4.3515625 C15.6406285,4.3515625 16.1796856,4.40624945 16.5546875,4.515625 C16.9296894,4.62500055 17.2447904,4.8111966 17.5,5.07421875 C17.7552096,5.3372409 17.928385,5.66015434 18.0195312,6.04296875 C18.1005502,6.38324823 18.1455601,6.89738975 18.1545621,7.585406 L18.1595052,8.30056579 C18.1703558,9.00296876 18.208333,9.47569323 18.2734375,9.71875 C18.3880214,10.1354187 18.5624988,10.4335929 18.796875,10.6132812 C19.0312512,10.7929696 19.3880184,10.8958332 19.8671875,10.921875 L19.8671875,12.796875 Z" id="Copyright Mailmeteor 2021"></path></svg>