<svg xmlns="http://www.w3.org/2000/svg" width="24" height="24" fill="none">
  <path fill="#000" d="M6.6 18.6h1.275l9.375-9.375-1.275-1.275L6.6 17.325V18.6Zm-1.8 1.8v-3.825l12.45-12.45a1.732 1.732 0 0 1 1.271-.525c.236 0 .462.042.679.125.217.083.417.217.6.4L21.075 5.4c.183.183.317.383.4.6.083.217.125.438.125.663 0 .241-.042.47-.126.689a1.69 1.69 0 0 1-.399.598L8.625 20.4H4.8ZM16.601 8.599l-.626-.649 1.275 1.275-.649-.626ZM6.6 12c0-1.505-.524-2.782-1.571-3.829C3.982 7.124 2.705 6.601 1.2 6.6c1.505 0 2.782-.524 3.829-1.571C6.076 3.982 6.599 2.705 6.6 1.2c0 1.505.524 2.782 1.571 3.829C9.218 6.076 10.495 6.599 12 6.6c-1.505 0-2.782.524-3.829 1.571C7.124 9.218 6.601 10.495 6.6 12Z"/>
</svg>
