<svg width="24" height="24" viewBox="-2 -2 21 20" fill="none" xmlns="http://www.w3.org/2000/svg">
<path d="M4.5 14.5H5.5625L13.375 6.6875L12.3125 5.625L4.5 13.4375V14.5ZM3 16V12.8125L13.375 2.4375C13.5278 2.28472 13.6933 2.17361 13.8717 2.10417C14.05 2.03472 14.2375 2 14.4342 2C14.6308 2 14.8194 2.03472 15 2.10417C15.1806 2.17361 15.3472 2.28472 15.5 2.4375L16.5625 3.5C16.7153 3.65278 16.8264 3.81944 16.8958 4C16.9653 4.18056 17 4.36486 17 4.55292C17 4.75347 16.9651 4.94465 16.8954 5.12646C16.8257 5.30826 16.7147 5.47444 16.5625 5.625L6.1875 16H3ZM12.8344 6.16563L12.3125 5.625L13.375 6.6875L12.8344 6.16563ZM4.5 9C4.5 7.74542 4.06361 6.68181 3.19083 5.80917C2.31806 4.93653 1.25444 4.50014 0 4.5C1.25458 4.5 2.31819 4.06361 3.19083 3.19083C4.06347 2.31806 4.49986 1.25444 4.5 0C4.5 1.25458 4.93639 2.31819 5.80917 3.19083C6.68194 4.06347 7.74556 4.49986 9 4.5C7.74542 4.5 6.68181 4.93639 5.80917 5.80917C4.93653 6.68195 4.50014 7.74556 4.5 9Z" fill="#000000"/>
</svg>
