<svg xmlns="http://www.w3.org/2000/svg" width="24px" height="24px" viewBox="0 0 24 24">
    <g stroke="none" stroke-width="1" fill="none" fill-rule="evenodd">
        <g>
            <polygon points="0 0 24 0 24 24 0 24"></polygon>
            <path d="M15.6363636,6.54545455 L15.6363636,17 C15.6363636,19.0090909 14.0090909,20.6363636 12,20.6363636 C9.99090909,20.6363636 8.36363636,19.0090909 8.36363636,17 L8.36363636,5.63636364 C8.36363636,4.38181818 9.38181818,3.36363636 10.6363636,3.36363636 C11.8909091,3.36363636 12.9090909,4.38181818 12.9090909,5.63636364 L12.9090909,15.1818182 C12.9090909,15.6818182 12.5,16.0909091 12,16.0909091 C11.5,16.0909091 11.0909091,15.6818182 11.0909091,15.1818182 L11.0909091,6.54545455 L9.72727273,6.54545455 L9.72727273,15.1818182 C9.72727273,16.4363636 10.7454545,17.4545455 12,17.4545455 C13.2545455,17.4545455 14.2727273,16.4363636 14.2727273,15.1818182 L14.2727273,5.63636364 C14.2727273,3.62727273 12.6454545,2 10.6363636,2 C8.62727273,2 7,3.62727273 7,5.63636364 L7,17 C7,19.7636364 9.23636364,22 12,22 C14.7636364,22 17,19.7636364 17,17 L17,6.54545455 L15.6363636,6.54545455 Z" fill="#000000" fill-rule="nonzero"></path>
        </g>
    </g>
</svg>