<svg xmlns="http://www.w3.org/2000/svg" height="24px" viewBox="0 0 24 24" width="24px"><path d="M6.18222 9.8954C5.86444 9.31979 5.70556 8.66023 5.70556 7.89274C5.70556 7.16123 5.86444 6.50167 6.19444 5.89007C6.51222 5.29047 6.96444 4.77482 7.55111 4.3431C8.13778 3.92338 8.83444 3.58761 9.62889 3.34777C10.4356 3.11992 11.3278 3 12.2933 3C13.2833 3 14.1756 3.13191 14.9944 3.40773C15.8011 3.67155 16.4978 4.0553 17.06 4.53498C17.6344 5.01466 18.0744 5.59027 18.38 6.24983C18.6856 6.90939 18.8444 7.62891 18.8444 8.42039H15.1656C15.1656 8.04863 15.1044 7.71286 14.9822 7.40107C14.8722 7.07728 14.6889 6.81346 14.4444 6.58561C14.2 6.35776 13.8944 6.18987 13.5278 6.05796C13.1611 5.93804 12.7211 5.86609 12.2322 5.86609C11.7556 5.86609 11.3278 5.91406 10.9733 6.02199C10.6189 6.12991 10.3256 6.27382 10.0933 6.4537C9.86111 6.64557 9.67778 6.86143 9.55556 7.11326C9.43333 7.36509 9.37222 7.62891 9.37222 7.90473C9.37222 8.48035 9.67778 8.96003 10.2767 9.35576C10.7411 9.65556 11.2178 9.93138 12 10.1952H6.36556C6.30444 10.0993 6.23111 9.99134 6.18222 9.8954ZM23 13.7928V11.3944H1V13.7928H12.7578C12.9778 13.8767 13.2467 13.9607 13.43 14.0326C13.8822 14.2365 14.2367 14.4404 14.4933 14.6442C14.75 14.8481 14.9211 15.0759 15.0189 15.3278C15.1044 15.5676 15.1533 15.8434 15.1533 16.1552C15.1533 16.431 15.0922 16.6949 14.9822 16.9467C14.8722 17.1865 14.7011 17.4024 14.4689 17.5823C14.2367 17.7622 13.9556 17.8941 13.6011 18.002C13.2467 18.0979 12.8311 18.1579 12.3667 18.1579C11.8411 18.1579 11.3522 18.1099 10.9244 18.002C10.4967 17.8941 10.1178 17.7262 9.81222 17.4983C9.50667 17.2705 9.26222 16.9707 9.09111 16.5989C8.92 16.2272 8.78556 15.6875 8.78556 15.1479H5.15556C5.15556 15.8075 5.25333 16.503 5.44889 17.0426C5.64444 17.5823 5.90111 18.062 6.24333 18.4937C6.58556 18.9134 6.97667 19.2851 7.44111 19.5969C7.89333 19.9087 8.39444 20.1726 8.93222 20.3764C9.47 20.5803 10.0322 20.7362 10.6189 20.8441C11.2056 20.94 11.7922 21 12.3789 21C13.3567 21 14.2489 20.8921 15.0433 20.6642C15.8378 20.4364 16.5222 20.1246 17.0844 19.7169C17.6467 19.3091 18.0867 18.7935 18.3922 18.1939C18.6978 17.5943 18.8567 16.9107 18.8567 16.1432C18.8567 15.4237 18.7344 14.7761 18.4778 14.2125C18.4167 14.0806 18.3433 13.9367 18.27 13.8168H23V13.7928Z" /></svg>