<svg xmlns="http://www.w3.org/2000/svg" xmlns:xlink="http://www.w3.org/1999/xlink" width="24" height="24" viewBox="0 0 24 24"><path d="M7.71 10.0312C7.4825 9.61125 7.36875 9.13 7.36875 8.57C7.36875 8.03625 7.4825 7.555 7.71875 7.10875C7.94625 6.67125 8.27 6.295 8.69 5.98C9.11 5.67375 9.60875 5.42875 10.1775 5.25375C10.755 5.0875 11.3937 5 12.085 5C12.7937 5 13.4325 5.09625 14.0187 5.2975C14.5962 5.49 15.095 5.77 15.4975 6.12C15.9087 6.47 16.2237 6.89 16.4425 7.37125C16.6612 7.8525 16.775 8.3775 16.775 8.955H14.1413C14.1413 8.68375 14.0975 8.43875 14.01 8.21125C13.9312 7.975 13.8 7.7825 13.625 7.61625C13.45 7.45 13.2313 7.3275 12.9688 7.23125C12.7062 7.14375 12.3912 7.09125 12.0412 7.09125C11.7 7.09125 11.3937 7.12625 11.14 7.205C10.8862 7.28375 10.6762 7.38875 10.51 7.52C10.3437 7.66 10.2125 7.8175 10.125 8.00125C10.0375 8.185 9.99375 8.3775 9.99375 8.57875C9.99375 8.99875 10.2125 9.34875 10.6413 9.6375C10.9738 9.85625 11.315 10.0575 11.875 10.25H7.84125C7.7975 10.18 7.745 10.1012 7.71 10.0312ZM19.75 12.875V11.125H4V12.875H12.4175C12.575 12.9363 12.7675 12.9975 12.8988 13.05C13.2225 13.1987 13.4762 13.3475 13.66 13.4963C13.8437 13.645 13.9663 13.8112 14.0363 13.995C14.0975 14.17 14.1325 14.3713 14.1325 14.5988C14.1325 14.8 14.0887 14.9925 14.01 15.1763C13.9312 15.3513 13.8088 15.5087 13.6425 15.64C13.4763 15.7712 13.275 15.8675 13.0213 15.9463C12.7675 16.0163 12.47 16.06 12.1375 16.06C11.7613 16.06 11.4112 16.025 11.105 15.9463C10.7987 15.8675 10.5275 15.745 10.3088 15.5788C10.09 15.4125 9.915 15.1938 9.7925 14.9225C9.67 14.6513 9.57375 14.2575 9.57375 13.8638H6.975C6.975 14.345 7.045 14.8525 7.185 15.2463C7.325 15.64 7.50875 15.99 7.75375 16.305C7.99875 16.6113 8.27875 16.8825 8.61125 17.11C8.935 17.3375 9.29375 17.53 9.67875 17.6787C10.0637 17.8275 10.4662 17.9412 10.8862 18.02C11.3062 18.09 11.7263 18.1338 12.1463 18.1338C12.8463 18.1338 13.485 18.055 14.0537 17.8887C14.6225 17.7225 15.1125 17.495 15.515 17.1975C15.9175 16.9 16.2325 16.5238 16.4512 16.0863C16.67 15.6488 16.7838 15.15 16.7838 14.59C16.7838 14.065 16.6962 13.5925 16.5125 13.1813C16.4687 13.085 16.4162 12.98 16.3637 12.8925H19.75V12.875Z" /></svg>