<svg xmlns="http://www.w3.org/2000/svg" xmlns:xlink="http://www.w3.org/1999/xlink" width="24" height="24" viewBox="0 0 24 24"><path d="M8.00444 10.3631C7.75889 9.91539 7.63611 9.4024 7.63611 8.80546C7.63611 8.23651 7.75889 7.72352 8.01389 7.24783C8.25944 6.78148 8.60889 6.38041 9.06222 6.04464C9.51556 5.71819 10.0539 5.45703 10.6678 5.27049C11.2911 5.09327 11.9806 5 12.7267 5C13.4917 5 14.1811 5.1026 14.8139 5.31712C15.4372 5.52232 15.9756 5.82079 16.41 6.19387C16.8539 6.56696 17.1939 7.01466 17.43 7.52765C17.6661 8.04064 17.7889 8.60027 17.7889 9.21586H14.9461C14.9461 8.92672 14.8989 8.66556 14.8044 8.42305C14.7194 8.17122 14.5778 7.96602 14.3889 7.78881C14.2 7.61159 13.9639 7.48101 13.6806 7.37841C13.3972 7.28514 13.0572 7.22918 12.6794 7.22918C12.3111 7.22918 11.9806 7.26649 11.7067 7.35043C11.4328 7.43438 11.2061 7.5463 11.0267 7.68621C10.8472 7.83544 10.7056 8.00333 10.6111 8.1992C10.5167 8.39507 10.4694 8.60027 10.4694 8.81479C10.4694 9.26249 10.7056 9.63558 11.1683 9.94337C11.5272 10.1765 11.8956 10.3911 12.5 10.5963H8.14611C8.09889 10.5217 8.04222 10.4377 8.00444 10.3631ZM21 13.3944V11.529H4V13.3944H13.0856C13.2556 13.4597 13.4633 13.525 13.605 13.5809C13.9544 13.7395 14.2283 13.8981 14.4267 14.0566C14.625 14.2152 14.7572 14.3924 14.8328 14.5883C14.8989 14.7748 14.9367 14.9893 14.9367 15.2318C14.9367 15.4464 14.8894 15.6516 14.8044 15.8474C14.7194 16.034 14.5872 16.2019 14.4078 16.3418C14.2283 16.4817 14.0111 16.5843 13.7372 16.6682C13.4633 16.7428 13.1422 16.7895 12.7833 16.7895C12.3772 16.7895 11.9994 16.7522 11.6689 16.6682C11.3383 16.5843 11.0456 16.4537 10.8094 16.2765C10.5733 16.0993 10.3844 15.8661 10.2522 15.5769C10.12 15.2878 10.0161 14.8681 10.0161 14.4484H7.21111C7.21111 14.9614 7.28667 15.5023 7.43778 15.9221C7.58889 16.3418 7.78722 16.7149 8.05167 17.0506C8.31611 17.3771 8.61833 17.6662 8.97722 17.9087C9.32667 18.1512 9.71389 18.3564 10.1294 18.515C10.545 18.6736 10.9794 18.7948 11.4328 18.8787C11.8861 18.9534 12.3394 19 12.7928 19C13.5483 19 14.2378 18.9161 14.8517 18.7388C15.4656 18.5616 15.9944 18.3191 16.4289 18.002C16.8633 17.6849 17.2033 17.2838 17.4394 16.8175C17.6756 16.3511 17.7983 15.8195 17.7983 15.2225C17.7983 14.6629 17.7039 14.1592 17.5056 13.7209C17.4583 13.6183 17.4017 13.5063 17.345 13.4131H21V13.3944Z" /></svg>
