<svg xmlns="http://www.w3.org/2000/svg" height="24px" viewBox="0 0 24 24" width="24px"><path d="M5.83105 21V3.10449H12.5449C13.9121 3.10449 15.0067 3.2876 15.8286 3.65381C16.6587 4.01188 17.3057 4.56934 17.7695 5.32617C18.2415 6.07487 18.4775 6.86019 18.4775 7.68213C18.4775 8.4471 18.27 9.16732 17.855 9.84277C17.4399 10.5182 16.8133 11.0635 15.9751 11.4785C17.0575 11.7959 17.8875 12.3371 18.4653 13.1021C19.0513 13.867 19.3442 14.7703 19.3442 15.812C19.3442 16.6502 19.1652 17.4315 18.8071 18.1558C18.4572 18.8719 18.0218 19.4253 17.501 19.8159C16.9801 20.2065 16.325 20.5036 15.5356 20.707C14.7544 20.9023 13.7941 21 12.6548 21H5.83105ZM8.19922 10.624H12.0688C13.1187 10.624 13.8714 10.5549 14.3271 10.4165C14.9294 10.2375 15.381 9.94043 15.6821 9.52539C15.9914 9.11035 16.146 8.58952 16.146 7.96289C16.146 7.36882 16.0036 6.84798 15.7188 6.40039C15.4339 5.94466 15.027 5.63542 14.498 5.47266C13.9691 5.30176 13.0617 5.21631 11.7759 5.21631H8.19922V10.624ZM8.19922 18.8882H12.6548C13.4198 18.8882 13.9569 18.8597 14.2661 18.8027C14.8114 18.7051 15.2671 18.5423 15.6333 18.3145C15.9995 18.0866 16.3006 17.757 16.5366 17.3257C16.7726 16.8862 16.8906 16.3817 16.8906 15.812C16.8906 15.1447 16.7197 14.5669 16.3779 14.0786C16.0361 13.5822 15.5601 13.2363 14.9497 13.041C14.3475 12.8376 13.4767 12.7358 12.3374 12.7358H8.19922V18.8882Z"/></svg>