<svg xmlns="http://www.w3.org/2000/svg" height="24px" viewBox="0 0 24 24" width="24px"><path d="M16.2 11.73C17.4633 10.8686 18.3488 9.45429 18.3488 8.14286C18.3488 5.23714 16.0698 3 13.1395 3H5V21H14.1684C16.8902 21 19 18.8143 19 16.1271C19 14.1729 17.88 12.5014 16.2 11.73ZM8.90698 6.21429H12.814C13.8949 6.21429 14.7674 7.07571 14.7674 8.14286C14.7674 9.21 13.8949 10.0714 12.814 10.0714H8.90698V6.21429ZM13.4651 17.7857H8.90698V13.9286H13.4651C14.546 13.9286 15.4186 14.79 15.4186 15.8571C15.4186 16.9243 14.546 17.7857 13.4651 17.7857Z"/></svg>